if (_typeface_js && _typeface_js.loadFace) _typeface_js.loadFace({"glyphs":{"ợ":{"x_min":44,"x_max":818,"ha":817,"o":"m 514 298 q 502 400 514 352 q 471 485 491 448 q 422 544 451 522 q 358 566 393 566 q 289 547 316 566 q 245 495 261 528 q 222 418 228 463 q 216 320 216 373 q 228 220 216 267 q 262 139 241 174 q 311 84 283 104 q 371 65 339 65 q 438 80 411 65 q 482 125 465 96 q 506 199 499 155 q 514 298 514 242 m 818 706 q 774 611 818 663 q 637 509 730 559 q 672 425 660 471 q 685 329 685 380 q 672 240 685 283 q 638 158 660 196 q 585 86 616 119 q 518 30 555 53 q 439 -6 481 6 q 351 -20 396 -20 q 225 4 282 -20 q 128 71 168 28 q 66 173 88 114 q 44 301 44 232 q 68 431 44 368 q 138 543 93 494 q 243 621 182 592 q 378 651 305 651 q 498 629 444 651 q 592 568 552 607 q 630 613 621 591 q 640 652 640 635 q 627 689 640 671 q 595 722 614 706 l 772 802 q 804 761 791 787 q 818 706 818 734 m 481 -184 q 473 -230 481 -209 q 450 -268 464 -252 q 416 -294 436 -285 q 375 -304 397 -304 q 315 -283 336 -304 q 294 -221 294 -262 q 303 -174 294 -196 q 327 -136 312 -152 q 361 -111 341 -120 q 401 -102 380 -102 q 460 -122 439 -102 q 481 -184 481 -143 "},"Ẩ":{"x_min":0,"x_max":858.625,"ha":873,"o":"m 506 373 l 394 688 l 293 373 l 506 373 m 265 292 l 200 95 q 217 65 193 74 q 296 49 240 55 l 296 0 l 0 0 l 0 49 q 70 66 46 57 q 102 95 95 75 l 339 818 q 374 843 355 831 q 412 864 392 855 q 452 880 432 873 q 489 893 472 887 l 774 95 q 783 78 777 86 q 798 65 788 71 q 822 56 807 60 q 858 49 836 52 l 858 0 l 521 0 l 521 49 q 593 63 574 52 q 604 95 611 73 l 535 292 l 265 292 m 658 962 q 640 938 650 949 q 619 922 630 927 l 428 1032 l 239 922 q 218 938 227 927 q 198 962 208 949 l 387 1183 l 470 1183 l 658 962 m 562 1392 q 551 1359 562 1374 q 522 1332 539 1345 q 490 1308 506 1319 q 465 1285 473 1297 q 461 1260 457 1273 q 488 1230 464 1247 q 474 1223 483 1226 q 457 1217 466 1220 q 439 1212 448 1214 q 426 1209 431 1210 q 366 1245 381 1229 q 355 1275 351 1261 q 376 1301 359 1289 q 412 1327 393 1314 q 446 1353 431 1339 q 460 1383 460 1366 q 453 1414 460 1405 q 431 1424 445 1424 q 408 1414 417 1424 q 399 1392 399 1404 q 407 1373 399 1384 q 363 1358 390 1366 q 304 1348 336 1351 l 296 1355 q 294 1369 294 1361 q 308 1408 294 1389 q 342 1443 321 1427 q 393 1467 364 1458 q 453 1477 422 1477 q 503 1470 482 1477 q 537 1451 524 1463 q 556 1424 550 1440 q 562 1392 562 1409 "},"ǻ":{"x_min":44,"x_max":688.765625,"ha":694,"o":"m 279 98 q 306 101 291 98 q 337 112 320 104 q 375 133 354 120 q 422 169 396 147 l 422 319 q 353 306 381 312 q 306 292 325 299 q 275 278 287 286 q 255 262 264 271 q 226 224 237 244 q 216 175 216 204 q 222 137 216 152 q 238 113 228 122 q 259 101 248 105 q 279 98 270 98 m 688 76 q 629 39 660 56 q 571 8 598 21 q 520 -12 543 -5 q 486 -20 498 -20 q 443 8 460 -20 q 423 87 426 37 q 361 36 392 57 q 301 3 330 15 q 246 -14 273 -9 q 198 -20 220 -20 q 142 -10 170 -20 q 93 18 115 0 q 57 67 71 38 q 44 136 44 97 q 60 214 44 182 q 102 272 77 247 q 139 303 118 288 q 196 333 161 318 q 286 360 232 347 q 422 386 340 373 l 422 466 q 417 505 422 487 q 403 535 413 523 q 376 555 393 548 q 333 563 359 563 q 301 556 317 563 q 272 539 285 550 q 253 512 260 528 q 248 476 246 496 q 237 466 249 472 q 208 453 226 459 q 169 440 190 447 q 128 429 148 434 q 93 422 108 425 q 72 421 77 420 l 57 458 q 109 534 74 499 q 190 595 143 569 q 292 636 237 621 q 404 651 348 651 q 485 638 451 651 q 541 604 519 626 q 574 552 563 582 q 585 488 585 522 l 585 161 q 592 121 585 133 q 612 109 599 109 q 621 109 616 109 q 634 112 627 110 q 650 118 641 114 q 673 127 660 121 l 688 76 m 398 842 q 385 892 398 875 q 356 910 371 910 q 331 904 341 910 q 314 889 321 898 q 303 868 306 880 q 299 844 299 856 q 313 795 299 812 q 342 779 327 779 q 384 797 369 779 q 398 842 398 815 m 490 870 q 476 802 490 834 q 440 747 463 770 q 388 710 417 724 q 328 697 359 697 q 279 705 301 697 q 241 729 257 713 q 216 767 225 745 q 207 816 207 789 q 221 884 207 852 q 257 940 234 916 q 309 978 279 964 q 370 992 338 992 q 419 982 397 992 q 457 957 442 973 q 482 919 473 941 q 490 870 490 897 m 308 1003 q 294 1007 302 1004 q 276 1015 285 1011 q 260 1024 267 1020 q 249 1032 253 1029 l 392 1323 q 422 1319 400 1322 q 470 1312 444 1316 q 517 1304 495 1308 q 547 1297 539 1299 l 567 1261 l 308 1003 "},"ʉ":{"x_min":22.25,"x_max":776.453125,"ha":800,"o":"m 743 275 l 672 275 l 672 192 q 672 158 672 171 q 675 134 673 144 q 679 120 676 125 q 687 111 682 114 q 710 109 695 106 q 759 127 724 112 l 776 76 q 721 43 751 60 q 662 11 691 26 q 612 -11 634 -2 q 582 -20 590 -20 q 558 -15 570 -20 q 537 1 547 -11 q 520 35 528 13 q 509 92 513 57 q 433 33 466 55 q 372 0 399 11 q 321 -16 344 -12 q 277 -20 298 -20 q 214 -11 245 -20 q 159 21 183 -2 q 119 85 134 44 q 105 189 105 125 l 105 275 l 37 275 l 22 289 q 27 304 23 295 q 35 322 31 313 q 43 341 39 332 l 51 356 l 105 356 l 105 467 q 103 518 105 500 q 95 545 102 536 q 70 558 87 554 q 22 565 54 561 l 22 612 q 85 618 56 614 q 138 625 113 621 q 190 636 164 630 q 244 651 215 642 l 268 619 l 268 356 l 509 356 l 509 467 q 506 516 509 498 q 495 545 504 535 q 468 559 486 555 q 419 565 450 563 l 419 612 q 542 628 487 618 q 646 651 597 638 l 672 619 l 672 356 l 757 356 l 772 338 l 743 275 m 346 97 q 377 100 361 97 q 414 112 394 103 q 457 137 434 122 q 509 177 481 153 l 509 275 l 268 275 l 268 232 q 273 163 268 190 q 288 122 278 137 q 313 102 298 107 q 346 97 327 97 "},"Ổ":{"x_min":37,"x_max":812,"ha":864,"o":"m 641 427 q 624 562 641 496 q 577 677 607 627 q 504 757 546 727 q 409 787 461 787 q 323 762 360 787 q 260 693 285 738 q 221 583 234 648 q 209 435 209 517 q 226 292 209 359 q 275 177 244 226 q 347 100 306 128 q 435 72 388 72 q 517 93 479 72 q 582 159 555 115 q 625 270 609 204 q 641 427 641 337 m 812 439 q 797 319 812 377 q 755 210 782 262 q 691 117 728 159 q 608 44 654 74 q 511 -3 563 13 q 405 -20 460 -20 q 251 15 319 -20 q 135 112 182 51 q 62 251 87 172 q 37 415 37 329 q 67 590 37 507 q 151 737 97 674 q 280 837 205 800 q 444 875 355 875 q 602 838 534 875 q 717 740 670 801 q 788 600 764 679 q 812 439 812 521 m 661 962 q 643 938 653 949 q 622 922 634 927 l 432 1032 l 242 922 q 221 938 231 927 q 202 962 211 949 l 391 1183 l 474 1183 l 661 962 m 566 1392 q 554 1359 566 1374 q 526 1332 542 1345 q 493 1308 509 1319 q 469 1285 477 1297 q 464 1260 461 1273 q 491 1230 467 1247 q 478 1223 486 1226 q 460 1217 469 1220 q 442 1212 451 1214 q 429 1209 434 1210 q 370 1245 385 1229 q 359 1275 355 1261 q 379 1301 363 1289 q 415 1327 396 1314 q 449 1353 434 1339 q 464 1383 464 1366 q 456 1414 464 1405 q 434 1424 448 1424 q 412 1414 420 1424 q 403 1392 403 1404 q 410 1373 403 1384 q 366 1358 393 1366 q 307 1348 339 1351 l 300 1355 q 298 1369 298 1361 q 311 1408 298 1389 q 346 1443 324 1427 q 396 1467 368 1458 q 456 1477 425 1477 q 506 1470 486 1477 q 540 1451 527 1463 q 560 1424 554 1440 q 566 1392 566 1409 "},"Ừ":{"x_min":29.078125,"x_max":1016.078125,"ha":1016,"o":"m 1016 944 q 1003 893 1016 920 q 963 839 990 867 q 895 783 936 811 q 797 728 853 755 l 797 355 q 772 197 797 266 q 702 79 747 127 q 596 5 657 30 q 461 -20 535 -20 q 330 0 392 -20 q 222 58 268 18 q 148 158 175 98 q 122 301 122 218 l 122 763 q 99 783 122 771 q 29 805 77 795 l 29 855 l 385 855 l 385 805 q 315 784 339 795 q 292 763 292 772 l 292 345 q 303 230 292 280 q 340 146 315 180 q 405 95 365 112 q 503 78 445 78 q 585 99 552 78 q 639 157 618 121 q 668 240 659 193 q 678 337 678 287 l 678 763 q 655 783 678 771 q 585 805 633 795 l 585 855 l 830 855 q 837 873 835 864 q 838 889 838 882 q 825 926 838 909 q 794 959 813 944 l 970 1040 q 1002 998 989 1025 q 1016 944 1016 972 m 617 962 q 597 938 607 949 q 576 922 588 927 l 251 1080 l 258 1123 q 278 1139 263 1128 q 311 1162 293 1150 q 345 1183 329 1173 q 369 1198 362 1193 l 617 962 "},"̂":{"x_min":-583.953125,"x_max":-119.375,"ha":0,"o":"m -119 750 q -137 723 -127 737 q -158 705 -147 710 l -349 856 l -538 705 q -562 723 -550 710 q -583 750 -574 737 l -394 1013 l -301 1013 l -119 750 "},"Á":{"x_min":0,"x_max":858.625,"ha":873,"o":"m 506 373 l 394 688 l 293 373 l 506 373 m 265 292 l 200 95 q 217 65 193 74 q 296 49 240 55 l 296 0 l 0 0 l 0 49 q 70 66 46 57 q 102 95 95 75 l 339 818 q 374 843 355 831 q 412 864 392 855 q 452 880 432 873 q 489 893 472 887 l 774 95 q 783 78 777 86 q 798 65 788 71 q 822 56 807 60 q 858 49 836 52 l 858 0 l 521 0 l 521 49 q 593 63 574 52 q 604 95 611 73 l 535 292 l 265 292 m 339 922 q 315 941 328 927 q 293 967 303 954 l 541 1198 q 575 1178 556 1189 q 612 1157 594 1167 q 642 1137 629 1146 q 661 1122 656 1127 l 668 1086 l 339 922 "},"ṑ":{"x_min":44,"x_max":685,"ha":729,"o":"m 514 298 q 502 400 514 352 q 471 485 491 448 q 422 544 451 522 q 358 566 393 566 q 289 547 316 566 q 245 495 261 528 q 222 418 228 463 q 216 320 216 373 q 228 220 216 267 q 262 139 241 174 q 311 84 283 104 q 371 65 339 65 q 438 80 411 65 q 482 125 465 96 q 506 199 499 155 q 514 298 514 242 m 685 329 q 672 240 685 283 q 638 158 660 196 q 585 86 616 119 q 518 30 555 53 q 439 -6 481 6 q 351 -20 396 -20 q 225 4 282 -20 q 128 71 168 28 q 66 173 88 114 q 44 301 44 232 q 68 431 44 368 q 137 543 93 494 q 243 621 182 592 q 378 651 305 651 q 504 626 447 651 q 601 559 560 602 q 663 457 641 516 q 685 329 685 398 m 674 886 q 667 866 672 879 q 656 840 662 854 q 644 815 650 826 q 636 797 639 803 l 118 797 l 96 818 q 103 838 99 826 q 114 864 108 850 q 126 889 120 877 q 134 908 131 901 l 653 908 l 674 886 m 488 980 q 476 971 484 976 q 460 962 469 966 q 444 954 452 957 q 430 949 436 951 l 170 1204 l 190 1242 q 218 1248 197 1244 q 263 1257 239 1252 q 310 1265 288 1261 q 340 1269 332 1268 l 488 980 "},"Ȯ":{"x_min":37,"x_max":812,"ha":864,"o":"m 641 427 q 624 562 641 496 q 577 677 607 627 q 504 757 546 727 q 409 787 461 787 q 323 762 360 787 q 260 693 285 738 q 221 583 234 648 q 209 435 209 517 q 226 292 209 359 q 275 177 244 226 q 347 100 306 128 q 435 72 388 72 q 517 93 479 72 q 582 159 555 115 q 625 270 609 204 q 641 427 641 337 m 812 439 q 797 319 812 377 q 755 210 782 262 q 691 117 728 159 q 608 44 654 74 q 511 -3 563 13 q 405 -20 460 -20 q 251 15 319 -20 q 135 112 182 51 q 62 251 87 172 q 37 415 37 329 q 67 590 37 507 q 151 737 97 674 q 280 837 205 800 q 444 875 355 875 q 602 838 534 875 q 717 740 670 801 q 788 600 764 679 q 812 439 812 521 m 525 1050 q 517 1003 525 1024 q 494 965 508 981 q 461 939 480 949 q 419 930 441 930 q 359 951 380 930 q 338 1012 338 972 q 347 1059 338 1037 q 371 1097 356 1081 q 405 1122 385 1113 q 445 1132 424 1132 q 504 1111 483 1132 q 525 1050 525 1091 "},"ĥ":{"x_min":33,"x_max":792.21875,"ha":807,"o":"m 449 0 l 449 49 q 518 71 498 62 q 539 90 539 81 l 539 388 q 534 457 539 430 q 521 499 530 483 q 497 521 511 515 q 462 528 482 528 q 381 503 423 528 q 285 433 339 479 l 285 90 q 308 69 285 80 q 375 49 331 59 l 375 0 l 33 0 l 33 49 q 99 70 77 61 q 122 90 122 79 l 122 859 q 120 904 122 888 q 110 928 118 920 q 83 941 101 937 q 33 949 65 945 l 33 996 q 101 1007 70 1002 q 156 1019 131 1013 q 206 1033 182 1025 q 255 1051 230 1040 l 285 1023 l 285 530 q 431 622 363 594 q 552 651 499 651 q 608 641 581 651 q 656 612 635 632 q 689 558 676 591 q 702 477 702 524 l 702 90 q 706 81 702 86 q 720 72 710 77 q 748 62 730 67 q 792 49 765 56 l 792 0 l 449 0 m 640 1132 q 622 1108 632 1119 q 601 1091 613 1097 l 411 1202 l 221 1091 q 200 1108 210 1097 q 181 1132 190 1119 l 370 1352 l 453 1352 l 640 1132 "},"»":{"x_min":84.78125,"x_max":670.765625,"ha":715,"o":"m 670 289 l 400 1 l 361 31 l 497 314 l 361 598 l 400 629 l 670 339 l 670 289 m 393 289 l 124 1 l 85 31 l 221 314 l 84 598 l 124 629 l 394 339 l 393 289 "},"Ḻ":{"x_min":29.078125,"x_max":691.46875,"ha":707,"o":"m 691 205 q 685 144 688 176 q 677 83 681 112 q 670 32 673 54 q 663 0 666 10 l 29 0 l 29 49 q 98 70 75 59 q 122 90 122 81 l 122 763 q 99 783 122 771 q 29 805 77 795 l 29 855 l 385 855 l 385 805 q 315 784 339 795 q 292 763 292 772 l 292 131 q 297 109 292 119 q 317 94 303 100 q 356 84 332 87 q 418 81 380 81 l 494 81 q 547 88 525 81 q 584 112 568 95 q 614 156 601 129 q 641 223 627 183 l 691 205 m 649 -137 q 641 -157 647 -145 q 630 -183 636 -170 q 619 -208 624 -197 q 611 -227 613 -220 l 92 -227 l 71 -205 q 78 -185 73 -197 q 88 -159 82 -173 q 100 -134 94 -146 q 109 -116 105 -122 l 627 -116 l 649 -137 "},"∆":{"x_min":29.84375,"x_max":803.015625,"ha":847,"o":"m 784 0 l 45 0 l 29 40 q 142 341 88 195 q 189 468 165 402 q 237 597 214 534 q 281 717 261 660 q 318 818 302 774 q 391 859 353 841 q 468 893 429 877 q 512 778 487 842 q 564 645 537 715 q 619 504 591 576 q 674 365 647 432 q 803 40 736 207 l 784 0 m 592 132 q 514 333 552 233 q 479 422 497 376 q 443 514 461 468 q 407 604 425 560 q 375 686 390 648 q 342 597 360 644 l 307 503 q 274 411 290 456 q 242 323 257 365 q 171 132 206 226 q 165 112 166 119 q 171 102 164 105 q 195 98 178 99 q 245 98 212 98 l 517 98 q 568 98 550 98 q 593 102 585 99 q 598 112 600 105 q 592 132 597 119 "},"ṟ":{"x_min":-88.84375,"x_max":597.515625,"ha":617,"o":"m 593 621 q 597 604 597 618 q 594 568 597 589 q 585 521 591 547 q 574 471 580 496 q 561 426 568 447 q 549 393 554 405 l 499 393 q 491 444 497 420 q 476 487 485 469 q 454 515 467 504 q 424 526 440 526 q 395 520 411 526 q 361 501 379 515 q 324 459 343 486 q 284 387 305 432 l 284 90 q 313 69 284 80 q 404 49 341 59 l 404 0 l 32 0 l 32 49 q 122 90 122 69 l 122 450 q 120 487 122 472 q 117 512 119 503 q 112 527 115 522 q 106 536 109 533 q 96 544 101 541 q 83 549 91 547 q 63 552 75 551 q 32 554 51 553 l 32 602 q 97 612 69 607 q 148 622 124 617 q 194 634 172 627 q 246 651 217 641 l 274 622 l 283 524 q 324 573 301 550 q 374 614 347 596 q 428 641 400 631 q 486 651 457 651 q 540 643 512 651 q 593 621 568 635 m 489 -137 q 481 -157 486 -145 q 470 -183 476 -170 q 459 -208 464 -197 q 451 -227 453 -220 l -67 -227 l -88 -205 q -82 -185 -86 -197 q -71 -159 -77 -173 q -59 -134 -65 -146 q -50 -116 -54 -122 l 467 -116 l 489 -137 "},"ỹ":{"x_min":-42.046875,"x_max":696.53125,"ha":705,"o":"m 696 581 q 663 572 676 576 q 642 563 650 568 q 629 551 634 558 q 621 535 625 545 l 395 -50 q 332 -178 366 -125 q 260 -266 298 -232 q 181 -317 222 -301 q 96 -334 139 -334 q 45 -329 70 -334 q 1 -317 20 -324 q -30 -302 -18 -310 q -42 -287 -42 -293 q -30 -264 -42 -281 q -3 -227 -18 -247 q 29 -190 12 -207 q 57 -165 46 -172 q 125 -192 91 -187 q 185 -188 160 -197 q 239 -149 210 -179 q 291 -62 267 -120 l 311 -15 l 84 535 q 59 563 76 553 q 8 581 42 574 l 8 631 l 316 631 l 316 581 q 275 574 289 578 q 255 565 261 570 q 249 553 248 560 q 255 535 250 546 l 394 194 l 527 535 q 532 552 531 545 q 528 564 533 559 q 510 573 523 569 q 474 581 497 577 l 474 631 l 696 631 l 696 581 m 636 933 q 606 873 623 905 q 566 811 588 840 q 516 764 543 783 q 457 745 489 745 q 402 756 428 745 q 350 780 375 767 q 300 804 325 793 q 250 816 276 816 q 222 810 234 816 q 199 795 210 805 q 176 771 187 786 q 153 738 165 756 l 102 756 q 131 817 114 784 q 171 879 149 850 q 221 927 193 908 q 279 947 248 947 q 338 935 310 947 q 392 911 366 924 q 440 887 417 898 q 485 876 463 876 q 538 894 516 876 q 583 954 560 913 l 636 933 "},"«":{"x_min":44.078125,"x_max":630.0625,"ha":715,"o":"m 44 291 l 44 315 q 44 331 44 324 q 45 340 44 339 l 314 629 l 353 598 l 347 586 q 332 554 341 574 q 310 508 322 534 q 284 456 297 483 q 259 404 271 430 q 238 359 247 379 q 222 328 228 340 q 217 316 217 316 l 354 31 l 314 1 l 44 291 m 320 291 l 320 315 q 321 331 320 324 q 322 340 321 339 l 590 629 l 629 598 l 623 586 q 608 554 617 574 q 586 508 598 534 q 560 456 573 483 q 535 404 548 430 q 514 359 523 379 q 498 328 504 340 q 493 316 493 316 l 630 31 l 590 1 l 320 291 "},"ử":{"x_min":22.9375,"x_max":940,"ha":940,"o":"m 940 706 q 924 650 940 680 q 876 590 908 621 q 792 528 843 559 q 672 469 741 497 l 672 192 q 672 157 672 171 q 675 134 673 144 q 679 120 676 125 q 687 111 682 114 q 710 109 695 106 q 759 127 724 112 l 776 76 q 721 43 751 59 q 662 11 691 26 q 612 -11 634 -2 q 582 -20 590 -20 q 558 -15 570 -20 q 537 1 547 -11 q 520 35 528 13 q 509 92 513 57 q 433 33 466 55 q 372 0 399 11 q 321 -16 344 -12 q 276 -20 298 -20 q 214 -11 244 -20 q 159 20 183 -2 q 119 84 134 44 q 105 189 105 125 l 105 467 q 103 517 105 499 q 95 544 102 535 q 70 557 87 554 q 22 564 54 560 l 22 611 q 85 617 56 614 q 138 625 113 621 q 190 636 164 630 q 244 651 215 642 l 268 619 l 268 231 q 273 163 268 189 q 288 122 278 137 q 313 102 298 107 q 346 97 327 97 q 377 100 361 97 q 414 112 394 103 q 457 137 434 122 q 509 177 481 153 l 509 467 q 506 516 509 497 q 495 544 504 534 q 468 558 486 554 q 419 564 450 562 l 419 611 q 542 628 487 617 q 646 650 597 638 l 672 619 l 671 540 q 716 569 698 554 q 743 599 733 585 q 757 627 753 614 q 762 651 762 640 q 749 688 762 671 q 718 722 737 706 l 894 802 q 926 761 913 787 q 940 706 940 734 m 524 904 q 513 871 524 885 q 484 844 501 856 q 452 820 468 831 q 427 797 435 809 q 423 772 419 785 q 450 742 426 759 q 436 735 445 738 q 419 728 428 731 q 401 723 410 725 q 388 721 393 721 q 328 756 343 740 q 317 787 313 773 q 338 813 321 801 q 374 838 355 826 q 408 864 393 851 q 422 894 422 878 q 415 926 422 917 q 393 936 407 936 q 370 925 379 936 q 361 904 361 915 q 369 885 361 896 q 325 870 352 877 q 266 860 298 863 l 258 867 q 256 881 256 873 q 270 920 256 900 q 304 954 283 939 q 355 979 326 970 q 415 989 384 989 q 465 982 444 989 q 499 963 486 975 q 518 936 512 951 q 524 904 524 921 "},"í":{"x_min":43,"x_max":432.03125,"ha":417,"o":"m 43 0 l 43 49 q 110 70 88 59 q 132 90 132 81 l 132 439 q 131 495 132 474 q 122 528 130 516 q 96 545 115 540 q 43 554 78 551 l 43 602 q 153 622 101 610 q 251 651 205 634 l 295 651 l 295 90 q 315 70 295 82 q 385 49 335 59 l 385 0 l 43 0 m 172 705 q 158 709 166 705 q 141 717 149 713 q 125 726 132 721 q 113 734 118 730 l 257 1025 q 287 1021 265 1024 q 334 1014 309 1018 q 381 1005 359 1010 q 411 999 404 1001 l 432 962 l 172 705 "},"ʠ":{"x_min":44,"x_max":947.5,"ha":762,"o":"m 361 109 q 396 113 380 109 q 430 127 413 118 q 464 150 446 136 q 501 182 481 164 l 501 474 q 473 509 489 494 q 439 537 458 525 q 401 554 421 548 q 363 561 382 561 q 306 551 334 561 q 256 518 278 542 q 220 452 234 494 q 207 347 207 411 q 220 245 207 290 q 255 170 234 201 q 305 124 277 140 q 361 109 333 109 m 947 956 q 932 932 947 949 q 897 897 918 915 q 854 862 876 879 q 816 837 832 845 q 802 880 810 860 q 785 915 794 900 q 763 938 775 930 q 735 947 750 947 q 707 936 720 947 q 684 902 693 926 q 669 837 674 877 q 664 734 664 796 l 664 -234 q 668 -245 664 -239 q 682 -256 672 -250 q 709 -266 692 -261 q 752 -276 727 -271 l 752 -326 l 385 -326 l 385 -276 q 475 -256 449 -266 q 501 -234 501 -245 l 501 92 q 447 41 471 62 q 398 6 422 20 q 345 -13 373 -7 q 282 -20 317 -20 q 200 2 242 -20 q 123 67 158 25 q 66 170 88 110 q 44 306 44 231 q 58 411 44 366 q 96 491 73 457 q 147 550 119 525 q 198 592 174 574 q 237 615 215 604 q 283 634 259 626 q 330 646 306 642 q 373 651 353 651 q 435 643 405 651 q 501 608 465 635 l 501 697 q 507 787 501 747 q 527 859 514 827 q 560 919 541 892 q 604 970 579 946 q 643 1002 621 987 q 688 1027 665 1017 q 734 1044 711 1038 q 778 1051 757 1051 q 840 1040 809 1051 q 894 1013 870 1029 q 932 982 918 998 q 947 956 947 966 "},"ǜ":{"x_min":22.9375,"x_max":775.453125,"ha":782,"o":"m 775 76 q 720 43 750 59 q 661 11 690 26 q 611 -11 633 -2 q 581 -20 589 -20 q 557 -15 569 -20 q 536 1 546 -11 q 519 35 527 13 q 508 92 512 57 q 432 33 466 55 q 371 0 399 11 q 321 -16 344 -12 q 277 -20 298 -20 q 214 -11 245 -20 q 159 21 183 -2 q 119 85 134 44 q 105 189 105 125 l 105 467 q 103 517 105 499 q 95 544 102 535 q 70 557 87 554 q 22 564 54 560 l 22 611 q 85 617 56 614 q 138 625 113 621 q 190 636 164 629 q 244 651 215 642 l 268 619 l 268 231 q 273 163 268 189 q 288 122 278 137 q 312 102 298 107 q 346 97 327 97 q 377 100 360 97 q 413 112 393 103 q 456 137 433 122 q 508 177 480 153 l 508 467 q 505 516 508 497 q 494 544 503 534 q 467 558 485 554 q 418 564 449 562 l 418 611 q 541 628 486 617 q 645 651 596 638 l 671 619 l 671 192 q 671 157 671 171 q 674 134 672 144 q 678 120 675 125 q 686 111 681 114 q 709 109 694 106 q 758 127 723 112 l 775 76 m 627 859 q 619 813 627 834 q 596 775 610 791 q 562 749 581 758 q 520 740 542 740 q 461 761 481 740 q 440 822 440 782 q 449 869 440 847 q 472 907 458 891 q 506 932 487 923 q 546 942 525 942 q 606 921 584 942 q 627 859 627 901 m 341 859 q 333 813 341 834 q 310 775 324 791 q 276 749 296 758 q 235 740 257 740 q 175 761 196 740 q 154 822 154 782 q 163 869 154 847 q 186 907 172 891 q 220 932 201 923 q 260 942 240 942 q 320 921 299 942 q 341 859 341 901 m 500 985 q 488 976 496 981 q 473 967 481 972 q 456 960 464 963 q 442 954 448 956 l 183 1210 l 202 1248 q 230 1254 209 1250 q 276 1262 251 1258 q 322 1270 300 1267 q 352 1274 344 1273 l 500 985 "},"ṥ":{"x_min":52.03125,"x_max":530,"ha":582,"o":"m 530 192 q 515 109 530 144 q 477 51 500 75 q 424 13 454 28 q 365 -7 395 0 q 308 -17 335 -15 q 260 -20 280 -20 q 213 -16 239 -20 q 161 -7 188 -13 q 109 7 135 -1 q 61 29 83 17 q 53 53 56 31 q 52 105 51 75 q 55 169 52 136 q 66 227 58 202 l 120 220 q 143 155 127 184 q 180 105 158 126 q 228 74 202 85 q 284 63 255 63 q 357 80 333 63 q 381 138 381 98 q 367 187 381 166 q 330 227 353 209 q 278 262 307 246 q 218 294 249 277 q 161 325 189 308 q 110 364 133 343 q 74 411 88 385 q 60 469 60 437 q 80 545 60 511 q 135 602 101 579 q 212 638 169 625 q 301 651 255 651 q 360 647 331 651 q 417 636 390 643 q 467 620 444 630 q 506 598 490 611 q 507 576 510 595 q 498 532 505 556 q 483 485 492 508 q 466 451 474 462 l 419 457 q 371 548 402 516 q 294 580 339 580 q 231 561 253 580 q 209 514 209 542 q 219 475 209 492 q 250 443 230 458 q 299 413 270 428 q 364 379 328 398 q 423 347 393 364 q 476 308 452 330 q 515 258 500 286 q 530 192 530 230 m 250 705 q 235 709 244 705 q 218 717 227 713 q 202 726 209 721 q 191 734 195 730 l 334 1025 q 364 1021 342 1024 q 411 1014 386 1018 q 459 1005 436 1010 q 489 999 481 1001 l 509 962 l 250 705 m 338 1119 q 330 1072 338 1094 q 307 1035 321 1051 q 273 1009 293 1018 q 232 999 254 999 q 172 1020 193 999 q 151 1082 151 1041 q 160 1129 151 1107 q 184 1167 169 1150 q 218 1192 198 1183 q 258 1201 237 1201 q 317 1181 296 1201 q 338 1119 338 1161 "},"µ":{"x_min":31.265625,"x_max":786.875,"ha":790,"o":"m 786 65 q 741 35 767 51 q 688 7 714 20 q 637 -12 662 -4 q 595 -21 612 -21 q 563 -10 577 -21 q 539 16 549 0 q 523 57 529 34 q 515 108 517 81 q 421 9 464 39 q 337 -21 379 -21 q 271 4 307 -21 q 201 72 234 29 l 201 58 q 211 -54 201 -3 q 237 -146 221 -105 q 274 -218 253 -187 q 314 -270 294 -249 q 280 -283 304 -273 q 228 -304 255 -292 q 177 -325 200 -315 q 145 -339 153 -334 l 114 -314 l 114 470 q 112 512 114 497 q 104 537 111 528 q 80 550 97 546 q 31 558 63 555 l 31 606 q 143 622 92 611 q 245 651 194 632 l 249 646 q 259 637 253 642 q 269 626 264 632 q 277 617 274 620 l 277 258 q 287 202 277 228 q 312 156 297 175 q 346 126 328 137 q 380 115 365 115 q 407 118 393 115 q 436 130 420 121 q 471 159 451 140 q 514 207 490 177 l 514 507 q 511 533 514 518 q 505 563 509 548 q 497 591 501 578 q 488 610 493 604 q 529 618 506 613 q 575 627 552 622 q 621 639 598 633 q 663 651 644 644 l 687 619 q 684 601 686 610 q 681 579 683 592 q 679 551 680 567 q 677 514 677 535 l 677 202 q 678 150 677 170 q 683 118 679 130 q 691 102 686 106 q 703 97 696 97 q 732 101 718 97 q 769 116 747 105 l 786 65 "},"ỳ":{"x_min":-42.046875,"x_max":696.53125,"ha":705,"o":"m 696 581 q 663 572 676 576 q 642 563 650 568 q 629 551 634 558 q 621 535 625 545 l 395 -50 q 332 -178 366 -125 q 260 -266 298 -232 q 181 -317 222 -301 q 96 -334 139 -334 q 45 -329 70 -334 q 1 -317 20 -324 q -30 -302 -18 -310 q -42 -287 -42 -293 q -30 -264 -42 -281 q -3 -227 -18 -247 q 29 -190 12 -207 q 57 -165 46 -172 q 125 -192 91 -187 q 185 -188 160 -197 q 239 -149 210 -179 q 291 -62 267 -120 l 311 -15 l 84 535 q 59 563 76 553 q 8 581 42 574 l 8 631 l 316 631 l 316 581 q 275 574 289 578 q 255 565 261 570 q 249 553 248 560 q 255 535 250 546 l 394 194 l 527 535 q 532 552 531 545 q 528 564 533 559 q 510 573 523 569 q 474 581 497 577 l 474 631 l 696 631 l 696 581 m 478 736 q 466 727 474 732 q 450 718 459 722 q 434 710 442 713 q 419 705 425 707 l 160 960 l 180 998 q 208 1004 187 1000 q 253 1013 229 1008 q 300 1020 278 1017 q 330 1025 322 1024 l 478 736 "},"Ḟ":{"x_min":29.15625,"x_max":659.234375,"ha":705,"o":"m 29 0 l 29 49 q 98 70 75 59 q 122 90 122 81 l 122 763 q 100 783 122 771 q 29 805 78 795 l 29 855 l 633 855 l 659 833 q 655 788 658 815 q 649 734 653 762 q 641 681 645 706 q 632 644 636 656 l 580 644 q 564 740 578 707 q 524 774 550 774 l 291 774 l 291 499 l 540 499 l 564 475 q 550 450 558 463 q 533 426 542 437 q 516 404 524 414 q 501 389 507 395 q 479 406 491 399 q 452 418 467 413 q 416 424 437 422 q 367 427 396 427 l 291 427 l 291 90 q 297 82 291 86 q 315 72 302 77 q 350 61 328 67 q 405 49 372 55 l 405 0 l 29 0 m 437 1050 q 428 1003 437 1024 q 405 965 420 981 q 372 939 391 949 q 331 930 352 930 q 270 951 291 930 q 250 1012 250 972 q 258 1059 250 1037 q 282 1097 267 1081 q 316 1122 297 1113 q 356 1132 335 1132 q 416 1111 394 1132 q 437 1050 437 1091 "},"M":{"x_min":35.953125,"x_max":1125.84375,"ha":1176,"o":"m 1107 805 q 1067 800 1090 805 q 1020 786 1045 795 l 1027 90 q 1052 70 1027 82 q 1125 49 1077 59 l 1125 0 l 771 0 l 771 49 q 844 70 817 59 q 871 90 871 81 l 866 642 l 578 0 l 514 0 l 232 641 l 227 90 q 249 70 227 82 q 320 49 271 59 l 320 0 l 35 0 l 35 49 q 105 70 82 59 q 128 90 128 81 l 135 781 q 87 800 111 795 q 42 805 62 805 l 42 855 l 277 855 q 289 852 284 855 q 300 844 295 850 q 311 827 305 838 q 325 798 317 816 l 575 231 l 829 798 q 844 829 838 818 q 855 846 850 840 q 866 853 861 852 q 877 855 871 855 l 1107 855 l 1107 805 "},"Ḏ":{"x_min":20.265625,"x_max":828,"ha":884,"o":"m 828 458 q 810 306 828 373 q 763 188 793 240 q 693 102 733 137 q 608 43 653 66 q 514 10 562 21 q 419 0 465 0 l 29 0 l 29 49 q 98 70 75 59 q 122 90 122 81 l 122 784 l 29 771 l 20 834 q 99 849 53 842 q 195 863 145 857 q 296 871 246 868 q 391 875 347 875 q 577 846 495 875 q 714 765 658 818 q 798 634 769 711 q 828 458 828 556 m 343 803 q 318 802 331 803 q 292 802 305 802 l 292 113 q 293 104 292 108 q 300 90 295 96 q 317 81 305 85 q 347 75 328 77 q 394 73 366 73 q 449 81 420 73 q 506 109 477 90 q 559 157 534 128 q 603 226 585 186 q 634 317 622 266 q 646 432 646 368 q 626 591 646 522 q 568 707 606 660 q 473 778 530 754 q 343 803 417 803 m 689 -137 q 681 -157 687 -145 q 670 -183 676 -170 q 659 -208 664 -197 q 651 -227 653 -220 l 132 -227 l 111 -205 q 118 -185 113 -197 q 128 -159 122 -173 q 140 -134 134 -146 q 149 -116 145 -122 l 667 -116 l 689 -137 "},"ũ":{"x_min":22.9375,"x_max":775.453125,"ha":782,"o":"m 775 76 q 720 43 750 59 q 661 11 690 26 q 611 -11 633 -2 q 581 -20 589 -20 q 557 -15 569 -20 q 536 1 546 -11 q 519 35 527 13 q 508 92 512 57 q 432 33 466 55 q 371 0 399 11 q 321 -16 344 -12 q 277 -20 298 -20 q 214 -11 245 -20 q 159 21 183 -2 q 119 85 134 44 q 105 189 105 125 l 105 467 q 103 517 105 499 q 95 544 102 535 q 70 557 87 554 q 22 564 54 560 l 22 611 q 85 617 56 614 q 138 625 113 621 q 190 636 164 629 q 244 651 215 642 l 268 619 l 268 231 q 273 163 268 189 q 288 122 278 137 q 312 102 298 107 q 346 97 327 97 q 377 100 360 97 q 413 112 393 103 q 456 137 433 122 q 508 177 480 153 l 508 467 q 505 516 508 497 q 494 544 503 534 q 467 558 485 554 q 418 564 449 562 l 418 611 q 541 628 486 617 q 645 651 596 638 l 671 619 l 671 192 q 671 157 671 171 q 674 134 672 144 q 678 120 675 125 q 686 111 681 114 q 709 109 694 106 q 758 127 723 112 l 775 76 m 658 933 q 628 873 646 905 q 588 811 611 840 q 538 764 566 783 q 480 745 511 745 q 424 756 451 745 q 373 780 398 767 q 323 804 347 793 q 272 816 298 816 q 244 810 257 816 q 221 795 232 805 q 199 771 210 786 q 175 738 187 756 l 124 756 q 154 817 137 784 q 193 879 171 850 q 243 927 216 908 q 301 947 270 947 q 361 935 333 947 q 414 911 389 924 q 463 887 440 898 q 507 876 486 876 q 560 894 538 876 q 606 954 583 913 l 658 933 "},"ŭ":{"x_min":22.9375,"x_max":775.453125,"ha":782,"o":"m 775 76 q 720 43 750 59 q 661 11 690 26 q 611 -11 633 -2 q 581 -20 589 -20 q 557 -15 569 -20 q 536 1 546 -11 q 519 35 527 13 q 508 92 512 57 q 432 33 466 55 q 371 0 399 11 q 321 -16 344 -12 q 277 -20 298 -20 q 214 -11 245 -20 q 159 21 183 -2 q 119 85 134 44 q 105 189 105 125 l 105 467 q 103 517 105 499 q 95 544 102 535 q 70 557 87 554 q 22 564 54 560 l 22 611 q 85 617 56 614 q 138 625 113 621 q 190 636 164 629 q 244 651 215 642 l 268 619 l 268 231 q 273 163 268 189 q 288 122 278 137 q 312 102 298 107 q 346 97 327 97 q 377 100 360 97 q 413 112 393 103 q 456 137 433 122 q 508 177 480 153 l 508 467 q 505 516 508 497 q 494 544 503 534 q 467 558 485 554 q 418 564 449 562 l 418 611 q 541 628 486 617 q 645 651 596 638 l 671 619 l 671 192 q 671 157 671 171 q 674 134 672 144 q 678 120 675 125 q 686 111 681 114 q 709 109 694 106 q 758 127 723 112 l 775 76 m 632 927 q 584 833 611 872 q 526 769 557 794 q 461 732 495 744 q 392 721 427 721 q 320 732 355 721 q 254 769 285 744 q 197 833 223 794 q 150 927 170 872 q 161 940 154 933 q 174 953 167 947 q 188 965 181 960 q 201 973 196 970 q 241 919 218 941 q 289 881 264 896 q 341 858 315 865 q 389 851 367 851 q 440 858 413 851 q 492 880 466 865 q 540 918 517 895 q 580 973 563 941 q 593 965 586 970 q 608 953 600 960 q 621 940 615 947 q 632 927 628 933 "},"{":{"x_min":58.1875,"x_max":470.046875,"ha":487,"o":"m 470 1032 q 383 955 417 999 q 350 859 350 910 q 354 795 350 823 q 364 742 358 768 q 373 688 369 716 q 378 625 378 661 q 368 569 378 597 q 340 518 358 542 q 298 474 322 494 q 245 442 274 454 q 345 383 313 430 q 378 260 378 336 q 373 193 378 224 q 364 132 369 161 q 354 76 358 104 q 350 18 350 48 q 354 -31 350 -9 q 371 -74 358 -54 q 405 -113 383 -95 q 463 -152 427 -132 l 437 -214 q 326 -167 375 -190 q 243 -113 277 -143 q 193 -47 210 -84 q 176 38 176 -10 q 180 103 176 74 q 190 159 184 131 q 199 217 195 187 q 204 285 204 247 q 180 363 204 340 q 113 387 156 387 l 99 387 q 92 386 95 387 q 84 385 88 386 q 69 382 79 384 l 58 439 q 169 497 134 460 q 204 585 204 534 q 199 649 204 622 q 190 702 195 676 q 180 754 184 727 q 176 820 176 782 q 196 904 176 865 q 252 975 216 943 q 337 1035 288 1008 q 442 1085 385 1061 l 470 1032 "},"¼":{"x_min":47.84375,"x_max":826.015625,"ha":865,"o":"m 209 2 q 190 -5 201 -2 q 166 -10 179 -8 q 141 -15 153 -13 q 120 -20 129 -18 l 103 0 l 707 816 q 725 822 714 819 q 749 828 736 825 q 773 833 761 831 q 792 838 785 836 l 809 819 l 209 2 m 826 145 q 807 124 817 135 q 787 109 796 114 l 767 109 l 767 44 q 777 35 767 40 q 819 25 787 31 l 819 0 l 595 0 l 595 25 q 636 31 621 28 q 661 37 652 34 q 672 42 669 40 q 676 48 676 45 l 676 109 l 493 109 l 477 121 l 663 379 q 683 385 671 382 l 706 392 q 730 399 719 396 q 749 405 741 402 l 767 391 l 767 156 l 815 156 l 826 145 m 59 432 l 59 460 q 109 467 90 463 q 140 474 129 471 q 157 482 152 478 q 162 490 162 486 l 162 727 q 161 747 162 740 q 155 759 160 754 q 147 762 152 761 q 130 763 141 764 q 101 761 119 763 q 58 754 83 759 l 47 782 q 90 792 64 785 q 146 807 117 799 q 200 824 174 816 q 240 838 226 832 l 258 823 l 258 490 q 262 482 258 486 q 276 475 266 479 q 305 467 287 471 q 352 460 323 463 l 352 432 l 59 432 m 676 318 l 553 156 l 676 156 l 676 318 "},"Ḿ":{"x_min":35.953125,"x_max":1125.84375,"ha":1176,"o":"m 1107 805 q 1067 800 1090 805 q 1020 786 1045 795 l 1027 90 q 1052 70 1027 82 q 1125 49 1077 59 l 1125 0 l 771 0 l 771 49 q 844 70 817 59 q 871 90 871 81 l 866 642 l 578 0 l 514 0 l 232 641 l 227 90 q 249 70 227 82 q 320 49 271 59 l 320 0 l 35 0 l 35 49 q 105 70 82 59 q 128 90 128 81 l 135 781 q 87 800 111 795 q 42 805 62 805 l 42 855 l 277 855 q 289 852 284 855 q 300 844 295 850 q 311 827 305 838 q 325 798 317 816 l 575 231 l 829 798 q 844 829 838 818 q 855 846 850 840 q 866 853 861 852 q 877 855 871 855 l 1107 855 l 1107 805 m 491 922 q 466 941 479 927 q 444 967 454 954 l 692 1198 q 727 1178 708 1189 q 763 1157 746 1167 q 794 1137 780 1146 q 813 1122 807 1127 l 819 1086 l 491 922 "},"Ĳ":{"x_min":42.09375,"x_max":877,"ha":919,"o":"m 42 0 l 42 49 q 111 70 88 59 q 135 90 135 81 l 135 763 q 112 783 135 771 q 42 805 90 795 l 42 855 l 398 855 l 398 805 q 328 784 352 795 q 305 763 305 772 l 305 90 q 327 70 305 82 q 398 49 349 59 l 398 0 l 42 0 m 877 805 q 807 784 830 795 q 783 763 783 772 l 783 123 q 768 -4 783 49 q 730 -96 753 -57 q 678 -162 706 -135 q 622 -211 649 -189 q 581 -239 604 -226 q 534 -262 559 -252 q 485 -278 510 -272 q 437 -284 460 -284 q 377 -276 406 -284 q 325 -259 348 -269 q 288 -238 302 -249 q 274 -219 274 -227 q 288 -195 274 -212 q 321 -161 302 -178 q 359 -128 340 -143 q 388 -110 378 -114 q 458 -156 426 -143 q 516 -170 490 -170 q 551 -161 534 -170 q 582 -127 568 -153 q 604 -53 596 -101 q 613 75 613 -5 l 613 763 q 609 772 613 767 q 590 782 604 776 q 552 793 576 787 q 486 805 527 799 l 486 855 l 877 855 l 877 805 "},"Ê":{"x_min":29.15625,"x_max":697.890625,"ha":730,"o":"m 697 205 q 691 144 695 176 q 684 83 688 112 q 676 32 680 54 q 670 0 672 10 l 29 0 l 29 49 q 98 70 75 59 q 122 90 122 81 l 122 763 q 100 783 122 771 q 29 805 78 795 l 29 855 l 626 855 l 653 833 q 649 788 652 815 q 642 734 647 762 q 634 681 638 706 q 626 644 630 656 l 575 644 q 558 740 571 707 q 519 774 544 774 l 291 774 l 291 499 l 561 499 l 583 475 q 570 453 578 465 q 554 428 562 440 q 537 405 545 416 q 521 389 529 395 q 499 406 511 399 q 472 418 487 413 q 436 424 457 422 q 387 427 415 427 l 291 427 l 291 124 q 296 106 291 114 q 316 92 301 98 q 358 84 330 87 q 430 81 385 81 l 497 81 q 550 88 528 81 q 589 112 572 95 q 620 156 606 129 q 648 223 634 183 l 697 205 m 592 962 q 574 938 584 949 q 553 922 564 927 l 362 1032 l 173 922 q 152 938 162 927 q 132 962 142 949 l 322 1183 l 404 1183 l 592 962 "},")":{"x_min":18,"x_max":390,"ha":461,"o":"m 390 448 q 366 237 390 337 q 299 52 343 137 q 194 -100 256 -33 q 54 -214 131 -167 l 18 -163 q 94 -65 58 -122 q 156 65 129 -8 q 198 229 182 139 q 214 429 214 320 q 201 617 214 528 q 164 784 188 707 q 102 924 139 861 q 18 1033 66 987 l 54 1084 q 201 974 138 1039 q 306 829 264 910 q 369 652 348 748 q 390 448 390 556 "},"Ṽ":{"x_min":8.8125,"x_max":900.6875,"ha":923,"o":"m 900 805 q 828 788 854 796 q 795 760 802 779 l 540 55 q 519 28 535 41 q 485 6 504 16 q 445 -9 465 -3 q 408 -20 424 -15 l 99 760 q 71 789 92 778 q 8 805 51 800 l 8 855 l 354 855 l 354 805 q 282 791 300 801 q 272 762 265 781 l 493 194 l 694 760 q 695 777 697 770 q 682 789 693 784 q 654 798 672 794 q 608 805 636 802 l 608 855 l 900 855 l 900 805 m 728 1123 q 698 1063 716 1096 q 658 1001 680 1030 q 608 954 636 973 q 550 935 581 935 q 494 946 520 935 q 442 970 467 957 q 393 994 417 983 q 342 1005 368 1005 q 314 1000 326 1005 q 291 985 302 994 q 268 961 280 975 q 245 928 257 946 l 194 946 q 224 1007 206 974 q 263 1069 241 1040 q 313 1117 286 1098 q 371 1137 340 1137 q 431 1126 402 1137 q 484 1102 459 1115 q 533 1078 510 1089 q 577 1067 556 1067 q 630 1085 608 1067 q 676 1144 653 1104 l 728 1123 "},"a":{"x_min":44,"x_max":688.765625,"ha":694,"o":"m 279 98 q 306 101 291 98 q 337 112 320 104 q 375 133 354 120 q 422 169 396 147 l 422 319 q 353 306 381 312 q 306 292 325 299 q 275 278 287 286 q 255 262 264 271 q 226 224 237 244 q 216 175 216 204 q 222 137 216 152 q 238 113 228 122 q 259 101 248 105 q 279 98 270 98 m 688 76 q 629 39 660 56 q 571 8 598 21 q 520 -12 543 -5 q 486 -20 498 -20 q 443 8 460 -20 q 423 87 426 37 q 361 36 392 57 q 301 3 330 15 q 246 -14 273 -9 q 198 -20 220 -20 q 142 -10 170 -20 q 93 18 115 0 q 57 67 71 38 q 44 136 44 97 q 60 214 44 182 q 102 272 77 247 q 139 303 118 288 q 196 333 161 318 q 286 360 232 347 q 422 386 340 373 l 422 466 q 417 505 422 487 q 403 535 413 523 q 376 555 393 548 q 333 563 359 563 q 301 556 317 563 q 272 539 285 550 q 253 512 260 528 q 248 476 246 496 q 237 466 249 472 q 208 453 226 459 q 169 440 190 447 q 128 429 148 434 q 93 422 108 425 q 72 421 77 420 l 57 458 q 109 534 74 499 q 190 595 143 569 q 292 636 237 621 q 404 651 348 651 q 485 638 451 651 q 541 604 519 626 q 574 552 563 582 q 585 488 585 522 l 585 161 q 592 121 585 133 q 612 109 599 109 q 621 109 616 109 q 634 112 627 110 q 650 118 641 114 q 673 127 660 121 l 688 76 "},"Ɲ":{"x_min":-219.828125,"x_max":894.59375,"ha":922,"o":"m 801 -20 q 696 4 735 -15 q 638 49 657 24 l 224 624 l 224 89 q 220 4 224 43 q 209 -67 217 -34 q 185 -130 200 -101 q 146 -185 170 -159 q 108 -220 130 -202 q 60 -252 86 -237 q 6 -275 35 -266 q -50 -284 -21 -284 q -110 -277 -80 -284 q -165 -261 -141 -271 q -204 -240 -189 -252 q -219 -219 -219 -229 q -213 -206 -219 -216 q -195 -186 -206 -197 q -172 -162 -185 -174 q -146 -138 -158 -149 q -122 -119 -133 -127 q -105 -108 -111 -110 q -41 -156 -74 -142 q 22 -170 -8 -170 q 96 -115 71 -170 q 122 49 122 -60 l 122 755 q 76 788 100 775 q 29 805 52 801 l 29 855 l 219 855 q 235 853 229 855 q 248 846 242 851 q 263 830 255 840 q 284 802 271 819 l 699 226 l 699 763 q 694 773 699 767 q 679 784 690 779 q 651 795 669 790 q 606 805 633 801 l 606 855 l 894 855 l 894 805 q 823 785 845 798 q 801 763 801 772 l 801 -20 "},"Z":{"x_min":35.265625,"x_max":708.0625,"ha":757,"o":"m 708 239 q 705 184 706 217 q 703 117 704 151 q 701 51 702 83 q 699 0 700 19 l 59 0 l 35 35 l 491 767 l 226 767 q 202 755 215 767 q 175 722 188 743 q 150 672 162 701 q 130 608 138 643 l 71 621 l 96 865 q 130 859 115 861 q 160 855 145 856 q 190 855 174 855 l 678 855 l 701 821 l 248 88 l 557 88 q 583 98 571 88 q 605 129 594 108 q 626 181 615 150 q 650 254 637 212 l 708 239 "},"":{"x_min":44,"x_max":981.09375,"ha":761,"o":"m 355 109 q 426 127 393 109 q 500 183 460 146 l 500 474 q 471 509 488 494 q 436 537 455 525 q 397 554 417 548 q 357 561 376 561 q 298 548 325 561 q 250 509 270 535 q 218 441 230 483 q 207 342 207 399 q 219 241 207 284 q 253 168 232 197 q 301 123 274 138 q 355 109 328 109 m 500 94 q 443 41 469 63 q 390 6 416 20 q 337 -13 364 -7 q 277 -20 309 -20 q 195 2 237 -20 q 120 65 154 24 q 65 166 87 106 q 44 301 44 226 q 58 407 44 360 q 96 490 73 454 q 147 551 119 526 q 198 592 174 576 q 239 615 217 604 q 284 634 261 625 q 330 646 307 642 q 373 651 353 651 q 412 648 393 651 q 450 637 430 645 q 491 615 470 629 q 537 576 512 600 q 572 595 554 584 q 607 615 590 605 q 638 635 624 625 q 658 651 651 644 l 684 625 q 673 586 677 608 q 666 542 669 568 q 663 486 663 516 l 663 -97 q 680 -214 663 -175 q 738 -254 697 -254 q 768 -245 755 -254 q 789 -224 781 -237 q 802 -197 797 -211 q 806 -169 806 -182 q 797 -142 806 -154 q 813 -131 802 -137 q 841 -120 825 -125 q 876 -109 857 -114 q 911 -100 894 -104 q 941 -93 928 -95 q 962 -91 955 -91 l 981 -129 q 960 -192 981 -157 q 900 -259 939 -228 q 808 -312 862 -291 q 688 -334 754 -334 q 599 -318 635 -334 q 541 -275 563 -302 q 509 -214 519 -248 q 500 -143 500 -180 l 500 94 "},"k":{"x_min":33,"x_max":771.28125,"ha":766,"o":"m 33 0 l 33 49 q 99 69 77 61 q 122 90 122 78 l 122 858 q 118 906 122 889 q 106 932 115 923 q 79 943 97 940 q 33 949 62 945 l 33 996 q 153 1018 98 1006 q 255 1051 209 1030 l 285 1023 l 285 361 l 463 521 q 492 553 485 541 q 493 571 498 565 q 475 579 489 578 q 444 581 462 581 l 444 631 l 747 631 l 747 581 q 687 567 717 578 q 628 534 658 556 l 422 378 l 667 100 q 686 83 677 90 q 706 74 695 77 q 732 70 718 71 q 767 71 747 70 l 771 22 q 726 12 751 17 q 678 2 701 7 q 635 -4 654 -1 q 610 -7 617 -7 q 562 1 582 -7 q 527 28 542 9 l 285 350 l 285 90 q 287 81 285 85 q 297 72 289 77 q 319 63 304 68 q 359 49 334 57 l 359 0 l 33 0 "},"Ù":{"x_min":29.078125,"x_max":889.59375,"ha":928,"o":"m 889 805 q 819 784 843 795 q 796 763 796 772 l 796 355 q 771 197 796 266 q 701 79 746 127 q 595 5 657 30 q 461 -20 534 -20 q 329 0 391 -20 q 221 58 268 18 q 148 158 175 98 q 122 301 122 218 l 122 763 q 99 783 122 771 q 29 805 77 795 l 29 855 l 385 855 l 385 805 q 315 784 339 795 q 292 763 292 772 l 292 345 q 303 230 292 280 q 339 146 314 180 q 405 95 364 112 q 503 78 445 78 q 584 99 551 78 q 638 157 617 121 q 667 240 658 193 q 677 337 677 287 l 677 763 q 654 783 677 771 q 584 805 632 795 l 584 855 l 889 855 l 889 805 m 599 962 q 580 938 590 949 q 558 922 570 927 l 233 1080 l 240 1123 q 260 1139 245 1128 q 294 1162 276 1150 q 328 1183 311 1173 q 352 1198 344 1193 l 599 962 "},"Ů":{"x_min":29.078125,"x_max":889.59375,"ha":928,"o":"m 889 805 q 819 784 843 795 q 796 763 796 772 l 796 355 q 771 197 796 266 q 701 79 746 127 q 595 5 657 30 q 461 -20 534 -20 q 329 0 391 -20 q 221 58 268 18 q 148 158 175 98 q 122 301 122 218 l 122 763 q 99 783 122 771 q 29 805 77 795 l 29 855 l 385 855 l 385 805 q 315 784 339 795 q 292 763 292 772 l 292 345 q 303 230 292 280 q 339 146 314 180 q 405 95 364 112 q 503 78 445 78 q 584 99 551 78 q 638 157 617 121 q 667 240 658 193 q 677 337 677 287 l 677 763 q 654 783 677 771 q 584 805 632 795 l 584 855 l 889 855 l 889 805 m 518 1059 q 505 1109 518 1092 q 476 1127 491 1127 q 451 1121 462 1127 q 434 1106 441 1115 q 423 1085 427 1097 q 419 1061 419 1073 q 433 1013 419 1029 q 462 996 447 996 q 504 1014 489 996 q 518 1059 518 1032 m 610 1087 q 597 1019 610 1051 q 560 964 583 987 q 508 927 538 941 q 448 914 479 914 q 399 922 421 914 q 361 946 377 930 q 336 984 345 962 q 327 1033 327 1006 q 341 1101 327 1070 q 377 1157 354 1133 q 429 1195 399 1181 q 490 1209 458 1209 q 540 1199 517 1209 q 578 1174 562 1190 q 602 1136 593 1158 q 610 1087 610 1114 "},"¢":{"x_min":60,"x_max":642.140625,"ha":703,"o":"m 209 417 q 218 335 209 372 q 245 272 228 299 q 285 226 262 245 q 338 198 309 208 l 338 637 q 288 615 312 631 q 247 572 265 599 q 219 507 230 546 q 209 417 209 469 m 419 4 q 391 -14 406 -6 q 359 -28 375 -22 l 338 -6 l 338 87 q 241 113 290 92 q 151 174 191 135 q 85 269 110 214 q 60 397 60 325 q 79 510 60 457 q 135 605 99 563 q 223 677 172 647 q 338 720 274 707 l 338 812 q 353 823 347 818 q 366 831 360 827 q 378 838 371 835 q 396 844 385 841 l 419 824 l 419 730 q 430 731 424 730 q 442 731 435 731 q 493 727 464 731 q 550 716 522 723 q 602 699 579 709 q 637 677 625 690 q 632 649 638 669 q 618 605 627 629 q 599 562 609 582 q 583 532 589 541 l 539 544 q 524 568 534 554 q 499 596 513 582 q 464 621 484 610 q 419 639 444 633 l 419 187 q 457 193 438 188 q 497 209 476 197 q 543 240 518 220 q 600 290 568 260 l 642 242 q 578 176 607 203 q 521 132 548 149 q 469 105 494 115 q 419 91 444 95 l 419 4 "},"Ɂ":{"x_min":17,"x_max":644,"ha":675,"o":"m 145 0 l 145 49 q 228 69 204 59 q 253 90 253 79 l 253 274 q 268 357 253 322 q 309 419 284 392 q 361 467 333 445 q 413 510 389 488 q 454 559 438 533 q 470 622 470 586 q 459 695 470 664 q 429 747 448 727 q 382 779 410 768 q 321 789 355 789 q 270 777 292 788 q 232 749 248 767 q 209 707 217 731 q 201 657 201 683 q 203 626 201 641 q 212 599 205 611 q 179 587 201 593 q 130 577 156 582 q 79 568 104 571 q 40 563 54 564 l 21 583 q 18 601 20 588 q 17 624 17 614 q 41 717 17 672 q 111 797 65 762 q 222 854 156 833 q 369 875 287 875 q 492 859 440 875 q 577 814 544 843 q 627 745 611 785 q 644 657 644 705 q 627 574 644 607 q 586 516 611 540 q 533 472 562 491 q 480 432 504 453 q 439 385 455 411 q 423 318 423 358 l 423 90 q 448 69 423 80 q 529 49 473 59 l 529 0 l 145 0 "},"ē":{"x_min":44,"x_max":659.234375,"ha":672,"o":"m 346 570 q 291 557 314 570 q 252 522 268 545 q 227 466 236 499 q 214 393 218 433 l 440 393 q 460 398 455 393 q 466 417 466 403 q 460 464 466 437 q 441 513 455 490 q 404 553 427 537 q 346 570 381 570 m 628 372 q 610 357 621 365 q 585 342 598 349 q 557 327 571 334 q 532 317 543 321 l 212 317 q 225 227 213 268 q 258 156 237 186 q 311 110 280 127 q 382 94 342 94 q 423 96 403 94 q 466 107 443 98 q 519 132 490 116 q 588 176 548 148 q 598 167 592 174 q 609 154 604 161 q 618 141 614 147 q 624 132 622 135 q 539 55 577 85 q 468 8 502 25 q 400 -13 434 -7 q 325 -20 366 -20 q 216 3 267 -20 q 127 68 165 26 q 66 169 88 110 q 44 299 44 228 q 78 464 44 392 q 183 587 113 536 q 223 612 201 600 q 269 632 245 623 q 319 645 293 640 q 370 651 345 651 q 485 627 437 651 q 565 566 534 604 q 612 477 597 528 q 628 372 628 427 m 659 886 q 652 866 657 879 q 640 840 647 854 q 629 815 634 826 q 621 797 623 803 l 103 797 l 81 818 q 88 838 83 826 q 99 864 92 850 q 110 889 105 877 q 119 908 115 901 l 637 908 l 659 886 "},"Ẹ":{"x_min":29.15625,"x_max":697.890625,"ha":730,"o":"m 697 205 q 691 144 695 176 q 684 83 688 112 q 676 32 680 54 q 670 0 672 10 l 29 0 l 29 49 q 98 70 75 59 q 122 90 122 81 l 122 763 q 100 783 122 771 q 29 805 78 795 l 29 855 l 626 855 l 653 833 q 649 788 652 815 q 642 734 647 762 q 634 681 638 706 q 626 644 630 656 l 575 644 q 558 740 571 707 q 519 774 544 774 l 291 774 l 291 499 l 561 499 l 583 475 q 570 453 578 465 q 554 428 562 440 q 537 405 545 416 q 521 389 529 395 q 499 406 511 399 q 472 418 487 413 q 436 424 457 422 q 387 427 415 427 l 291 427 l 291 124 q 296 106 291 114 q 316 92 301 98 q 358 84 330 87 q 430 81 385 81 l 497 81 q 550 88 528 81 q 589 112 572 95 q 620 156 606 129 q 648 223 634 183 l 697 205 m 456 -184 q 448 -230 456 -209 q 425 -268 439 -252 q 391 -294 411 -285 q 350 -304 372 -304 q 290 -283 311 -304 q 269 -221 269 -262 q 278 -174 269 -196 q 302 -136 287 -152 q 336 -111 316 -120 q 376 -102 355 -102 q 435 -122 414 -102 q 456 -184 456 -143 "},"≠":{"x_min":35.953125,"x_max":594.796875,"ha":631,"o":"m 472 532 l 573 532 l 594 510 q 588 492 592 502 q 579 470 584 481 q 570 449 575 459 q 564 434 566 439 l 411 434 l 343 328 l 573 328 l 594 306 q 588 288 592 298 q 579 266 584 277 q 570 245 575 255 q 564 230 566 236 l 281 230 l 200 101 q 179 91 193 96 q 149 82 165 86 q 117 73 132 77 q 93 67 101 69 l 71 96 l 156 230 l 57 230 l 35 251 q 41 269 37 259 q 50 290 45 279 q 59 311 54 301 q 67 328 63 321 l 218 328 l 285 434 l 57 434 l 35 455 q 41 473 37 462 q 50 494 45 483 q 59 515 54 505 q 67 532 63 525 l 347 532 l 427 658 q 451 669 437 664 q 479 678 465 674 q 509 685 494 682 q 533 692 523 689 l 558 665 l 472 532 "},"¥":{"x_min":-55.046875,"x_max":724.484375,"ha":703,"o":"m 155 0 l 155 49 q 206 62 185 55 q 238 75 226 69 q 255 87 250 82 q 261 98 261 93 l 261 263 l 65 263 l 50 279 q 55 292 52 283 q 61 311 58 301 q 68 329 65 321 q 73 344 71 338 l 261 344 l 261 358 q 210 462 237 410 q 157 561 184 514 q 103 649 130 608 q 53 721 77 690 q 40 735 47 729 q 22 745 34 741 q -6 752 11 749 q -52 754 -23 754 l -55 804 q -9 810 -35 806 q 42 816 16 813 q 91 820 68 818 q 128 823 114 823 q 166 814 147 823 q 197 791 185 806 q 245 722 222 757 q 292 648 269 687 q 338 565 315 608 q 384 473 360 522 l 516 722 q 509 750 526 740 q 441 767 493 760 l 441 817 l 724 817 l 724 767 q 655 749 678 758 q 624 722 633 739 l 431 356 l 431 344 l 612 344 l 629 328 l 603 263 l 431 263 l 431 98 q 436 88 431 94 q 453 75 441 82 q 486 62 465 69 q 538 49 506 55 l 538 0 l 155 0 "},"Ƚ":{"x_min":21.625,"x_max":691.46875,"ha":707,"o":"m 691 205 q 685 144 688 176 q 677 83 681 112 q 670 32 673 54 q 663 0 666 10 l 29 0 l 29 49 q 98 70 75 59 q 122 91 122 81 l 122 364 l 36 364 l 21 380 q 26 393 22 384 q 32 412 29 402 q 38 430 35 422 q 44 445 41 439 l 122 445 l 122 763 q 99 783 122 771 q 29 805 77 795 l 29 855 l 385 855 l 385 805 q 315 784 339 795 q 292 763 292 772 l 292 445 l 492 445 l 509 429 l 485 364 l 292 364 l 292 131 q 297 109 292 119 q 317 94 303 100 q 356 84 332 87 q 418 81 380 81 l 494 81 q 547 88 525 81 q 584 112 568 95 q 614 156 601 129 q 641 223 627 183 l 691 205 "},"Ĥ":{"x_min":29.078125,"x_max":907.59375,"ha":949,"o":"m 29 0 l 29 49 q 98 70 75 59 q 122 90 122 81 l 122 763 q 99 783 122 771 q 29 805 77 795 l 29 855 l 385 855 l 385 805 q 315 784 339 795 q 292 763 292 772 l 292 488 l 644 488 l 644 763 q 621 783 644 771 q 551 805 599 795 l 551 855 l 907 855 l 907 805 q 837 784 861 795 q 814 763 814 772 l 814 90 q 836 70 814 82 q 907 49 858 59 l 907 0 l 551 0 l 551 49 q 620 70 597 59 q 644 90 644 81 l 644 407 l 292 407 l 292 90 q 314 70 292 82 q 385 49 336 59 l 385 0 l 29 0 m 697 962 q 679 938 689 949 q 657 922 669 927 l 467 1032 l 278 922 q 256 938 266 927 q 237 962 246 949 l 426 1183 l 509 1183 l 697 962 "},"U":{"x_min":29.078125,"x_max":889.59375,"ha":928,"o":"m 889 805 q 819 784 843 795 q 796 763 796 772 l 796 355 q 771 197 796 266 q 701 79 746 127 q 595 5 657 30 q 461 -20 534 -20 q 329 0 391 -20 q 221 58 268 18 q 148 158 175 98 q 122 301 122 218 l 122 763 q 99 783 122 771 q 29 805 77 795 l 29 855 l 385 855 l 385 805 q 315 784 339 795 q 292 763 292 772 l 292 345 q 303 230 292 280 q 339 146 314 180 q 405 95 364 112 q 503 78 445 78 q 584 99 551 78 q 638 157 617 121 q 667 240 658 193 q 677 337 677 287 l 677 763 q 654 783 677 771 q 584 805 632 795 l 584 855 l 889 855 l 889 805 "},"Ñ":{"x_min":29.078125,"x_max":894.59375,"ha":922,"o":"m 29 0 l 29 49 q 100 68 78 55 q 122 90 122 81 l 122 755 q 29 805 77 797 l 29 855 l 219 855 q 235 853 229 855 q 248 846 242 851 q 263 830 255 840 q 284 802 271 819 l 699 226 l 699 763 q 694 773 699 767 q 679 784 690 779 q 651 795 669 790 q 606 805 633 801 l 606 855 l 894 855 l 894 805 q 823 785 845 798 q 801 763 801 772 l 801 -20 q 696 5 735 -14 q 638 50 657 25 l 224 624 l 224 90 q 228 81 224 86 q 244 69 233 75 q 273 58 255 63 q 317 49 291 52 l 317 0 l 29 0 m 728 1123 q 698 1063 716 1096 q 658 1001 680 1030 q 608 954 636 973 q 550 935 581 935 q 494 946 520 935 q 442 970 467 957 q 393 994 417 983 q 342 1005 368 1005 q 314 1000 326 1005 q 291 985 302 994 q 268 961 280 975 q 245 928 257 946 l 194 946 q 224 1007 206 974 q 263 1069 241 1040 q 313 1117 286 1098 q 371 1137 340 1137 q 431 1126 402 1137 q 484 1102 459 1115 q 533 1078 510 1089 q 577 1067 556 1067 q 630 1085 608 1067 q 676 1144 653 1104 l 728 1123 "},"F":{"x_min":29.15625,"x_max":659.234375,"ha":705,"o":"m 29 0 l 29 49 q 98 70 75 59 q 122 90 122 81 l 122 763 q 100 783 122 771 q 29 805 78 795 l 29 855 l 633 855 l 659 833 q 655 788 658 815 q 649 734 653 762 q 641 681 645 706 q 632 644 636 656 l 580 644 q 564 740 578 707 q 524 774 550 774 l 291 774 l 291 499 l 540 499 l 564 475 q 550 450 558 463 q 533 426 542 437 q 516 404 524 414 q 501 389 507 395 q 479 406 491 399 q 452 418 467 413 q 416 424 437 422 q 367 427 396 427 l 291 427 l 291 90 q 297 82 291 86 q 315 72 302 77 q 350 61 328 67 q 405 49 372 55 l 405 0 l 29 0 "},"ả":{"x_min":44,"x_max":688.765625,"ha":694,"o":"m 279 98 q 306 101 291 98 q 337 112 320 104 q 375 133 354 120 q 422 169 396 147 l 422 319 q 353 306 381 312 q 306 292 325 299 q 275 278 287 286 q 255 262 264 271 q 226 224 237 244 q 216 175 216 204 q 222 137 216 152 q 238 113 228 122 q 259 101 248 105 q 279 98 270 98 m 688 76 q 629 39 660 56 q 571 8 598 21 q 520 -12 543 -5 q 486 -20 498 -20 q 443 8 460 -20 q 423 87 426 37 q 361 36 392 57 q 301 3 330 15 q 246 -14 273 -9 q 198 -20 220 -20 q 142 -10 170 -20 q 93 18 115 0 q 57 67 71 38 q 44 136 44 97 q 60 214 44 182 q 102 272 77 247 q 139 303 118 288 q 196 333 161 318 q 286 360 232 347 q 422 386 340 373 l 422 466 q 417 505 422 487 q 403 535 413 523 q 376 555 393 548 q 333 563 359 563 q 301 556 317 563 q 272 539 285 550 q 253 512 260 528 q 248 476 246 496 q 237 466 249 472 q 208 453 226 459 q 169 440 190 447 q 128 429 148 434 q 93 422 108 425 q 72 421 77 420 l 57 458 q 109 534 74 499 q 190 595 143 569 q 292 636 237 621 q 404 651 348 651 q 485 638 451 651 q 541 604 519 626 q 574 552 563 582 q 585 488 585 522 l 585 161 q 592 121 585 133 q 612 109 599 109 q 621 109 616 109 q 634 112 627 110 q 650 118 641 114 q 673 127 660 121 l 688 76 m 482 904 q 471 871 482 885 q 442 844 459 856 q 410 820 426 831 q 385 797 393 809 q 381 772 377 785 q 408 742 384 759 q 394 735 403 738 q 377 728 386 731 q 359 723 368 725 q 346 721 351 721 q 286 756 301 740 q 275 787 271 773 q 296 813 279 801 q 332 838 313 826 q 366 864 351 851 q 380 894 380 878 q 373 926 380 917 q 351 936 365 936 q 328 925 337 936 q 319 904 319 915 q 327 885 319 896 q 283 870 310 877 q 224 860 256 863 l 216 867 q 214 881 214 873 q 227 920 214 900 q 262 954 241 939 q 313 979 284 970 q 373 989 342 989 q 423 982 402 989 q 457 963 444 975 q 476 936 470 951 q 482 904 482 921 "},"ʔ":{"x_min":30,"x_max":638,"ha":655,"o":"m 135 0 l 135 49 q 220 69 194 59 q 246 90 246 79 l 246 346 q 262 439 246 398 q 304 515 279 480 q 358 579 328 549 q 411 641 387 609 q 453 706 436 672 q 470 783 470 740 q 457 858 470 824 q 425 915 445 892 q 377 951 404 938 q 320 964 350 964 q 276 952 296 964 q 240 922 256 941 q 216 879 225 903 q 208 828 208 854 q 210 806 208 818 q 216 784 212 793 q 181 770 201 776 q 139 758 161 763 q 94 749 116 753 q 50 742 71 744 l 32 763 q 30 777 30 768 q 30 791 30 785 q 56 889 30 842 q 128 972 82 936 q 237 1030 174 1009 q 373 1052 300 1052 q 488 1035 438 1052 q 571 987 538 1018 q 621 914 604 956 q 638 819 638 871 q 621 732 638 769 q 578 664 604 695 q 523 606 553 633 q 468 548 493 578 q 425 479 442 517 q 409 392 409 442 l 409 90 q 436 69 409 80 q 518 49 463 59 l 518 0 l 135 0 "},"ờ":{"x_min":44,"x_max":818,"ha":817,"o":"m 514 298 q 502 400 514 352 q 471 485 491 448 q 422 544 451 522 q 358 566 393 566 q 289 547 316 566 q 245 495 261 528 q 222 418 228 463 q 216 320 216 373 q 228 220 216 267 q 262 139 241 174 q 311 84 283 104 q 371 65 339 65 q 438 80 411 65 q 482 125 465 96 q 506 199 499 155 q 514 298 514 242 m 818 706 q 774 611 818 663 q 637 509 730 559 q 672 425 660 471 q 685 329 685 380 q 672 240 685 283 q 638 158 660 196 q 585 86 616 119 q 518 30 555 53 q 439 -6 481 6 q 351 -20 396 -20 q 225 4 282 -20 q 128 71 168 28 q 66 173 88 114 q 44 301 44 232 q 68 431 44 368 q 138 543 93 494 q 243 621 182 592 q 378 651 305 651 q 498 629 444 651 q 592 568 552 607 q 630 613 621 591 q 640 652 640 635 q 627 689 640 671 q 595 722 614 706 l 772 802 q 804 761 791 787 q 818 706 818 734 m 497 736 q 486 727 493 732 q 470 718 478 722 q 453 710 461 713 q 439 705 445 707 l 180 960 l 200 998 q 227 1004 206 1000 q 273 1013 248 1008 q 319 1020 297 1017 q 349 1025 341 1024 l 497 736 "},"̿":{"x_min":-698.5625,"x_max":51.546875,"ha":0,"o":"m 51 1064 q 44 1044 49 1056 q 33 1020 39 1033 q 22 996 27 1007 q 14 980 16 986 l -676 980 l -698 1001 q -691 1020 -696 1009 q -680 1044 -687 1032 q -669 1067 -674 1056 q -660 1086 -663 1079 l 29 1086 l 51 1064 m 51 881 q 44 861 49 873 q 33 837 39 850 q 22 813 27 824 q 14 797 16 803 l -676 797 l -698 818 q -691 837 -696 826 q -680 861 -687 849 q -669 884 -674 873 q -660 903 -663 896 l 29 903 l 51 881 "},"å":{"x_min":44,"x_max":688.765625,"ha":694,"o":"m 279 98 q 306 101 291 98 q 337 112 320 104 q 375 133 354 120 q 422 169 396 147 l 422 319 q 353 306 381 312 q 306 292 325 299 q 275 278 287 286 q 255 262 264 271 q 226 224 237 244 q 216 175 216 204 q 222 137 216 152 q 238 113 228 122 q 259 101 248 105 q 279 98 270 98 m 688 76 q 629 39 660 56 q 571 8 598 21 q 520 -12 543 -5 q 486 -20 498 -20 q 443 8 460 -20 q 423 87 426 37 q 361 36 392 57 q 301 3 330 15 q 246 -14 273 -9 q 198 -20 220 -20 q 142 -10 170 -20 q 93 18 115 0 q 57 67 71 38 q 44 136 44 97 q 60 214 44 182 q 102 272 77 247 q 139 303 118 288 q 196 333 161 318 q 286 360 232 347 q 422 386 340 373 l 422 466 q 417 505 422 487 q 403 535 413 523 q 376 555 393 548 q 333 563 359 563 q 301 556 317 563 q 272 539 285 550 q 253 512 260 528 q 248 476 246 496 q 237 466 249 472 q 208 453 226 459 q 169 440 190 447 q 128 429 148 434 q 93 422 108 425 q 72 421 77 420 l 57 458 q 109 534 74 499 q 190 595 143 569 q 292 636 237 621 q 404 651 348 651 q 485 638 451 651 q 541 604 519 626 q 574 552 563 582 q 585 488 585 522 l 585 161 q 592 121 585 133 q 612 109 599 109 q 621 109 616 109 q 634 112 627 110 q 650 118 641 114 q 673 127 660 121 l 688 76 m 398 842 q 385 892 398 875 q 356 910 371 910 q 331 904 341 910 q 314 889 321 898 q 303 868 306 880 q 299 844 299 856 q 313 795 299 812 q 342 779 327 779 q 384 797 369 779 q 398 842 398 815 m 490 870 q 476 802 490 834 q 440 747 463 770 q 388 710 417 724 q 328 697 359 697 q 279 705 301 697 q 241 729 257 713 q 216 767 225 745 q 207 816 207 789 q 221 884 207 852 q 257 940 234 916 q 309 978 279 964 q 370 992 338 992 q 419 982 397 992 q 457 957 442 973 q 482 919 473 941 q 490 870 490 897 "},"0":{"x_min":41,"x_max":662,"ha":703,"o":"m 485 383 q 474 545 485 476 q 444 659 463 614 q 399 727 425 705 q 343 750 374 750 q 289 733 312 750 q 250 678 265 716 q 226 582 234 641 q 219 437 219 522 q 255 159 219 251 q 359 68 291 68 q 414 84 391 68 q 454 139 438 101 q 477 237 469 177 q 485 383 485 297 m 662 408 q 638 243 662 321 q 573 106 615 165 q 472 14 530 48 q 343 -20 414 -20 q 216 14 272 -20 q 121 106 161 48 q 61 243 82 165 q 41 408 41 321 q 63 574 41 496 q 126 710 85 652 q 227 803 168 769 q 359 838 286 838 q 488 804 431 838 q 583 711 544 770 q 641 575 621 653 q 662 408 662 496 "},"ɋ":{"x_min":44,"x_max":981.09375,"ha":761,"o":"m 355 109 q 426 127 393 109 q 500 183 460 146 l 500 474 q 471 509 488 494 q 436 537 455 525 q 397 554 417 548 q 357 561 376 561 q 298 548 325 561 q 250 509 270 535 q 218 441 230 483 q 207 342 207 399 q 219 241 207 284 q 253 168 232 197 q 301 123 274 138 q 355 109 328 109 m 500 94 q 443 41 469 63 q 390 6 416 20 q 337 -13 364 -7 q 277 -20 309 -20 q 195 2 237 -20 q 120 65 154 24 q 65 166 87 106 q 44 301 44 226 q 58 407 44 360 q 96 490 73 454 q 147 551 119 526 q 198 592 174 576 q 239 615 217 604 q 284 634 261 625 q 330 646 307 642 q 373 651 353 651 q 412 648 393 651 q 450 637 430 645 q 491 615 470 629 q 537 576 512 600 q 572 595 554 584 q 607 615 590 605 q 638 635 624 625 q 658 651 651 644 l 684 625 q 673 586 677 608 q 666 542 669 568 q 663 486 663 516 l 663 -97 q 680 -214 663 -175 q 738 -254 697 -254 q 768 -245 755 -254 q 789 -224 781 -237 q 802 -197 797 -211 q 806 -169 806 -182 q 797 -142 806 -154 q 813 -131 802 -137 q 841 -120 825 -125 q 876 -109 857 -114 q 911 -100 894 -104 q 941 -93 928 -95 q 962 -91 955 -91 l 981 -129 q 960 -192 981 -157 q 900 -259 939 -228 q 808 -312 862 -291 q 688 -334 754 -334 q 599 -318 635 -334 q 541 -275 563 -302 q 509 -214 519 -248 q 500 -143 500 -180 l 500 94 "},"ō":{"x_min":44,"x_max":685,"ha":729,"o":"m 514 298 q 502 400 514 352 q 471 485 491 448 q 422 544 451 522 q 358 566 393 566 q 289 547 316 566 q 245 495 261 528 q 222 418 228 463 q 216 320 216 373 q 228 220 216 267 q 262 139 241 174 q 311 84 283 104 q 371 65 339 65 q 438 80 411 65 q 482 125 465 96 q 506 199 499 155 q 514 298 514 242 m 685 329 q 672 240 685 283 q 638 158 660 196 q 585 86 616 119 q 518 30 555 53 q 439 -6 481 6 q 351 -20 396 -20 q 225 4 282 -20 q 128 71 168 28 q 66 173 88 114 q 44 301 44 232 q 68 431 44 368 q 137 543 93 494 q 243 621 182 592 q 378 651 305 651 q 504 626 447 651 q 601 559 560 602 q 663 457 641 516 q 685 329 685 398 m 674 886 q 667 866 672 879 q 656 840 662 854 q 644 815 650 826 q 636 797 639 803 l 118 797 l 96 818 q 103 838 99 826 q 114 864 108 850 q 126 889 120 877 q 134 908 131 901 l 653 908 l 674 886 "},"”":{"x_min":49.171875,"x_max":633,"ha":687,"o":"m 308 844 q 294 769 308 807 q 259 695 281 730 q 206 630 236 660 q 144 579 177 600 l 100 612 q 140 687 124 645 q 157 773 157 729 q 131 834 157 810 q 60 859 106 858 l 49 910 q 66 923 53 916 q 99 939 80 931 q 139 955 117 947 q 180 969 160 963 q 215 979 199 975 q 239 981 231 982 q 291 922 274 956 q 308 844 308 889 m 633 844 q 619 769 633 807 q 584 695 606 730 q 532 630 561 660 q 470 579 502 600 l 426 612 q 466 687 450 645 q 483 773 483 729 q 457 834 483 810 q 386 859 432 858 l 375 910 q 392 923 379 916 q 424 939 406 931 q 464 955 442 947 q 505 969 485 963 q 541 979 525 975 q 565 981 557 982 q 616 922 600 956 q 633 844 633 889 "},"ḕ":{"x_min":44,"x_max":659.234375,"ha":672,"o":"m 346 570 q 291 557 314 570 q 252 522 268 545 q 227 466 236 499 q 214 393 218 433 l 440 393 q 460 398 455 393 q 466 417 466 403 q 460 464 466 437 q 441 513 455 490 q 404 553 427 537 q 346 570 381 570 m 628 372 q 610 357 621 365 q 585 342 598 349 q 557 327 571 334 q 532 317 543 321 l 212 317 q 225 227 213 268 q 258 156 237 186 q 311 110 280 127 q 382 94 342 94 q 423 96 403 94 q 466 107 443 98 q 519 132 490 116 q 588 176 548 148 q 598 167 592 174 q 609 154 604 161 q 618 141 614 147 q 624 132 622 135 q 539 55 577 85 q 468 8 502 25 q 400 -13 434 -7 q 325 -20 366 -20 q 216 3 267 -20 q 127 68 165 26 q 66 169 88 110 q 44 299 44 228 q 78 464 44 392 q 183 587 113 536 q 223 612 201 600 q 269 632 245 623 q 319 645 293 640 q 370 651 345 651 q 485 627 437 651 q 565 566 534 604 q 612 477 597 528 q 628 372 628 427 m 659 886 q 652 866 657 879 q 640 840 647 854 q 629 815 634 826 q 621 797 623 803 l 103 797 l 81 818 q 88 838 83 826 q 99 864 92 850 q 110 889 105 877 q 119 908 115 901 l 637 908 l 659 886 m 472 980 q 461 971 468 976 q 445 962 453 966 q 428 954 436 957 q 414 949 420 951 l 155 1204 l 174 1242 q 202 1248 181 1244 q 248 1257 223 1252 q 294 1265 272 1261 q 324 1269 316 1268 l 472 980 "},"ö":{"x_min":44,"x_max":685,"ha":729,"o":"m 514 298 q 502 400 514 352 q 471 485 491 448 q 422 544 451 522 q 358 566 393 566 q 289 547 316 566 q 245 495 261 528 q 222 418 228 463 q 216 320 216 373 q 228 220 216 267 q 262 139 241 174 q 311 84 283 104 q 371 65 339 65 q 438 80 411 65 q 482 125 465 96 q 506 199 499 155 q 514 298 514 242 m 685 329 q 672 240 685 283 q 638 158 660 196 q 585 86 616 119 q 518 30 555 53 q 439 -6 481 6 q 351 -20 396 -20 q 225 4 282 -20 q 128 71 168 28 q 66 173 88 114 q 44 301 44 232 q 68 431 44 368 q 137 543 93 494 q 243 621 182 592 q 378 651 305 651 q 504 626 447 651 q 601 559 560 602 q 663 457 641 516 q 685 329 685 398 m 615 859 q 606 813 615 834 q 583 775 598 791 q 549 749 569 758 q 508 740 530 740 q 448 761 469 740 q 428 822 428 782 q 437 869 428 847 q 460 907 446 891 q 494 932 475 923 q 534 942 513 942 q 593 921 572 942 q 615 859 615 901 m 329 859 q 320 813 329 834 q 298 775 312 791 q 264 749 283 758 q 223 740 245 740 q 163 761 183 740 q 142 822 142 782 q 151 869 142 847 q 174 907 160 891 q 208 932 189 923 q 248 942 228 942 q 308 921 287 942 q 329 859 329 901 "},"ẉ":{"x_min":8.8125,"x_max":986.8125,"ha":996,"o":"m 986 581 q 955 572 967 576 q 936 563 944 567 q 925 553 929 559 q 918 539 921 547 l 769 40 q 752 14 765 25 q 724 -2 739 4 q 694 -13 709 -9 q 671 -20 680 -17 l 498 376 l 360 40 q 343 14 355 24 q 316 -3 330 3 q 288 -14 302 -10 q 265 -20 274 -17 l 82 539 q 60 562 78 551 q 8 581 42 574 l 8 631 l 316 631 l 316 581 q 270 573 286 578 q 247 563 254 569 q 239 551 240 557 q 241 539 239 545 l 343 219 l 505 631 l 557 631 l 727 219 l 825 539 q 827 553 828 546 q 821 564 827 559 q 802 573 815 569 q 766 581 789 577 l 766 631 l 986 631 l 986 581 m 595 -184 q 587 -230 595 -209 q 564 -268 578 -252 q 530 -294 550 -285 q 489 -304 511 -304 q 429 -283 450 -304 q 408 -221 408 -262 q 417 -174 408 -196 q 441 -136 426 -152 q 475 -111 455 -120 q 515 -102 494 -102 q 574 -122 553 -102 q 595 -184 595 -143 "},"Ȧ":{"x_min":0,"x_max":858.625,"ha":873,"o":"m 506 373 l 394 688 l 293 373 l 506 373 m 265 292 l 200 95 q 217 65 193 74 q 296 49 240 55 l 296 0 l 0 0 l 0 49 q 70 66 46 57 q 102 95 95 75 l 339 818 q 374 843 355 831 q 412 864 392 855 q 452 880 432 873 q 489 893 472 887 l 774 95 q 783 78 777 86 q 798 65 788 71 q 822 56 807 60 q 858 49 836 52 l 858 0 l 521 0 l 521 49 q 593 63 574 52 q 604 95 611 73 l 535 292 l 265 292 m 522 1050 q 514 1003 522 1024 q 491 965 505 981 q 457 939 477 949 q 416 930 438 930 q 356 951 377 930 q 335 1012 335 972 q 344 1059 335 1037 q 367 1097 353 1081 q 401 1122 382 1113 q 442 1132 421 1132 q 501 1111 480 1132 q 522 1050 522 1091 "},"ć":{"x_min":44,"x_max":605.796875,"ha":633,"o":"m 605 129 q 524 49 561 79 q 453 4 487 20 q 388 -15 419 -11 q 325 -20 357 -20 q 219 2 270 -20 q 129 65 168 24 q 67 166 90 106 q 44 301 44 226 q 71 438 44 374 q 146 548 98 501 q 262 623 195 596 q 410 651 329 651 q 460 647 432 651 q 516 636 489 643 q 566 619 543 629 q 600 597 588 609 q 598 578 601 591 q 591 547 596 564 q 581 509 587 529 q 569 472 575 490 q 556 440 563 454 q 546 420 550 426 l 501 426 q 446 529 478 493 q 359 566 413 566 q 302 552 329 566 q 253 509 274 538 q 219 433 232 480 q 207 322 207 387 q 220 225 207 268 q 258 154 234 183 q 315 109 282 125 q 384 94 348 94 q 421 96 403 94 q 459 106 438 98 q 507 130 481 115 q 569 172 533 146 l 605 129 m 305 705 q 291 709 299 705 q 273 717 282 713 q 258 726 265 721 q 246 734 250 730 l 389 1025 q 420 1021 398 1024 q 467 1014 442 1018 q 514 1005 492 1010 q 544 999 537 1001 l 564 962 l 305 705 "},"þ":{"x_min":33,"x_max":733,"ha":777,"o":"m 580 291 q 567 399 580 353 q 533 476 554 445 q 484 521 512 506 q 428 536 457 536 q 403 533 415 536 q 373 522 390 530 q 336 499 357 514 q 285 460 314 484 l 285 155 q 346 122 319 134 q 393 102 372 109 q 433 94 415 96 q 468 92 451 92 q 516 106 495 92 q 551 147 537 121 q 572 210 565 174 q 580 291 580 247 m 733 343 q 721 255 733 299 q 690 170 709 211 q 644 95 670 129 q 588 34 617 60 q 526 -5 558 9 q 465 -20 495 -20 q 428 -16 447 -20 q 387 -4 409 -12 q 339 18 365 4 q 285 52 314 32 l 285 -234 q 310 -255 285 -245 q 399 -276 335 -266 l 399 -326 l 33 -326 l 33 -276 q 99 -255 77 -265 q 122 -234 122 -245 l 122 861 q 118 906 122 890 q 106 931 115 923 q 78 942 96 939 q 33 949 61 945 l 33 996 q 101 1007 71 1001 q 157 1019 131 1013 q 206 1033 183 1025 q 255 1051 230 1041 l 285 1022 l 285 540 q 355 594 323 573 q 415 629 388 616 q 466 646 443 641 q 509 651 489 651 q 595 631 555 651 q 667 572 636 611 q 715 476 697 533 q 733 343 733 419 "},"]":{"x_min":16.75,"x_max":383,"ha":468,"o":"m 45 -227 l 18 -204 q 22 -184 19 -195 q 28 -162 25 -172 q 35 -142 32 -151 q 41 -129 39 -133 l 227 -129 l 227 987 l 45 987 l 16 1011 q 21 1028 18 1018 q 28 1049 24 1038 q 35 1069 31 1060 q 41 1085 39 1078 l 383 1085 l 383 -227 l 45 -227 "},"Ǒ":{"x_min":37,"x_max":812,"ha":864,"o":"m 641 427 q 624 562 641 496 q 577 677 607 627 q 504 757 546 727 q 409 787 461 787 q 323 762 360 787 q 260 693 285 738 q 221 583 234 648 q 209 435 209 517 q 226 292 209 359 q 275 177 244 226 q 347 100 306 128 q 435 72 388 72 q 517 93 479 72 q 582 159 555 115 q 625 270 609 204 q 641 427 641 337 m 812 439 q 797 319 812 377 q 755 210 782 262 q 691 117 728 159 q 608 44 654 74 q 511 -3 563 13 q 405 -20 460 -20 q 251 15 319 -20 q 135 112 182 51 q 62 251 87 172 q 37 415 37 329 q 67 590 37 507 q 151 737 97 674 q 280 837 205 800 q 444 875 355 875 q 602 838 534 875 q 717 740 670 801 q 788 600 764 679 q 812 439 812 521 m 476 939 l 383 939 l 200 1196 q 218 1224 208 1210 q 239 1243 227 1237 l 430 1095 l 619 1243 q 642 1224 630 1237 q 664 1196 655 1210 l 476 939 "},"ẁ":{"x_min":8.8125,"x_max":986.8125,"ha":996,"o":"m 986 581 q 955 572 967 576 q 936 563 944 567 q 925 553 929 559 q 918 539 921 547 l 769 40 q 752 14 765 25 q 724 -2 739 4 q 694 -13 709 -9 q 671 -20 680 -17 l 498 376 l 360 40 q 343 14 355 24 q 316 -3 330 3 q 288 -14 302 -10 q 265 -20 274 -17 l 82 539 q 60 562 78 551 q 8 581 42 574 l 8 631 l 316 631 l 316 581 q 270 573 286 578 q 247 563 254 569 q 239 551 240 557 q 241 539 239 545 l 343 219 l 505 631 l 557 631 l 727 219 l 825 539 q 827 553 828 546 q 821 564 827 559 q 802 573 815 569 q 766 581 789 577 l 766 631 l 986 631 l 986 581 m 625 736 q 613 727 621 732 q 597 718 606 722 q 581 710 589 713 q 567 705 573 707 l 307 960 l 327 998 q 355 1004 334 1000 q 400 1013 376 1008 q 447 1020 425 1017 q 477 1025 469 1024 l 625 736 "},"Ȟ":{"x_min":29.078125,"x_max":907.59375,"ha":949,"o":"m 29 0 l 29 49 q 98 70 75 59 q 122 90 122 81 l 122 763 q 99 783 122 771 q 29 805 77 795 l 29 855 l 385 855 l 385 805 q 315 784 339 795 q 292 763 292 772 l 292 488 l 644 488 l 644 763 q 621 783 644 771 q 551 805 599 795 l 551 855 l 907 855 l 907 805 q 837 784 861 795 q 814 763 814 772 l 814 90 q 836 70 814 82 q 907 49 858 59 l 907 0 l 551 0 l 551 49 q 620 70 597 59 q 644 90 644 81 l 644 407 l 292 407 l 292 90 q 314 70 292 82 q 385 49 336 59 l 385 0 l 29 0 m 514 939 l 421 939 l 237 1162 q 256 1186 246 1175 q 278 1204 266 1197 l 470 1076 l 657 1204 q 679 1186 669 1197 q 697 1162 689 1175 l 514 939 "},"ệ":{"x_min":44,"x_max":628,"ha":672,"o":"m 346 570 q 291 557 314 570 q 252 522 268 545 q 227 466 236 499 q 214 393 218 433 l 440 393 q 460 398 455 393 q 466 417 466 403 q 460 464 466 437 q 441 513 455 490 q 404 553 427 537 q 346 570 381 570 m 628 372 q 610 357 621 365 q 585 342 598 349 q 557 327 571 334 q 532 317 543 321 l 212 317 q 225 227 213 268 q 258 156 237 186 q 311 110 280 127 q 382 94 342 94 q 423 96 403 94 q 466 107 443 98 q 519 132 490 116 q 588 176 548 148 q 598 167 592 174 q 609 154 604 161 q 618 141 614 147 q 624 132 622 135 q 539 55 577 85 q 468 8 502 25 q 400 -13 434 -7 q 325 -20 366 -20 q 216 3 267 -20 q 127 68 165 26 q 66 169 88 110 q 44 299 44 228 q 78 464 44 392 q 183 587 113 536 q 223 612 201 600 q 269 632 245 623 q 319 645 293 640 q 370 651 345 651 q 485 627 437 651 q 565 566 534 604 q 612 477 597 528 q 628 372 628 427 m 449 -184 q 440 -230 449 -209 q 418 -268 432 -252 q 384 -294 403 -285 q 343 -304 365 -304 q 283 -283 303 -304 q 262 -221 262 -262 q 271 -174 262 -196 q 294 -136 280 -152 q 328 -111 309 -120 q 369 -102 348 -102 q 428 -122 407 -102 q 449 -184 449 -143 m 593 750 q 575 723 585 737 q 554 705 565 710 l 363 856 l 174 705 q 150 723 162 710 q 128 750 138 737 l 318 1013 l 411 1013 l 593 750 "},"ĭ":{"x_min":-27.125,"x_max":454.40625,"ha":417,"o":"m 43 0 l 43 49 q 110 70 88 59 q 132 90 132 81 l 132 439 q 131 495 132 474 q 122 528 130 516 q 96 545 115 540 q 43 554 78 551 l 43 602 q 153 622 101 610 q 251 651 205 634 l 295 651 l 295 90 q 315 70 295 82 q 385 49 335 59 l 385 0 l 43 0 m 454 927 q 406 833 434 872 q 348 769 379 794 q 283 732 317 744 q 215 721 249 721 q 142 732 177 721 q 76 769 107 744 q 19 833 46 794 q -27 927 -6 872 q -16 940 -23 933 q -3 953 -10 947 q 11 965 4 960 q 23 973 18 970 q 63 919 40 941 q 112 881 86 896 q 163 858 137 865 q 212 851 189 851 q 262 858 236 851 q 314 880 288 865 q 362 918 339 895 q 402 973 385 941 q 416 965 408 970 q 430 953 423 960 q 443 940 437 947 q 454 927 450 933 "},"8":{"x_min":54,"x_max":648,"ha":702,"o":"m 242 644 q 253 599 242 618 q 285 564 265 579 q 331 535 305 548 q 388 510 358 522 q 447 636 447 571 q 437 695 447 671 q 412 733 428 718 q 377 753 397 747 q 335 759 357 759 q 295 749 313 759 q 266 724 278 740 q 248 688 254 708 q 242 644 242 667 m 474 209 q 461 277 474 248 q 426 328 448 306 q 375 365 404 349 q 316 395 347 381 q 277 353 294 374 q 250 311 261 332 q 234 265 239 289 q 229 213 229 241 q 239 150 229 178 q 268 102 250 122 q 310 73 287 83 q 359 63 334 63 q 408 74 386 63 q 444 106 430 86 q 466 153 459 126 q 474 209 474 179 m 648 239 q 623 139 648 186 q 557 56 599 92 q 458 0 515 21 q 336 -20 401 -20 q 214 -2 267 -20 q 126 45 161 15 q 72 113 90 74 q 54 193 54 151 q 67 262 54 228 q 105 325 81 295 q 164 381 130 355 q 239 429 198 407 q 182 459 209 443 q 134 498 155 475 q 101 550 113 520 q 89 620 89 580 q 110 707 89 667 q 168 776 131 747 q 254 821 205 805 q 361 838 304 838 q 473 824 425 838 q 552 787 520 810 q 599 730 583 763 q 615 657 615 696 q 603 606 615 631 q 572 559 592 582 q 526 516 553 537 q 468 475 499 496 q 535 439 503 459 q 593 391 568 418 q 633 325 618 363 q 648 239 648 288 "},"Ữ":{"x_min":29.078125,"x_max":1016.078125,"ha":1016,"o":"m 1016 944 q 1003 893 1016 920 q 963 839 990 867 q 895 783 936 811 q 797 728 853 755 l 797 355 q 772 197 797 266 q 702 79 747 127 q 596 5 657 30 q 461 -20 535 -20 q 330 0 392 -20 q 222 58 268 18 q 148 158 175 98 q 122 301 122 218 l 122 763 q 99 783 122 771 q 29 805 77 795 l 29 855 l 385 855 l 385 805 q 315 784 339 795 q 292 763 292 772 l 292 345 q 303 230 292 280 q 340 146 315 180 q 405 95 365 112 q 503 78 445 78 q 585 99 552 78 q 639 157 618 121 q 668 240 659 193 q 678 337 678 287 l 678 763 q 655 783 678 771 q 585 805 633 795 l 585 855 l 830 855 q 837 873 835 864 q 838 889 838 882 q 825 926 838 909 q 794 959 813 944 l 970 1040 q 1002 998 989 1025 q 1016 944 1016 972 m 754 1123 q 724 1063 741 1096 q 684 1001 706 1030 q 634 954 661 973 q 575 935 607 935 q 520 946 546 935 q 468 970 493 957 q 418 994 443 983 q 368 1005 394 1005 q 340 1000 352 1005 q 317 985 328 994 q 294 961 305 975 q 271 928 283 946 l 220 946 q 249 1007 232 974 q 289 1069 267 1040 q 339 1117 311 1098 q 397 1137 366 1137 q 456 1126 428 1137 q 510 1102 484 1115 q 558 1078 535 1089 q 603 1067 581 1067 q 656 1085 634 1067 q 701 1144 678 1104 l 754 1123 "},"R":{"x_min":20.265625,"x_max":843.71875,"ha":840,"o":"m 29 0 l 29 49 q 98 70 75 59 q 122 90 122 81 l 122 784 q 74 778 97 781 q 29 771 50 775 l 20 834 q 176 862 92 849 q 358 875 261 875 q 515 859 451 875 q 621 815 580 843 q 681 750 662 788 q 700 669 700 712 q 686 583 700 622 q 647 512 672 544 q 587 457 622 481 q 510 420 552 434 l 724 124 q 745 101 735 110 q 766 88 754 92 q 794 82 778 83 q 833 84 810 82 l 843 34 q 793 19 821 27 q 738 4 765 11 q 687 -5 710 -1 q 651 -10 664 -10 q 612 1 631 -10 q 584 27 594 12 l 390 397 q 376 396 383 396 l 363 396 q 328 398 346 396 q 292 404 310 400 l 292 90 q 314 70 292 82 q 385 49 336 59 l 385 0 l 29 0 m 329 803 q 310 802 320 803 q 292 802 301 802 l 292 479 q 323 475 310 475 q 352 474 337 474 q 486 520 443 474 q 529 648 529 566 q 519 708 529 679 q 487 757 510 736 q 426 790 464 778 q 329 803 387 803 "},"Ḇ":{"x_min":20.265625,"x_max":766,"ha":835,"o":"m 766 241 q 741 136 766 183 q 672 57 717 90 q 562 7 626 25 q 415 -10 497 -10 q 378 -9 400 -10 q 330 -8 356 -9 q 275 -7 303 -7 q 219 -5 246 -6 q 83 0 155 -2 l 29 0 l 29 49 q 98 70 75 59 q 122 90 122 81 l 122 790 q 72 784 96 787 q 29 777 48 780 l 20 834 q 92 848 50 841 q 179 861 133 856 q 271 871 225 867 q 358 875 318 875 q 498 862 437 875 q 602 826 559 849 q 668 768 645 802 q 691 691 691 734 q 651 566 691 618 q 536 490 612 514 q 629 459 586 482 q 701 404 671 437 q 749 329 732 371 q 766 241 766 288 m 383 433 q 331 430 352 433 q 292 424 311 427 l 292 86 q 295 77 292 81 q 339 66 315 69 q 390 63 363 63 q 538 107 488 63 q 588 228 588 151 q 578 302 588 265 q 544 367 568 338 q 481 415 520 397 q 383 433 442 433 m 316 803 l 304 803 q 292 802 298 803 l 292 502 l 304 502 q 414 515 372 502 q 479 551 455 529 q 510 601 502 573 q 519 658 519 629 q 509 719 519 692 q 475 764 499 746 q 412 793 451 783 q 316 803 373 803 m 681 -137 q 674 -157 679 -145 q 663 -183 669 -170 q 651 -208 657 -197 q 643 -227 646 -220 l 125 -227 l 103 -205 q 110 -185 105 -197 q 121 -159 115 -173 q 132 -134 127 -146 q 141 -116 138 -122 l 659 -116 l 681 -137 "},"Ż":{"x_min":35.265625,"x_max":708.0625,"ha":757,"o":"m 708 239 q 705 184 706 217 q 703 117 704 151 q 701 51 702 83 q 699 0 700 19 l 59 0 l 35 35 l 491 767 l 226 767 q 202 755 215 767 q 175 722 188 743 q 150 672 162 701 q 130 608 138 643 l 71 621 l 96 865 q 130 859 115 861 q 160 855 145 856 q 190 855 174 855 l 678 855 l 701 821 l 248 88 l 557 88 q 583 98 571 88 q 605 129 594 108 q 626 181 615 150 q 650 254 637 212 l 708 239 m 485 1050 q 477 1003 485 1024 q 454 965 468 981 q 421 939 440 949 q 379 930 401 930 q 319 951 340 930 q 298 1012 298 972 q 307 1059 298 1037 q 331 1097 316 1081 q 365 1122 345 1113 q 405 1132 384 1132 q 464 1111 443 1132 q 485 1050 485 1091 "},"ḝ":{"x_min":44,"x_max":628,"ha":672,"o":"m 491 -155 q 472 -203 491 -180 q 421 -247 454 -227 q 344 -281 389 -267 q 246 -301 299 -295 l 221 -252 q 305 -224 280 -244 q 331 -182 331 -204 q 315 -149 331 -159 q 269 -137 299 -139 l 271 -134 q 279 -117 273 -131 q 295 -73 285 -103 q 313 -20 303 -53 q 216 2 262 -17 q 127 67 165 25 q 66 168 88 109 q 44 299 44 227 q 78 464 44 391 q 183 587 113 536 q 223 611 201 600 q 269 632 245 623 q 319 645 293 640 q 370 651 345 651 q 485 627 437 651 q 565 566 534 604 q 612 478 597 528 q 628 373 628 428 q 610 358 621 366 q 585 343 598 350 q 557 328 571 335 q 532 318 543 322 l 212 318 q 225 228 213 269 q 258 157 237 187 q 311 110 280 127 q 382 94 342 94 q 423 96 403 94 q 466 107 443 98 q 519 132 490 116 q 588 176 548 148 q 598 167 592 174 q 609 154 604 161 q 618 141 614 147 q 623 132 622 135 q 539 55 577 85 q 468 8 502 25 q 400 -14 433 -7 l 398 -14 l 380 -60 q 462 -93 433 -69 q 491 -155 491 -116 m 604 927 q 556 833 583 872 q 498 769 529 794 q 433 732 467 744 q 364 721 399 721 q 292 732 327 721 q 226 769 257 744 q 169 833 196 794 q 122 927 143 872 q 133 940 126 933 q 146 953 139 947 q 161 965 153 960 q 173 973 168 970 q 213 919 190 941 q 262 881 236 896 q 313 858 287 865 q 362 851 339 851 q 412 858 385 851 q 464 880 438 865 q 512 918 489 895 q 552 973 535 941 q 565 965 558 970 q 580 953 573 960 q 593 940 587 947 q 604 927 600 933 m 346 570 q 291 557 314 570 q 252 522 268 545 q 227 467 236 499 q 214 394 218 434 l 440 394 q 460 399 455 394 q 466 418 466 404 q 460 464 466 438 q 441 514 455 490 q 404 553 427 537 q 346 570 381 570 "},"õ":{"x_min":44,"x_max":685,"ha":729,"o":"m 514 298 q 502 400 514 352 q 471 485 491 448 q 422 544 451 522 q 358 566 393 566 q 289 547 316 566 q 245 495 261 528 q 222 418 228 463 q 216 320 216 373 q 228 220 216 267 q 262 139 241 174 q 311 84 283 104 q 371 65 339 65 q 438 80 411 65 q 482 125 465 96 q 506 199 499 155 q 514 298 514 242 m 685 329 q 672 240 685 283 q 638 158 660 196 q 585 86 616 119 q 518 30 555 53 q 439 -6 481 6 q 351 -20 396 -20 q 225 4 282 -20 q 128 71 168 28 q 66 173 88 114 q 44 301 44 232 q 68 431 44 368 q 137 543 93 494 q 243 621 182 592 q 378 651 305 651 q 504 626 447 651 q 601 559 560 602 q 663 457 641 516 q 685 329 685 398 m 646 933 q 616 873 634 905 q 576 811 598 840 q 526 764 554 783 q 467 745 499 745 q 412 756 438 745 q 360 780 385 767 q 310 804 335 793 q 260 816 286 816 q 232 810 244 816 q 209 795 220 805 q 186 771 198 786 q 163 738 175 756 l 112 756 q 142 817 124 784 q 181 879 159 850 q 231 927 204 908 q 289 947 258 947 q 348 935 320 947 q 402 911 377 924 q 451 887 427 898 q 495 876 474 876 q 548 894 526 876 q 594 954 571 913 l 646 933 "},"ẘ":{"x_min":8.8125,"x_max":986.8125,"ha":996,"o":"m 986 581 q 955 572 967 576 q 936 563 944 567 q 925 553 929 559 q 918 539 921 547 l 769 40 q 752 14 765 25 q 724 -2 739 4 q 694 -13 709 -9 q 671 -20 680 -17 l 498 376 l 360 40 q 343 14 355 24 q 316 -3 330 3 q 288 -14 302 -10 q 265 -20 274 -17 l 82 539 q 60 562 78 551 q 8 581 42 574 l 8 631 l 316 631 l 316 581 q 270 573 286 578 q 247 563 254 569 q 239 551 240 557 q 241 539 239 545 l 343 219 l 505 631 l 557 631 l 727 219 l 825 539 q 827 553 828 546 q 821 564 827 559 q 802 573 815 569 q 766 581 789 577 l 766 631 l 986 631 l 986 581 m 565 842 q 551 892 565 875 q 522 910 538 910 q 498 904 508 910 q 480 889 487 898 q 470 868 473 880 q 466 844 466 856 q 480 795 466 812 q 509 779 494 779 q 550 797 536 779 q 565 842 565 815 m 657 870 q 643 802 657 834 q 607 747 630 770 q 555 710 584 724 q 495 697 526 697 q 446 705 468 697 q 408 729 423 713 q 383 767 392 745 q 374 816 374 789 q 387 884 374 852 q 423 940 401 916 q 475 978 446 964 q 537 992 505 992 q 586 982 564 992 q 624 957 609 973 q 648 919 640 941 q 657 870 657 897 "},"ẫ":{"x_min":44,"x_max":688.765625,"ha":694,"o":"m 279 98 q 306 101 291 98 q 337 112 320 104 q 375 133 354 120 q 422 169 396 147 l 422 319 q 353 306 381 312 q 306 292 325 299 q 275 278 287 286 q 255 262 264 271 q 226 224 237 244 q 216 175 216 204 q 222 137 216 152 q 238 113 228 122 q 259 101 248 105 q 279 98 270 98 m 688 76 q 629 39 660 56 q 571 8 598 21 q 520 -12 543 -5 q 486 -20 498 -20 q 443 8 460 -20 q 423 87 426 37 q 361 36 392 57 q 301 3 330 15 q 246 -14 273 -9 q 198 -20 220 -20 q 142 -10 170 -20 q 93 18 115 0 q 57 67 71 38 q 44 136 44 97 q 60 214 44 182 q 102 272 77 247 q 139 303 118 288 q 196 333 161 318 q 286 360 232 347 q 422 386 340 373 l 422 466 q 417 505 422 487 q 403 535 413 523 q 376 555 393 548 q 333 563 359 563 q 301 556 317 563 q 272 539 285 550 q 253 512 260 528 q 248 476 246 496 q 237 466 249 472 q 208 453 226 459 q 169 440 190 447 q 128 429 148 434 q 93 422 108 425 q 72 421 77 420 l 57 458 q 109 534 74 499 q 190 595 143 569 q 292 636 237 621 q 404 651 348 651 q 485 638 451 651 q 541 604 519 626 q 574 552 563 582 q 585 488 585 522 l 585 161 q 592 121 585 133 q 612 109 599 109 q 621 109 616 109 q 634 112 627 110 q 650 118 641 114 q 673 127 660 121 l 688 76 m 579 750 q 561 723 571 737 q 539 705 551 710 l 349 856 l 160 705 q 136 723 148 710 q 114 750 124 737 l 303 1013 l 396 1013 l 579 750 m 616 1254 q 586 1193 604 1226 q 546 1132 569 1161 q 496 1085 524 1104 q 438 1065 469 1065 q 382 1076 408 1065 q 330 1101 356 1088 q 281 1125 305 1114 q 230 1136 256 1136 q 202 1131 215 1136 q 179 1116 190 1126 q 157 1092 168 1106 q 133 1058 145 1077 l 82 1077 q 112 1138 94 1105 q 151 1200 129 1171 q 201 1248 174 1229 q 259 1267 228 1267 q 319 1256 290 1267 q 372 1232 347 1245 q 421 1207 398 1219 q 465 1196 444 1196 q 518 1215 496 1196 q 564 1274 541 1234 l 616 1254 "},"Ṡ":{"x_min":69.75,"x_max":656,"ha":712,"o":"m 656 255 q 646 193 656 225 q 619 130 637 161 q 573 72 601 100 q 508 24 545 45 q 423 -7 470 4 q 318 -20 376 -20 q 262 -15 294 -20 q 198 -2 231 -10 q 134 18 165 6 q 79 46 102 30 q 73 59 75 47 q 70 89 71 71 q 69 130 69 107 q 71 176 70 152 q 76 221 73 199 q 84 260 79 243 l 132 257 q 169 184 147 217 q 220 127 192 150 q 279 90 247 103 q 345 77 311 77 q 404 85 376 77 q 454 111 433 94 q 489 152 476 127 q 503 209 503 177 q 484 281 503 251 q 436 334 466 311 q 368 377 406 358 q 289 414 329 396 q 211 454 249 433 q 142 502 172 474 q 94 565 112 529 q 76 651 76 601 q 93 722 76 683 q 149 794 111 761 q 245 851 186 828 q 386 875 304 875 q 457 870 422 875 q 523 857 493 865 q 577 837 554 849 q 613 812 600 826 q 614 800 616 809 q 608 778 613 790 q 597 750 604 765 q 582 721 590 735 q 567 697 575 708 q 554 681 560 686 l 510 685 q 475 739 495 717 q 435 773 456 760 q 392 791 414 786 q 351 797 370 797 q 294 788 318 797 q 254 764 270 779 q 232 730 239 749 q 225 693 225 712 q 243 636 225 661 q 292 590 262 611 q 361 550 322 569 q 440 510 399 531 q 519 466 481 490 q 588 413 558 443 q 637 344 618 383 q 656 255 656 306 m 456 1050 q 447 1003 456 1024 q 424 965 439 981 q 391 939 410 949 q 350 930 371 930 q 289 951 310 930 q 269 1012 269 972 q 277 1059 269 1037 q 301 1097 286 1081 q 335 1122 316 1113 q 375 1132 354 1132 q 435 1111 413 1132 q 456 1050 456 1091 "},"ǝ":{"x_min":43,"x_max":630,"ha":674,"o":"m 326 61 q 423 109 393 61 q 460 258 454 157 l 251 258 q 218 242 230 258 q 207 199 207 226 q 216 141 207 167 q 241 98 225 116 q 279 70 257 80 q 326 61 301 61 m 630 339 q 604 190 630 259 q 532 71 579 121 q 489 33 513 50 q 436 4 464 16 q 378 -13 408 -7 q 318 -20 348 -20 q 205 -3 255 -20 q 118 44 154 13 q 62 115 82 74 q 43 205 43 157 q 49 252 43 232 q 67 288 55 272 q 90 299 77 292 q 118 312 103 305 q 146 324 132 318 q 173 335 160 330 l 461 335 q 442 424 457 386 q 403 486 426 461 q 350 523 379 511 q 289 536 320 536 q 250 533 271 536 q 204 522 229 530 q 150 499 179 514 q 87 458 121 483 q 77 466 83 460 q 67 479 72 472 q 58 492 62 485 q 52 501 54 498 q 129 573 93 544 q 200 620 165 602 q 270 644 234 637 q 344 651 305 651 q 452 630 400 651 q 543 570 504 610 q 606 472 583 531 q 630 339 630 414 "},"˙":{"x_min":42,"x_max":229,"ha":271,"o":"m 229 859 q 220 813 229 834 q 197 775 212 791 q 163 749 182 758 q 122 740 144 740 q 62 761 82 740 q 42 822 42 782 q 50 869 42 847 q 74 907 59 891 q 107 932 88 923 q 148 942 127 942 q 207 921 186 942 q 229 859 229 901 "},"ê":{"x_min":44,"x_max":628,"ha":672,"o":"m 346 570 q 291 557 314 570 q 252 522 268 545 q 227 466 236 499 q 214 393 218 433 l 440 393 q 460 398 455 393 q 466 417 466 403 q 460 464 466 437 q 441 513 455 490 q 404 553 427 537 q 346 570 381 570 m 628 372 q 610 357 621 365 q 585 342 598 349 q 557 327 571 334 q 532 317 543 321 l 212 317 q 225 227 213 268 q 258 156 237 186 q 311 110 280 127 q 382 94 342 94 q 423 96 403 94 q 466 107 443 98 q 519 132 490 116 q 588 176 548 148 q 598 167 592 174 q 609 154 604 161 q 618 141 614 147 q 624 132 622 135 q 539 55 577 85 q 468 8 502 25 q 400 -13 434 -7 q 325 -20 366 -20 q 216 3 267 -20 q 127 68 165 26 q 66 169 88 110 q 44 299 44 228 q 78 464 44 392 q 183 587 113 536 q 223 612 201 600 q 269 632 245 623 q 319 645 293 640 q 370 651 345 651 q 485 627 437 651 q 565 566 534 604 q 612 477 597 528 q 628 372 628 427 m 593 750 q 575 723 585 737 q 554 705 565 710 l 363 856 l 174 705 q 150 723 162 710 q 128 750 138 737 l 318 1013 l 411 1013 l 593 750 "},"„":{"x_min":49.171875,"x_max":634,"ha":692,"o":"m 308 24 q 294 -50 308 -12 q 259 -124 281 -89 q 206 -189 236 -159 q 144 -241 177 -219 l 100 -207 q 140 -132 124 -174 q 157 -46 157 -90 q 131 15 157 -9 q 60 40 106 39 l 49 91 q 66 104 53 96 q 99 119 80 111 q 139 136 117 127 q 180 150 160 144 q 215 159 199 156 q 239 162 231 163 q 291 103 274 136 q 308 24 308 69 m 634 24 q 620 -50 634 -12 q 585 -124 607 -89 q 533 -189 562 -159 q 471 -241 503 -219 l 427 -207 q 467 -132 451 -174 q 484 -46 484 -90 q 458 15 484 -9 q 387 40 433 39 l 376 91 q 393 104 380 96 q 425 119 407 111 q 465 136 443 127 q 506 150 486 144 q 542 159 526 156 q 566 162 558 163 q 617 103 601 136 q 634 24 634 69 "},"Â":{"x_min":0,"x_max":858.625,"ha":873,"o":"m 506 373 l 394 688 l 293 373 l 506 373 m 265 292 l 200 95 q 217 65 193 74 q 296 49 240 55 l 296 0 l 0 0 l 0 49 q 70 66 46 57 q 102 95 95 75 l 339 818 q 374 843 355 831 q 412 864 392 855 q 452 880 432 873 q 489 893 472 887 l 774 95 q 783 78 777 86 q 798 65 788 71 q 822 56 807 60 q 858 49 836 52 l 858 0 l 521 0 l 521 49 q 593 63 574 52 q 604 95 611 73 l 535 292 l 265 292 m 658 962 q 640 938 650 949 q 619 922 630 927 l 428 1032 l 239 922 q 218 938 227 927 q 198 962 208 949 l 387 1183 l 470 1183 l 658 962 "},"´":{"x_min":137,"x_max":455.765625,"ha":443,"o":"m 196 705 q 181 709 189 705 q 164 717 172 713 q 148 726 155 721 q 137 734 141 730 l 280 1025 q 310 1020 288 1024 q 358 1013 333 1017 q 405 1005 383 1009 q 434 999 427 1001 l 455 962 l 196 705 "},"Ɛ":{"x_min":44,"x_max":686.71875,"ha":730,"o":"m 686 143 q 605 69 646 100 q 521 18 564 38 q 433 -10 479 -1 q 336 -20 387 -20 q 202 1 258 -20 q 112 54 147 22 q 60 125 76 87 q 44 197 44 163 q 56 273 44 236 q 90 339 69 309 q 140 393 112 369 q 200 430 168 416 q 101 500 135 453 q 67 613 67 546 q 102 725 67 672 q 198 815 137 778 q 299 858 242 842 q 419 875 357 875 q 492 870 456 875 q 562 857 528 866 q 625 835 596 849 q 676 804 655 822 q 662 771 671 790 q 643 731 653 751 q 623 692 633 711 q 605 660 612 673 l 556 671 q 524 715 542 694 q 485 751 507 735 q 439 775 464 766 q 383 785 413 785 q 322 774 351 785 q 271 746 293 764 q 236 701 249 727 q 223 641 223 674 q 236 587 223 613 q 279 539 249 560 q 359 503 310 517 q 479 486 408 488 l 479 417 q 360 396 410 412 q 277 354 309 379 q 229 299 244 330 q 214 238 214 269 q 226 182 214 208 q 262 137 239 156 q 320 106 286 118 q 399 95 355 95 q 458 99 429 95 q 517 113 487 103 q 580 142 547 124 q 650 190 613 161 l 686 143 "},"ỏ":{"x_min":44,"x_max":685,"ha":729,"o":"m 514 298 q 502 400 514 352 q 471 485 491 448 q 422 544 451 522 q 358 566 393 566 q 289 547 316 566 q 245 495 261 528 q 222 418 228 463 q 216 320 216 373 q 228 220 216 267 q 262 139 241 174 q 311 84 283 104 q 371 65 339 65 q 438 80 411 65 q 482 125 465 96 q 506 199 499 155 q 514 298 514 242 m 685 329 q 672 240 685 283 q 638 158 660 196 q 585 86 616 119 q 518 30 555 53 q 439 -6 481 6 q 351 -20 396 -20 q 225 4 282 -20 q 128 71 168 28 q 66 173 88 114 q 44 301 44 232 q 68 431 44 368 q 137 543 93 494 q 243 621 182 592 q 378 651 305 651 q 504 626 447 651 q 601 559 560 602 q 663 457 641 516 q 685 329 685 398 m 512 904 q 500 871 512 885 q 472 844 488 856 q 440 820 456 831 q 415 797 423 809 q 410 772 407 785 q 437 742 414 759 q 424 735 433 738 q 407 728 416 731 q 389 723 397 725 q 376 721 380 721 q 316 756 331 740 q 305 787 301 773 q 326 813 309 801 q 361 838 342 826 q 395 864 380 851 q 410 894 410 878 q 402 926 410 917 q 380 936 395 936 q 358 925 367 936 q 349 904 349 915 q 357 885 349 896 q 313 870 340 877 q 254 860 285 863 l 246 867 q 244 881 244 873 q 257 920 244 900 q 292 954 271 939 q 343 979 314 970 q 403 989 372 989 q 453 982 432 989 q 487 963 474 975 q 506 936 500 951 q 512 904 512 921 "},"ʃ":{"x_min":-182.015625,"x_max":555.921875,"ha":393,"o":"m 321 60 q 305 -56 321 -5 q 266 -147 290 -108 q 214 -217 242 -187 q 158 -268 185 -246 q 117 -294 139 -282 q 72 -315 96 -306 q 25 -329 49 -324 q -18 -334 2 -334 q -84 -324 -54 -334 q -136 -302 -114 -315 q -170 -277 -158 -290 q -182 -260 -182 -265 q -175 -247 -182 -256 q -157 -227 -168 -238 q -133 -203 -146 -216 q -107 -180 -120 -191 q -83 -161 -94 -169 q -65 -149 -72 -153 q -38 -175 -54 -163 q -5 -196 -22 -187 q 28 -211 11 -206 q 58 -217 45 -217 q 93 -208 77 -217 q 123 -179 110 -200 q 143 -122 136 -158 q 151 -33 151 -87 q 145 83 151 19 q 132 213 140 146 q 114 348 123 280 q 96 478 105 416 q 83 595 88 541 q 78 688 78 649 q 89 795 78 749 q 120 877 101 841 q 164 939 139 912 q 216 988 189 966 q 257 1015 235 1003 q 303 1034 280 1026 q 347 1046 326 1042 q 382 1051 368 1051 q 446 1042 415 1051 q 501 1024 477 1034 q 541 1002 526 1013 q 555 985 555 992 q 549 970 555 981 q 532 947 543 960 q 510 921 522 935 q 485 895 497 907 q 462 875 473 883 q 444 865 451 867 q 417 896 432 881 q 387 921 402 910 q 357 939 372 933 q 329 946 342 946 q 298 936 313 946 q 272 907 283 927 q 254 854 261 887 q 248 777 248 822 q 253 662 248 724 q 266 534 258 600 q 284 400 275 468 q 302 270 293 333 q 315 154 310 208 q 321 60 321 99 "},"Ĉ":{"x_min":37,"x_max":726.484375,"ha":775,"o":"m 726 143 q 641 68 683 99 q 557 17 598 37 q 476 -11 516 -2 q 397 -20 436 -20 q 264 8 329 -20 q 148 90 199 36 q 67 221 98 144 q 37 397 37 299 q 70 594 37 506 q 162 745 103 682 q 299 841 220 807 q 468 875 377 875 q 541 869 505 875 q 609 854 577 864 q 669 833 642 845 q 713 806 695 821 q 713 794 716 804 q 704 770 710 784 q 689 739 698 755 q 672 707 681 722 q 655 679 663 692 q 642 662 647 667 l 598 671 q 519 758 563 731 q 421 785 474 785 q 374 777 398 785 q 325 753 349 770 q 280 708 301 736 q 243 641 259 681 q 218 547 227 601 q 209 422 209 493 q 231 273 209 335 q 290 170 254 211 q 372 111 327 130 q 461 92 417 92 q 505 96 480 92 q 559 111 529 100 q 622 141 588 122 q 691 189 655 159 q 700 180 694 186 q 710 165 705 173 q 720 152 715 158 q 726 143 724 145 m 661 962 q 643 938 653 949 q 621 922 633 927 l 431 1032 l 242 922 q 220 938 230 927 q 201 962 210 949 l 390 1183 l 473 1183 l 661 962 "},"Ɋ":{"x_min":34,"x_max":1087,"ha":926,"o":"m 404 112 q 457 122 431 112 q 507 150 483 133 q 557 191 532 168 q 606 240 581 214 l 606 669 q 572 711 591 692 q 530 743 553 730 q 481 765 506 757 q 429 773 456 773 q 348 751 389 773 q 273 688 307 730 q 218 581 239 645 q 197 432 197 518 q 215 299 197 358 q 263 198 234 240 q 330 134 293 156 q 404 112 367 112 m 606 139 q 476 19 541 59 q 331 -20 411 -20 q 223 8 276 -20 q 128 91 170 36 q 60 224 86 145 q 34 405 34 303 q 45 506 34 458 q 76 595 57 554 q 120 672 95 637 q 170 735 144 707 q 221 783 196 763 q 264 816 245 803 q 360 859 311 844 q 454 875 409 875 q 500 872 476 875 q 550 860 524 869 q 604 835 577 851 q 659 792 631 819 q 691 813 675 802 q 722 835 708 824 q 749 856 737 846 q 767 874 761 866 l 801 843 q 788 789 793 819 q 779 729 783 764 q 776 654 776 695 l 776 -66 q 778 -154 776 -119 q 788 -212 781 -190 q 809 -244 796 -235 q 845 -254 823 -254 q 874 -246 862 -254 q 895 -226 887 -238 q 908 -199 904 -213 q 913 -171 913 -185 q 906 -143 913 -158 q 915 -134 906 -140 q 939 -123 924 -129 q 973 -112 954 -118 q 1010 -102 992 -106 q 1044 -94 1028 -97 q 1069 -91 1059 -91 l 1087 -128 q 1063 -197 1087 -161 q 1001 -264 1040 -233 q 907 -314 961 -294 q 794 -334 854 -334 q 718 -321 752 -334 q 658 -284 683 -309 q 619 -222 633 -259 q 606 -133 606 -184 l 606 139 "},"Ờ":{"x_min":37,"x_max":857.4375,"ha":864,"o":"m 641 427 q 624 562 641 496 q 577 677 607 627 q 504 757 546 727 q 409 787 461 787 q 323 762 360 787 q 260 693 285 738 q 221 583 234 648 q 209 435 209 517 q 226 292 209 359 q 275 177 244 226 q 347 100 306 128 q 435 72 388 72 q 517 93 479 72 q 582 159 555 115 q 625 270 609 204 q 641 427 641 337 m 857 944 q 819 855 857 904 q 700 760 781 807 q 783 613 755 697 q 812 439 812 530 q 797 319 812 377 q 755 210 782 262 q 691 117 728 159 q 608 44 654 74 q 511 -3 563 13 q 405 -20 460 -20 q 251 15 319 -20 q 135 112 182 51 q 62 251 87 172 q 37 415 37 329 q 67 590 37 507 q 151 737 97 674 q 280 837 205 800 q 444 875 355 875 q 552 858 502 875 q 642 813 601 842 q 672 854 664 834 q 679 889 679 874 q 667 926 679 908 q 636 959 654 944 l 812 1040 q 844 998 830 1025 q 857 944 857 972 m 556 962 q 536 938 546 949 q 515 922 526 927 l 190 1080 l 197 1123 q 217 1139 202 1128 q 250 1162 232 1150 q 284 1183 268 1173 q 308 1198 301 1193 l 556 962 "},"Ω":{"x_min":44.25,"x_max":872.09375,"ha":943,"o":"m 71 0 l 44 23 q 46 66 44 39 q 52 122 49 92 q 59 180 55 151 q 68 230 63 208 l 118 230 q 129 180 124 201 q 142 143 135 158 q 159 122 149 129 q 184 115 169 115 l 323 115 q 210 217 257 167 q 133 314 163 267 q 89 408 103 362 q 75 501 75 454 q 86 590 75 545 q 120 677 98 635 q 177 754 143 718 q 257 817 212 790 q 360 859 302 844 q 486 875 417 875 q 640 849 572 875 q 756 778 708 824 q 829 665 804 731 q 855 516 855 599 q 837 417 855 465 q 785 320 819 369 q 703 221 751 271 q 592 115 654 170 l 744 115 q 767 121 758 115 q 784 141 777 127 q 800 178 792 155 q 821 233 808 200 l 872 220 q 868 170 870 200 q 861 107 865 140 q 854 46 857 75 q 847 0 850 17 l 501 0 l 501 115 q 564 206 537 166 q 611 279 591 247 q 644 340 631 312 q 666 395 657 368 q 677 450 674 422 q 681 511 681 478 q 665 625 681 573 q 621 714 649 676 q 552 772 592 751 q 463 794 512 794 q 396 780 426 794 q 342 745 366 767 q 300 694 318 723 q 272 635 283 665 q 255 574 260 604 q 250 519 250 544 q 252 454 250 483 q 261 397 254 424 q 279 341 267 369 q 311 279 292 312 q 359 206 331 247 q 427 115 388 166 l 427 0 l 71 0 "},"ȧ":{"x_min":44,"x_max":688.765625,"ha":694,"o":"m 279 98 q 306 101 291 98 q 337 112 320 104 q 375 133 354 120 q 422 169 396 147 l 422 319 q 353 306 381 312 q 306 292 325 299 q 275 278 287 286 q 255 262 264 271 q 226 224 237 244 q 216 175 216 204 q 222 137 216 152 q 238 113 228 122 q 259 101 248 105 q 279 98 270 98 m 688 76 q 629 39 660 56 q 571 8 598 21 q 520 -12 543 -5 q 486 -20 498 -20 q 443 8 460 -20 q 423 87 426 37 q 361 36 392 57 q 301 3 330 15 q 246 -14 273 -9 q 198 -20 220 -20 q 142 -10 170 -20 q 93 18 115 0 q 57 67 71 38 q 44 136 44 97 q 60 214 44 182 q 102 272 77 247 q 139 303 118 288 q 196 333 161 318 q 286 360 232 347 q 422 386 340 373 l 422 466 q 417 505 422 487 q 403 535 413 523 q 376 555 393 548 q 333 563 359 563 q 301 556 317 563 q 272 539 285 550 q 253 512 260 528 q 248 476 246 496 q 237 466 249 472 q 208 453 226 459 q 169 440 190 447 q 128 429 148 434 q 93 422 108 425 q 72 421 77 420 l 57 458 q 109 534 74 499 q 190 595 143 569 q 292 636 237 621 q 404 651 348 651 q 485 638 451 651 q 541 604 519 626 q 574 552 563 582 q 585 488 585 522 l 585 161 q 592 121 585 133 q 612 109 599 109 q 621 109 616 109 q 634 112 627 110 q 650 118 641 114 q 673 127 660 121 l 688 76 m 442 859 q 434 813 442 834 q 411 775 425 791 q 377 749 397 758 q 336 740 358 740 q 276 761 297 740 q 255 822 255 782 q 264 869 255 847 q 287 907 273 891 q 321 932 302 923 q 362 942 341 942 q 421 921 400 942 q 442 859 442 901 "},"Ö":{"x_min":37,"x_max":812,"ha":864,"o":"m 641 427 q 624 562 641 496 q 577 677 607 627 q 504 757 546 727 q 409 787 461 787 q 323 762 360 787 q 260 693 285 738 q 221 583 234 648 q 209 435 209 517 q 226 292 209 359 q 275 177 244 226 q 347 100 306 128 q 435 72 388 72 q 517 93 479 72 q 582 159 555 115 q 625 270 609 204 q 641 427 641 337 m 812 439 q 797 319 812 377 q 755 210 782 262 q 691 117 728 159 q 608 44 654 74 q 511 -3 563 13 q 405 -20 460 -20 q 251 15 319 -20 q 135 112 182 51 q 62 251 87 172 q 37 415 37 329 q 67 590 37 507 q 151 737 97 674 q 280 837 205 800 q 444 875 355 875 q 602 838 534 875 q 717 740 670 801 q 788 600 764 679 q 812 439 812 521 m 668 1050 q 660 1003 668 1024 q 637 965 651 981 q 603 939 622 949 q 562 930 583 930 q 502 951 522 930 q 481 1012 481 972 q 490 1059 481 1037 q 514 1097 499 1081 q 547 1122 528 1113 q 588 1132 566 1132 q 647 1111 626 1132 q 668 1050 668 1091 m 382 1050 q 374 1003 382 1024 q 351 965 365 981 q 318 939 337 949 q 276 930 298 930 q 216 951 237 930 q 195 1012 195 972 q 204 1059 195 1037 q 228 1097 213 1081 q 262 1122 242 1113 q 302 1132 281 1132 q 361 1111 340 1132 q 382 1050 382 1091 "},"ḏ":{"x_min":44,"x_max":773.8125,"ha":779,"o":"m 773 77 q 710 38 742 56 q 651 8 678 21 q 602 -12 623 -5 q 572 -20 581 -20 q 510 98 523 -20 q 452 44 478 66 q 401 7 426 22 q 349 -13 376 -6 q 292 -20 323 -20 q 202 2 246 -20 q 122 65 157 24 q 65 166 87 106 q 44 301 44 226 q 68 432 44 369 q 135 544 92 495 q 240 621 179 592 q 373 651 300 651 q 436 643 405 651 q 505 610 468 636 l 505 843 q 503 902 505 880 q 494 936 502 924 q 467 952 486 948 q 412 960 448 957 l 412 1006 q 546 1026 486 1014 q 642 1051 606 1039 l 668 1025 l 668 203 q 669 163 668 179 q 671 136 670 146 q 676 120 673 126 q 683 112 679 115 q 692 109 687 110 q 704 109 697 108 q 724 114 712 110 q 754 127 736 118 l 773 77 m 505 182 l 505 478 q 444 539 480 517 q 362 561 408 561 q 300 548 328 561 q 251 507 272 535 q 218 438 230 480 q 207 337 207 396 q 220 241 207 283 q 255 169 234 199 q 305 124 277 140 q 360 109 332 109 q 431 127 397 109 q 505 182 465 146 m 667 -137 q 660 -157 665 -145 q 649 -183 655 -170 q 637 -208 642 -197 q 629 -227 632 -220 l 111 -227 l 89 -205 q 96 -185 91 -197 q 107 -159 101 -173 q 118 -134 113 -146 q 127 -116 124 -122 l 645 -116 l 667 -137 "},"z":{"x_min":41.375,"x_max":607.015625,"ha":650,"o":"m 598 224 q 597 189 598 209 q 597 147 597 169 q 596 102 596 125 q 594 59 595 79 q 592 23 593 39 q 590 0 591 8 l 59 0 l 41 30 l 400 550 l 223 550 q 167 516 193 550 q 124 407 141 482 l 75 421 l 92 642 q 120 635 107 637 q 145 632 132 633 q 174 631 158 631 l 592 631 l 607 601 l 246 81 l 479 81 q 500 91 491 81 q 517 122 510 102 q 533 170 525 142 q 550 235 541 199 l 598 224 "},"Ḅ":{"x_min":20.265625,"x_max":766,"ha":835,"o":"m 766 241 q 741 136 766 183 q 672 57 717 90 q 562 7 626 25 q 415 -10 497 -10 q 378 -9 400 -10 q 330 -8 356 -9 q 275 -7 303 -7 q 219 -5 246 -6 q 83 0 155 -2 l 29 0 l 29 49 q 98 70 75 59 q 122 90 122 81 l 122 790 q 72 784 96 787 q 29 777 48 780 l 20 834 q 92 848 50 841 q 179 861 133 856 q 271 871 225 867 q 358 875 318 875 q 498 862 437 875 q 602 826 559 849 q 668 768 645 802 q 691 691 691 734 q 651 566 691 618 q 536 490 612 514 q 629 459 586 482 q 701 404 671 437 q 749 329 732 371 q 766 241 766 288 m 383 433 q 331 430 352 433 q 292 424 311 427 l 292 86 q 295 77 292 81 q 339 66 315 69 q 390 63 363 63 q 538 107 488 63 q 588 228 588 151 q 578 302 588 265 q 544 367 568 338 q 481 415 520 397 q 383 433 442 433 m 316 803 l 304 803 q 292 802 298 803 l 292 502 l 304 502 q 414 515 372 502 q 479 551 455 529 q 510 601 502 573 q 519 658 519 629 q 509 719 519 692 q 475 764 499 746 q 412 793 451 783 q 316 803 373 803 m 485 -184 q 477 -230 485 -209 q 454 -268 468 -252 q 421 -294 440 -285 q 379 -304 401 -304 q 319 -283 340 -304 q 298 -221 298 -262 q 307 -174 298 -196 q 331 -136 316 -152 q 365 -111 345 -120 q 405 -102 384 -102 q 464 -122 443 -102 q 485 -184 485 -143 "},"™":{"x_min":30.53125,"x_max":807.015625,"ha":838,"o":"m 113 547 l 113 571 q 147 581 139 576 q 156 589 156 585 l 156 819 l 86 819 q 70 807 78 819 q 51 768 63 796 l 30 774 q 32 792 31 781 q 35 815 33 803 q 38 838 36 827 q 42 855 40 848 l 341 855 l 352 847 q 350 830 351 840 q 348 809 349 820 q 345 787 347 797 q 341 769 343 776 l 320 769 q 311 805 315 791 q 296 819 308 819 l 229 819 l 229 589 q 237 581 229 585 q 271 571 245 576 l 271 547 l 113 547 m 798 830 q 782 829 792 830 q 764 824 773 827 l 767 586 q 776 578 767 582 q 807 571 786 574 l 807 547 l 660 547 l 660 571 q 690 578 679 574 q 701 586 701 582 l 698 770 l 581 547 l 553 547 l 438 770 l 436 586 q 444 578 436 582 q 473 571 453 574 l 473 547 l 357 547 l 357 571 q 385 578 376 574 q 395 586 395 582 l 397 822 q 377 828 387 827 q 359 830 367 830 l 359 855 l 457 855 q 466 851 462 855 q 477 833 471 847 l 579 636 l 683 833 q 694 851 690 848 q 703 855 698 855 l 798 855 l 798 830 "},"ặ":{"x_min":44,"x_max":688.765625,"ha":694,"o":"m 279 98 q 306 101 291 98 q 337 112 320 104 q 375 133 354 120 q 422 169 396 147 l 422 319 q 353 306 381 312 q 306 292 325 299 q 275 278 287 286 q 255 262 264 271 q 226 224 237 244 q 216 175 216 204 q 222 137 216 152 q 238 113 228 122 q 259 101 248 105 q 279 98 270 98 m 688 76 q 629 39 660 56 q 571 8 598 21 q 520 -12 543 -5 q 486 -20 498 -20 q 443 8 460 -20 q 423 87 426 37 q 361 36 392 57 q 301 3 330 15 q 246 -14 273 -9 q 198 -20 220 -20 q 142 -10 170 -20 q 93 18 115 0 q 57 67 71 38 q 44 136 44 97 q 60 214 44 182 q 102 272 77 247 q 139 303 118 288 q 196 333 161 318 q 286 360 232 347 q 422 386 340 373 l 422 466 q 417 505 422 487 q 403 535 413 523 q 376 555 393 548 q 333 563 359 563 q 301 556 317 563 q 272 539 285 550 q 253 512 260 528 q 248 476 246 496 q 237 466 249 472 q 208 453 226 459 q 169 440 190 447 q 128 429 148 434 q 93 422 108 425 q 72 421 77 420 l 57 458 q 109 534 74 499 q 190 595 143 569 q 292 636 237 621 q 404 651 348 651 q 485 638 451 651 q 541 604 519 626 q 574 552 563 582 q 585 488 585 522 l 585 161 q 592 121 585 133 q 612 109 599 109 q 621 109 616 109 q 634 112 627 110 q 650 118 641 114 q 673 127 660 121 l 688 76 m 426 -184 q 418 -230 426 -209 q 395 -268 409 -252 q 362 -294 381 -285 q 320 -304 342 -304 q 260 -283 281 -304 q 239 -221 239 -262 q 248 -174 239 -196 q 272 -136 257 -152 q 306 -111 286 -120 q 346 -102 325 -102 q 405 -122 384 -102 q 426 -184 426 -143 m 590 927 q 542 833 569 872 q 484 769 515 794 q 419 732 453 744 q 350 721 385 721 q 278 732 313 721 q 212 769 243 744 q 155 833 181 794 q 108 927 128 872 q 119 940 112 933 q 132 953 125 947 q 146 965 139 960 q 159 973 153 970 q 199 919 176 941 q 247 881 222 896 q 299 858 273 865 q 347 851 325 851 q 398 858 371 851 q 449 880 424 865 q 498 918 475 895 q 538 973 521 941 q 551 965 544 970 q 565 953 558 960 q 579 940 573 947 q 590 927 585 933 "},"Ř":{"x_min":20.265625,"x_max":843.71875,"ha":840,"o":"m 29 0 l 29 49 q 98 70 75 59 q 122 90 122 81 l 122 784 q 74 778 97 781 q 29 771 50 775 l 20 834 q 176 862 92 849 q 358 875 261 875 q 515 859 451 875 q 621 815 580 843 q 681 750 662 788 q 700 669 700 712 q 686 583 700 622 q 647 512 672 544 q 587 457 622 481 q 510 420 552 434 l 724 124 q 745 101 735 110 q 766 88 754 92 q 794 82 778 83 q 833 84 810 82 l 843 34 q 793 19 821 27 q 738 4 765 11 q 687 -5 710 -1 q 651 -10 664 -10 q 612 1 631 -10 q 584 27 594 12 l 390 397 q 376 396 383 396 l 363 396 q 328 398 346 396 q 292 404 310 400 l 292 90 q 314 70 292 82 q 385 49 336 59 l 385 0 l 29 0 m 329 803 q 310 802 320 803 q 292 802 301 802 l 292 479 q 323 475 310 475 q 352 474 337 474 q 486 520 443 474 q 529 648 529 566 q 519 708 529 679 q 487 757 510 736 q 426 790 464 778 q 329 803 387 803 m 425 939 l 333 939 l 148 1162 q 167 1186 158 1175 q 189 1204 177 1197 l 381 1076 l 569 1204 q 590 1186 580 1197 q 608 1162 600 1175 l 425 939 "},"Ň":{"x_min":29.078125,"x_max":894.59375,"ha":922,"o":"m 29 0 l 29 49 q 100 68 78 55 q 122 90 122 81 l 122 755 q 29 805 77 797 l 29 855 l 219 855 q 235 853 229 855 q 248 846 242 851 q 263 830 255 840 q 284 802 271 819 l 699 226 l 699 763 q 694 773 699 767 q 679 784 690 779 q 651 795 669 790 q 606 805 633 801 l 606 855 l 894 855 l 894 805 q 823 785 845 798 q 801 763 801 772 l 801 -20 q 696 5 735 -14 q 638 50 657 25 l 224 624 l 224 90 q 228 81 224 86 q 244 69 233 75 q 273 58 255 63 q 317 49 291 52 l 317 0 l 29 0 m 507 939 l 415 939 l 230 1162 q 249 1186 240 1175 q 271 1204 259 1197 l 463 1076 l 651 1204 q 672 1186 662 1197 q 690 1162 682 1175 l 507 939 "},"ừ":{"x_min":22.9375,"x_max":940,"ha":940,"o":"m 940 706 q 924 650 940 680 q 876 590 908 621 q 792 528 843 559 q 672 469 741 497 l 672 192 q 672 157 672 171 q 675 134 673 144 q 679 120 676 125 q 687 111 682 114 q 710 109 695 106 q 759 127 724 112 l 776 76 q 721 43 751 59 q 662 11 691 26 q 612 -11 634 -2 q 582 -20 590 -20 q 558 -15 570 -20 q 537 1 547 -11 q 520 35 528 13 q 509 92 513 57 q 433 33 466 55 q 372 0 399 11 q 321 -16 344 -12 q 276 -20 298 -20 q 214 -11 244 -20 q 159 20 183 -2 q 119 84 134 44 q 105 189 105 125 l 105 467 q 103 517 105 499 q 95 544 102 535 q 70 557 87 554 q 22 564 54 560 l 22 611 q 85 617 56 614 q 138 625 113 621 q 190 636 164 630 q 244 651 215 642 l 268 619 l 268 231 q 273 163 268 189 q 288 122 278 137 q 313 102 298 107 q 346 97 327 97 q 377 100 361 97 q 414 112 394 103 q 457 137 434 122 q 509 177 481 153 l 509 467 q 506 516 509 497 q 495 544 504 534 q 468 558 486 554 q 419 564 450 562 l 419 611 q 542 628 487 617 q 646 650 597 638 l 672 619 l 671 540 q 716 569 698 554 q 743 599 733 585 q 757 627 753 614 q 762 651 762 640 q 749 688 762 671 q 718 722 737 706 l 894 802 q 926 761 913 787 q 940 706 940 734 m 500 736 q 488 727 496 732 q 473 718 481 722 q 456 710 464 713 q 442 705 448 707 l 183 960 l 202 998 q 230 1004 209 1000 q 276 1013 251 1008 q 322 1020 300 1017 q 352 1025 344 1024 l 500 736 "},"Ợ":{"x_min":37,"x_max":857.4375,"ha":864,"o":"m 641 427 q 624 562 641 496 q 577 677 607 627 q 504 757 546 727 q 409 787 461 787 q 323 762 360 787 q 260 693 285 738 q 221 583 234 648 q 209 435 209 517 q 226 292 209 359 q 275 177 244 226 q 347 100 306 128 q 435 72 388 72 q 517 93 479 72 q 582 159 555 115 q 625 270 609 204 q 641 427 641 337 m 857 944 q 819 855 857 904 q 700 760 781 807 q 783 613 755 697 q 812 439 812 530 q 797 319 812 377 q 755 210 782 262 q 691 117 728 159 q 608 44 654 74 q 511 -3 563 13 q 405 -20 460 -20 q 251 15 319 -20 q 135 112 182 51 q 62 251 87 172 q 37 415 37 329 q 67 590 37 507 q 151 737 97 674 q 280 837 205 800 q 444 875 355 875 q 552 858 502 875 q 642 813 601 842 q 672 854 664 834 q 679 889 679 874 q 667 926 679 908 q 636 959 654 944 l 812 1040 q 844 998 830 1025 q 857 944 857 972 m 519 -184 q 510 -230 519 -209 q 487 -268 502 -252 q 454 -294 473 -285 q 413 -304 434 -304 q 352 -283 373 -304 q 332 -221 332 -262 q 341 -174 332 -196 q 364 -136 349 -152 q 398 -111 379 -120 q 438 -102 417 -102 q 498 -122 477 -102 q 519 -184 519 -143 "},"ƴ":{"x_min":-44.078125,"x_max":984.78125,"ha":705,"o":"m 316 581 q 275 574 289 578 q 255 566 261 571 q 249 553 248 561 q 255 535 250 546 l 392 194 l 545 615 q 617 761 577 704 q 697 849 656 817 q 777 893 737 881 q 850 905 817 905 q 894 900 870 905 q 938 888 918 895 q 971 873 958 881 q 984 859 984 865 q 974 838 984 854 q 948 801 963 821 q 915 763 933 782 q 885 736 898 744 q 835 759 859 753 q 796 766 811 766 q 710 730 746 766 q 644 618 673 695 l 390 -62 q 322 -196 360 -143 q 244 -279 284 -248 q 164 -321 204 -309 q 91 -334 124 -334 q 47 -329 71 -334 q 3 -318 23 -325 q -30 -303 -16 -312 q -44 -287 -44 -295 q -33 -266 -44 -282 q -7 -230 -23 -249 q 24 -192 7 -210 q 54 -166 41 -174 q 105 -189 81 -183 q 144 -196 129 -196 q 185 -190 165 -196 q 224 -169 205 -184 q 260 -128 243 -153 q 293 -61 278 -102 l 311 -16 l 84 535 q 60 564 78 554 q 8 581 42 574 l 8 631 l 316 631 l 316 581 "},"É":{"x_min":29.15625,"x_max":697.890625,"ha":730,"o":"m 697 205 q 691 144 695 176 q 684 83 688 112 q 676 32 680 54 q 670 0 672 10 l 29 0 l 29 49 q 98 70 75 59 q 122 90 122 81 l 122 763 q 100 783 122 771 q 29 805 78 795 l 29 855 l 626 855 l 653 833 q 649 788 652 815 q 642 734 647 762 q 634 681 638 706 q 626 644 630 656 l 575 644 q 558 740 571 707 q 519 774 544 774 l 291 774 l 291 499 l 561 499 l 583 475 q 570 453 578 465 q 554 428 562 440 q 537 405 545 416 q 521 389 529 395 q 499 406 511 399 q 472 418 487 413 q 436 424 457 422 q 387 427 415 427 l 291 427 l 291 124 q 296 106 291 114 q 316 92 301 98 q 358 84 330 87 q 430 81 385 81 l 497 81 q 550 88 528 81 q 589 112 572 95 q 620 156 606 129 q 648 223 634 183 l 697 205 m 274 922 q 249 941 262 927 q 227 967 237 954 l 475 1198 q 510 1178 491 1189 q 546 1157 529 1167 q 577 1137 563 1146 q 596 1122 590 1127 l 602 1086 l 274 922 "},"ṅ":{"x_min":33,"x_max":792.21875,"ha":807,"o":"m 449 0 l 449 49 q 518 71 498 62 q 539 90 539 81 l 539 399 q 535 461 539 436 q 523 500 531 485 q 501 521 515 515 q 467 528 488 528 q 433 523 451 528 q 393 508 415 519 q 344 479 371 498 q 285 433 317 461 l 285 90 q 308 69 285 80 q 375 49 331 59 l 375 0 l 33 0 l 33 49 q 99 70 77 61 q 122 90 122 79 l 122 467 q 120 509 122 493 q 111 533 119 524 q 85 546 103 542 q 33 554 67 550 l 33 602 q 93 610 65 605 q 147 620 121 615 q 197 634 173 626 q 246 651 221 641 l 274 622 l 282 524 q 430 621 361 592 q 552 651 499 651 q 608 641 581 651 q 656 612 635 632 q 689 558 676 591 q 702 477 702 524 l 702 90 q 706 81 702 86 q 720 72 710 77 q 748 62 730 67 q 792 49 765 56 l 792 0 l 449 0 m 504 859 q 496 813 504 834 q 473 775 487 791 q 440 749 459 758 q 398 740 420 740 q 338 761 359 740 q 317 822 317 782 q 326 869 317 847 q 350 907 335 891 q 384 932 364 923 q 424 942 403 942 q 483 921 462 942 q 504 859 504 901 "},"³":{"x_min":34.140625,"x_max":436,"ha":482,"o":"m 436 575 q 420 510 436 540 q 375 457 404 480 q 306 421 346 434 q 218 408 266 408 q 176 412 199 408 q 128 424 152 416 q 79 446 104 433 q 34 476 55 459 l 53 526 q 132 486 96 499 q 203 474 167 474 q 273 498 246 474 q 300 567 300 522 q 291 612 300 594 q 269 640 283 630 q 240 654 256 650 q 208 658 224 658 l 197 658 q 189 658 193 658 q 181 657 185 658 q 169 656 176 656 l 161 699 q 223 721 201 708 q 257 748 246 734 q 270 776 268 761 q 273 802 273 790 q 260 849 273 830 q 219 869 248 869 q 196 864 207 869 q 179 851 186 859 q 170 830 172 842 q 172 805 167 818 q 149 795 162 799 q 121 786 136 791 q 91 780 106 782 q 64 776 76 777 l 47 801 q 62 839 47 818 q 103 879 76 860 q 166 910 129 897 q 246 923 202 923 q 320 913 289 923 q 371 887 351 903 q 399 851 390 871 q 408 810 408 830 q 401 778 408 794 q 382 748 395 762 q 352 722 370 733 q 312 704 334 710 q 364 690 341 701 q 403 662 387 679 q 427 622 419 644 q 436 575 436 600 "},"Ṧ":{"x_min":69.75,"x_max":656,"ha":712,"o":"m 656 255 q 646 193 656 225 q 619 130 637 161 q 573 72 601 100 q 508 24 545 45 q 423 -7 470 4 q 318 -20 376 -20 q 262 -15 294 -20 q 198 -2 231 -10 q 134 18 165 6 q 79 46 102 30 q 73 59 75 47 q 70 89 71 71 q 69 130 69 107 q 71 176 70 152 q 76 221 73 199 q 84 260 79 243 l 132 257 q 169 184 147 217 q 220 127 192 150 q 279 90 247 103 q 345 77 311 77 q 404 85 376 77 q 454 111 433 94 q 489 152 476 127 q 503 209 503 177 q 484 281 503 251 q 436 334 466 311 q 368 377 406 358 q 289 414 329 396 q 211 454 249 433 q 142 502 172 474 q 94 565 112 529 q 76 651 76 601 q 93 722 76 683 q 149 794 111 761 q 245 851 186 828 q 386 875 304 875 q 457 870 422 875 q 523 857 493 865 q 577 837 554 849 q 613 812 600 826 q 614 800 616 809 q 608 778 613 790 q 597 750 604 765 q 582 721 590 735 q 567 697 575 708 q 554 681 560 686 l 510 685 q 475 739 495 717 q 435 773 456 760 q 392 791 414 786 q 351 797 370 797 q 294 788 318 797 q 254 764 270 779 q 232 730 239 749 q 225 693 225 712 q 243 636 225 661 q 292 590 262 611 q 361 550 322 569 q 440 510 399 531 q 519 466 481 490 q 588 413 558 443 q 637 344 618 383 q 656 255 656 306 m 409 939 l 316 939 l 132 1162 q 151 1186 141 1175 q 172 1204 161 1197 l 364 1076 l 552 1204 q 574 1186 564 1197 q 592 1162 583 1175 l 409 939 m 456 1282 q 447 1235 456 1257 q 424 1197 439 1214 q 391 1172 410 1181 q 350 1162 371 1162 q 289 1183 310 1162 q 269 1245 269 1204 q 277 1292 269 1270 q 301 1330 286 1313 q 335 1355 316 1346 q 375 1364 354 1364 q 435 1344 413 1364 q 456 1282 456 1323 "},"ṗ":{"x_min":33,"x_max":733,"ha":777,"o":"m 580 289 q 566 401 580 354 q 530 477 552 447 q 479 521 508 507 q 422 536 451 536 q 398 533 410 536 q 371 522 386 530 q 335 499 356 514 q 285 460 314 484 l 285 155 q 347 121 320 134 q 393 103 373 109 q 429 95 413 97 q 462 94 445 94 q 510 106 488 94 q 547 144 531 119 q 571 205 563 169 q 580 289 580 242 m 733 339 q 721 250 733 294 q 689 167 709 207 q 642 92 669 127 q 587 33 616 58 q 527 -5 557 8 q 468 -20 496 -20 q 429 -15 449 -20 q 387 -2 409 -11 q 339 21 365 6 q 285 56 314 35 l 285 -234 q 310 -255 285 -245 q 399 -276 335 -266 l 399 -326 l 33 -326 l 33 -276 q 99 -255 77 -265 q 122 -234 122 -245 l 122 467 q 119 508 122 492 q 109 534 117 524 q 83 548 101 544 q 33 554 65 553 l 33 602 q 100 611 71 606 q 152 622 128 616 q 198 634 176 627 q 246 651 220 641 l 274 622 l 281 539 q 350 593 318 572 q 410 628 383 615 q 461 645 438 640 q 504 651 484 651 q 592 632 550 651 q 665 575 633 613 q 714 477 696 536 q 733 339 733 419 m 475 859 q 466 813 475 834 q 443 775 458 791 q 410 749 429 758 q 369 740 390 740 q 308 761 329 740 q 288 822 288 782 q 296 869 288 847 q 320 907 305 891 q 354 932 335 923 q 394 942 373 942 q 454 921 432 942 q 475 859 475 901 "},"[":{"x_min":85,"x_max":451.9375,"ha":469,"o":"m 451 -154 q 447 -170 450 -160 q 440 -191 443 -180 q 433 -211 437 -202 q 426 -227 429 -220 l 85 -227 l 85 1085 l 422 1085 l 450 1062 q 445 1043 449 1054 q 439 1020 442 1031 q 432 1000 435 1009 q 426 987 428 991 l 241 987 l 241 -129 l 422 -129 l 451 -154 "},"Ǹ":{"x_min":29.078125,"x_max":894.59375,"ha":922,"o":"m 29 0 l 29 49 q 100 68 78 55 q 122 90 122 81 l 122 755 q 29 805 77 797 l 29 855 l 219 855 q 235 853 229 855 q 248 846 242 851 q 263 830 255 840 q 284 802 271 819 l 699 226 l 699 763 q 694 773 699 767 q 679 784 690 779 q 651 795 669 790 q 606 805 633 801 l 606 855 l 894 855 l 894 805 q 823 785 845 798 q 801 763 801 772 l 801 -20 q 696 5 735 -14 q 638 50 657 25 l 224 624 l 224 90 q 228 81 224 86 q 244 69 233 75 q 273 58 255 63 q 317 49 291 52 l 317 0 l 29 0 m 591 962 q 572 938 581 949 q 550 922 562 927 l 225 1080 l 232 1123 q 252 1139 237 1128 q 285 1162 267 1150 q 320 1183 303 1173 q 343 1198 336 1193 l 591 962 "},"Ḗ":{"x_min":29.15625,"x_max":697.890625,"ha":730,"o":"m 697 205 q 691 144 695 176 q 684 83 688 112 q 676 32 680 54 q 670 0 672 10 l 29 0 l 29 49 q 98 70 75 59 q 122 90 122 81 l 122 763 q 100 783 122 771 q 29 805 78 795 l 29 855 l 626 855 l 653 833 q 649 788 652 815 q 642 734 647 762 q 634 681 638 706 q 626 644 630 656 l 575 644 q 558 740 571 707 q 519 774 544 774 l 291 774 l 291 499 l 561 499 l 583 475 q 570 453 578 465 q 554 428 562 440 q 537 405 545 416 q 521 389 529 395 q 499 406 511 399 q 472 418 487 413 q 436 424 457 422 q 387 427 415 427 l 291 427 l 291 124 q 296 106 291 114 q 316 92 301 98 q 358 84 330 87 q 430 81 385 81 l 497 81 q 550 88 528 81 q 589 112 572 95 q 620 156 606 129 q 648 223 634 183 l 697 205 m 659 1075 q 652 1055 657 1068 q 640 1029 647 1043 q 629 1004 634 1016 q 621 986 623 992 l 103 986 l 81 1007 q 88 1027 83 1015 q 99 1053 92 1039 q 110 1078 105 1066 q 119 1097 115 1090 l 637 1097 l 659 1075 m 274 1139 q 249 1158 262 1144 q 227 1184 237 1171 l 475 1415 q 510 1395 491 1406 q 546 1374 529 1384 q 577 1354 563 1363 q 596 1339 590 1344 l 602 1303 l 274 1139 "},"∏":{"x_min":28.40625,"x_max":874.28125,"ha":916,"o":"m 28 0 l 28 49 q 98 70 74 59 q 122 90 122 81 l 122 763 q 99 783 122 771 q 28 805 77 795 l 28 855 l 874 855 l 874 805 q 803 784 827 795 q 780 763 780 772 l 780 90 q 802 70 780 82 q 874 49 824 59 l 874 0 l 517 0 l 517 49 q 586 70 563 59 q 610 90 610 81 l 610 731 q 602 747 610 739 q 580 762 595 755 q 545 773 566 769 q 497 778 524 778 l 394 778 q 349 772 368 777 q 317 762 329 768 q 298 747 304 755 q 292 731 292 739 l 292 90 q 314 70 292 82 q 385 49 336 59 l 385 0 l 28 0 "},"Ḥ":{"x_min":29.078125,"x_max":907.59375,"ha":949,"o":"m 29 0 l 29 49 q 98 70 75 59 q 122 90 122 81 l 122 763 q 99 783 122 771 q 29 805 77 795 l 29 855 l 385 855 l 385 805 q 315 784 339 795 q 292 763 292 772 l 292 488 l 644 488 l 644 763 q 621 783 644 771 q 551 805 599 795 l 551 855 l 907 855 l 907 805 q 837 784 861 795 q 814 763 814 772 l 814 90 q 836 70 814 82 q 907 49 858 59 l 907 0 l 551 0 l 551 49 q 620 70 597 59 q 644 90 644 81 l 644 407 l 292 407 l 292 90 q 314 70 292 82 q 385 49 336 59 l 385 0 l 29 0 m 561 -184 q 552 -230 561 -209 q 529 -268 544 -252 q 496 -294 515 -285 q 455 -304 476 -304 q 395 -283 415 -304 q 374 -221 374 -262 q 383 -174 374 -196 q 406 -136 391 -152 q 440 -111 421 -120 q 481 -102 459 -102 q 540 -122 519 -102 q 561 -184 561 -143 "},"ḥ":{"x_min":33,"x_max":792.21875,"ha":807,"o":"m 449 0 l 449 49 q 518 71 498 62 q 539 90 539 81 l 539 388 q 534 457 539 430 q 521 499 530 483 q 497 521 511 515 q 462 528 482 528 q 381 503 423 528 q 285 433 339 479 l 285 90 q 308 69 285 80 q 375 49 331 59 l 375 0 l 33 0 l 33 49 q 99 70 77 61 q 122 90 122 79 l 122 859 q 120 904 122 888 q 110 928 118 920 q 83 941 101 937 q 33 949 65 945 l 33 996 q 101 1007 70 1002 q 156 1019 131 1013 q 206 1033 182 1025 q 255 1051 230 1040 l 285 1023 l 285 530 q 431 622 363 594 q 552 651 499 651 q 608 641 581 651 q 656 612 635 632 q 689 558 676 591 q 702 477 702 524 l 702 90 q 706 81 702 86 q 720 72 710 77 q 748 62 730 67 q 792 49 765 56 l 792 0 l 449 0 m 504 -184 q 496 -230 504 -209 q 473 -268 487 -252 q 440 -294 459 -285 q 398 -304 420 -304 q 338 -283 359 -304 q 317 -221 317 -262 q 326 -174 317 -196 q 350 -136 335 -152 q 384 -111 364 -120 q 424 -102 403 -102 q 483 -122 462 -102 q 504 -184 504 -143 "},"ˋ":{"x_min":0,"x_max":317.40625,"ha":317,"o":"m 317 736 q 305 727 313 732 q 289 718 298 722 q 273 710 281 713 q 259 705 265 707 l 0 960 l 19 998 q 47 1004 26 1000 q 92 1013 68 1008 q 139 1020 117 1017 q 169 1025 161 1024 l 317 736 "},"ğ":{"x_min":10,"x_max":716.828125,"ha":718,"o":"m 453 406 q 443 471 453 441 q 417 524 434 501 q 373 559 399 546 q 312 573 347 573 q 278 565 295 573 q 246 541 260 557 q 223 502 232 526 q 214 446 214 478 q 222 382 214 412 q 247 329 230 352 q 291 294 264 307 q 354 281 317 281 q 391 288 373 281 q 423 312 409 296 q 444 351 436 327 q 453 406 453 374 m 377 -28 q 316 -18 344 -24 q 262 -7 287 -13 q 213 -46 231 -29 q 186 -77 195 -63 q 175 -102 177 -91 q 173 -123 173 -113 q 189 -166 173 -146 q 235 -203 206 -187 q 304 -227 264 -218 q 390 -237 343 -237 q 459 -227 430 -237 q 507 -200 488 -217 q 536 -161 527 -183 q 546 -116 546 -140 q 539 -90 546 -103 q 515 -66 533 -77 q 463 -44 497 -54 q 377 -28 430 -34 m 609 434 q 585 339 609 382 q 524 265 562 296 q 434 217 485 234 q 327 200 383 200 l 320 200 q 287 161 294 176 q 280 143 280 147 q 284 131 280 136 q 304 119 288 125 q 350 107 319 113 q 434 94 381 101 q 565 70 513 84 q 648 35 617 55 q 691 -11 679 15 q 704 -71 704 -37 q 689 -134 704 -102 q 649 -196 674 -166 q 588 -250 623 -225 q 513 -294 554 -275 q 429 -323 473 -313 q 342 -334 385 -334 q 268 -329 307 -334 q 193 -315 230 -325 q 123 -291 156 -306 q 64 -256 90 -277 q 24 -209 39 -235 q 10 -150 10 -182 q 17 -115 10 -133 q 43 -78 24 -98 q 95 -34 62 -58 q 180 17 128 -11 q 103 83 103 48 q 109 103 103 90 q 130 132 116 116 q 169 169 145 149 q 226 212 192 189 q 157 241 188 223 q 104 284 126 259 q 70 341 82 309 q 58 408 58 372 q 82 502 58 457 q 147 579 106 546 q 242 631 188 612 q 354 651 295 651 q 442 638 401 651 q 515 603 482 625 q 622 625 574 610 q 697 651 670 640 l 716 625 q 710 608 714 618 q 700 587 705 598 q 690 566 695 577 q 678 547 684 556 q 631 541 655 543 q 579 537 607 538 q 601 487 593 513 q 609 434 609 462 m 596 927 q 549 833 576 872 q 491 769 522 794 q 425 732 459 744 q 357 721 392 721 q 285 732 320 721 q 219 769 250 744 q 162 833 188 794 q 115 927 135 872 q 125 940 119 933 q 139 953 132 947 q 153 965 146 960 q 166 973 160 970 q 206 919 183 941 q 254 881 229 896 q 306 858 280 865 q 354 851 332 851 q 404 858 378 851 q 456 880 431 865 q 505 918 482 895 q 545 973 528 941 q 558 965 551 970 q 572 953 565 960 q 586 940 579 947 q 596 927 592 933 "},"Ở":{"x_min":37,"x_max":857.4375,"ha":864,"o":"m 641 427 q 624 562 641 496 q 577 677 607 627 q 504 757 546 727 q 409 787 461 787 q 323 762 360 787 q 260 693 285 738 q 221 583 234 648 q 209 435 209 517 q 226 292 209 359 q 275 177 244 226 q 347 100 306 128 q 435 72 388 72 q 517 93 479 72 q 582 159 555 115 q 625 270 609 204 q 641 427 641 337 m 857 944 q 819 855 857 904 q 700 760 781 807 q 783 613 755 697 q 812 439 812 530 q 797 319 812 377 q 755 210 782 262 q 691 117 728 159 q 608 44 654 74 q 511 -3 563 13 q 405 -20 460 -20 q 251 15 319 -20 q 135 112 182 51 q 62 251 87 172 q 37 415 37 329 q 67 590 37 507 q 151 737 97 674 q 280 837 205 800 q 444 875 355 875 q 552 858 502 875 q 642 813 601 842 q 672 854 664 834 q 679 889 679 874 q 667 926 679 908 q 636 959 654 944 l 812 1040 q 844 998 830 1025 q 857 944 857 972 m 559 1121 q 547 1088 559 1102 q 519 1061 535 1073 q 486 1037 503 1048 q 462 1014 470 1026 q 457 989 454 1002 q 484 959 461 976 q 471 952 480 955 q 453 945 463 948 q 436 940 444 942 q 422 938 427 938 q 363 973 378 957 q 352 1004 348 990 q 373 1030 356 1018 q 408 1055 389 1043 q 442 1081 427 1068 q 457 1111 457 1095 q 449 1143 457 1134 q 427 1153 441 1153 q 405 1142 414 1153 q 396 1121 396 1132 q 403 1102 396 1113 q 359 1087 387 1094 q 300 1077 332 1080 l 293 1084 q 291 1098 291 1090 q 304 1137 291 1117 q 339 1171 317 1156 q 390 1196 361 1187 q 450 1206 418 1206 q 500 1199 479 1206 q 534 1180 520 1192 q 553 1153 547 1168 q 559 1121 559 1138 "},"Ṙ":{"x_min":20.265625,"x_max":843.71875,"ha":840,"o":"m 29 0 l 29 49 q 98 70 75 59 q 122 90 122 81 l 122 784 q 74 778 97 781 q 29 771 50 775 l 20 834 q 176 862 92 849 q 358 875 261 875 q 515 859 451 875 q 621 815 580 843 q 681 750 662 788 q 700 669 700 712 q 686 583 700 622 q 647 512 672 544 q 587 457 622 481 q 510 420 552 434 l 724 124 q 745 101 735 110 q 766 88 754 92 q 794 82 778 83 q 833 84 810 82 l 843 34 q 793 19 821 27 q 738 4 765 11 q 687 -5 710 -1 q 651 -10 664 -10 q 612 1 631 -10 q 584 27 594 12 l 390 397 q 376 396 383 396 l 363 396 q 328 398 346 396 q 292 404 310 400 l 292 90 q 314 70 292 82 q 385 49 336 59 l 385 0 l 29 0 m 329 803 q 310 802 320 803 q 292 802 301 802 l 292 479 q 323 475 310 475 q 352 474 337 474 q 486 520 443 474 q 529 648 529 566 q 519 708 529 679 q 487 757 510 736 q 426 790 464 778 q 329 803 387 803 m 472 1050 q 463 1003 472 1024 q 441 965 455 981 q 407 939 426 949 q 366 930 388 930 q 306 951 326 930 q 285 1012 285 972 q 294 1059 285 1037 q 317 1097 303 1081 q 351 1122 332 1113 q 392 1132 371 1132 q 451 1111 430 1132 q 472 1050 472 1091 "},"ª":{"x_min":28,"x_max":374.109375,"ha":383,"o":"m 374 543 q 313 507 342 522 q 261 492 283 492 q 244 504 252 492 q 232 549 236 516 q 166 504 197 516 q 110 492 134 492 q 82 497 97 492 q 55 510 67 501 q 35 533 43 519 q 28 570 28 548 q 35 611 28 591 q 58 648 42 631 q 98 679 73 665 q 158 700 123 693 l 230 715 l 230 723 q 228 760 230 744 q 223 787 227 776 q 209 803 218 798 q 183 809 199 809 q 163 806 173 809 q 148 797 154 803 q 139 782 142 791 q 140 760 136 773 q 127 752 140 757 q 96 743 113 747 q 63 735 79 738 q 42 733 47 732 l 35 751 q 63 794 43 774 q 108 827 83 813 q 163 848 134 840 q 221 856 192 856 q 263 850 245 856 q 293 831 281 845 q 311 794 305 817 q 318 735 318 771 l 318 602 q 320 574 318 583 q 328 561 323 566 q 339 561 331 559 q 365 570 346 562 l 374 543 m 29 397 l 29 457 l 353 457 l 353 397 l 29 397 m 230 590 l 230 679 l 195 672 q 140 644 160 663 q 121 596 121 625 q 124 575 121 583 q 132 563 127 567 q 143 556 137 558 q 154 554 149 554 q 186 561 168 554 q 230 590 203 569 "},"T":{"x_min":1.765625,"x_max":780.8125,"ha":806,"o":"m 203 0 l 203 49 q 254 62 234 55 q 287 75 275 69 q 304 87 299 82 q 309 98 309 93 l 309 774 l 136 774 q 117 766 126 774 q 98 742 108 759 q 77 698 89 725 q 51 631 66 670 l 1 649 q 6 697 3 669 q 13 754 9 724 q 21 810 17 783 q 28 855 25 837 l 755 855 l 780 833 q 777 791 780 815 q 771 739 775 766 q 763 685 767 712 q 755 638 759 659 l 704 638 q 692 694 697 669 q 683 737 688 720 q 669 764 677 754 q 646 774 660 774 l 479 774 l 479 98 q 483 88 479 94 q 500 76 488 82 q 533 62 512 69 q 585 49 554 55 l 585 0 l 203 0 "},"š":{"x_min":52.03125,"x_max":530,"ha":582,"o":"m 530 192 q 515 109 530 144 q 477 51 500 75 q 424 13 454 28 q 365 -7 395 0 q 308 -17 335 -15 q 260 -20 280 -20 q 213 -16 239 -20 q 161 -7 188 -13 q 109 7 135 -1 q 61 29 83 17 q 53 53 56 31 q 52 105 51 75 q 55 169 52 136 q 66 227 58 202 l 120 220 q 143 155 127 184 q 180 105 158 126 q 228 74 202 85 q 284 63 255 63 q 357 80 333 63 q 381 138 381 98 q 367 187 381 166 q 330 227 353 209 q 278 262 307 246 q 218 294 249 277 q 161 325 189 308 q 110 364 133 343 q 74 411 88 385 q 60 469 60 437 q 80 545 60 511 q 135 602 101 579 q 212 638 169 625 q 301 651 255 651 q 360 647 331 651 q 417 636 390 643 q 467 620 444 630 q 506 598 490 611 q 507 576 510 595 q 498 532 505 556 q 483 485 492 508 q 466 451 474 462 l 419 457 q 371 548 402 516 q 294 580 339 580 q 231 561 253 580 q 209 514 209 542 q 219 475 209 492 q 250 443 230 458 q 299 413 270 428 q 364 379 328 398 q 423 347 393 364 q 476 308 452 330 q 515 258 500 286 q 530 192 530 230 m 334 722 l 241 722 l 58 979 q 76 1007 66 993 q 97 1026 86 1020 l 288 878 l 477 1026 q 501 1007 489 1020 q 522 979 513 993 l 334 722 "},"":{"x_min":30.515625,"x_max":454.40625,"ha":485,"o":"m 454 246 q 448 229 452 239 q 441 208 445 219 q 434 187 438 197 l 429 171 l 52 171 l 30 193 l 35 210 q 42 231 38 220 q 49 252 46 242 q 56 269 53 262 l 432 269 l 454 246 m 454 432 q 448 415 452 425 q 441 394 445 405 q 434 373 438 383 q 429 358 431 364 l 52 358 l 30 379 l 35 396 q 42 417 38 406 q 49 438 46 428 q 56 455 53 448 l 432 455 l 454 432 "},"Þ":{"x_min":28.40625,"x_max":737,"ha":787,"o":"m 28 0 l 28 49 q 98 70 74 59 q 122 90 122 81 l 122 763 q 99 783 122 771 q 28 805 77 795 l 28 855 l 405 855 l 405 805 q 348 793 371 799 q 314 783 326 788 q 296 773 301 778 q 292 763 292 768 l 292 694 q 339 696 315 695 q 386 697 363 697 q 530 681 465 697 q 640 635 594 665 q 711 560 686 604 q 737 457 737 515 q 724 370 737 410 q 689 300 711 331 q 638 245 667 269 q 577 206 609 221 q 512 182 545 190 q 449 175 479 175 q 388 180 418 175 q 335 195 358 185 l 314 266 q 363 249 342 252 q 408 246 385 246 q 466 256 437 246 q 516 289 494 267 q 552 346 538 311 q 566 429 566 381 q 550 513 566 477 q 505 574 534 550 q 436 611 476 598 q 348 624 396 624 q 292 622 321 624 l 292 90 q 296 82 292 86 q 313 71 300 77 q 348 61 325 66 q 405 49 370 55 l 405 0 l 28 0 "},"j":{"x_min":-195.1875,"x_max":320,"ha":401,"o":"m 292 72 q 278 -59 292 -5 q 242 -150 264 -113 q 192 -213 220 -188 q 137 -260 165 -239 q 97 -288 119 -275 q 51 -311 74 -301 q 5 -327 27 -321 q -36 -334 -17 -334 q -91 -327 -62 -334 q -142 -310 -119 -320 q -180 -290 -165 -300 q -195 -271 -195 -279 q -180 -245 -195 -262 q -146 -211 -166 -228 q -108 -180 -127 -194 q -78 -161 -88 -166 q -52 -185 -67 -174 q -20 -202 -36 -195 q 12 -213 -3 -209 q 40 -217 27 -217 q 74 -207 58 -217 q 102 -170 90 -197 q 121 -95 114 -143 q 129 29 129 -47 l 129 439 q 128 495 129 474 q 119 527 127 516 q 93 545 111 539 q 39 554 74 550 l 39 602 q 102 612 75 606 q 152 622 129 617 q 197 635 175 628 q 246 651 219 642 l 292 651 l 292 72 m 320 855 q 311 813 320 832 q 287 780 303 794 q 251 759 272 766 q 206 752 231 752 q 170 756 187 752 q 140 770 153 760 q 120 793 127 779 q 113 827 113 807 q 121 869 113 850 q 146 901 130 888 q 182 922 161 915 q 227 930 203 930 q 262 925 245 930 q 291 912 279 921 q 312 888 304 902 q 320 855 320 874 "},"1":{"x_min":83.84375,"x_max":620.5625,"ha":703,"o":"m 104 0 l 104 56 q 193 70 157 62 q 249 86 228 77 q 279 102 270 94 q 288 117 288 109 l 288 616 q 285 658 288 644 q 275 683 283 673 q 261 690 271 687 q 230 692 250 692 q 179 687 210 691 q 103 673 148 683 l 83 728 q 130 740 102 732 q 191 759 159 749 q 256 781 222 769 q 321 804 290 793 q 378 826 352 816 q 421 844 404 836 l 451 815 l 451 117 q 458 102 451 110 q 484 86 465 94 q 536 70 503 78 q 620 56 569 62 l 620 0 l 104 0 "},"ɣ":{"x_min":8.796875,"x_max":697.0625,"ha":706,"o":"m 404 -180 q 401 -151 404 -165 q 392 -117 399 -136 q 374 -72 385 -98 q 345 -10 363 -47 q 313 -72 326 -46 q 292 -118 300 -99 q 280 -151 284 -138 q 277 -175 277 -165 q 296 -227 277 -210 q 341 -244 315 -244 q 385 -226 367 -244 q 404 -180 404 -208 m 697 581 q 664 572 676 576 q 643 562 651 567 q 631 551 636 557 q 622 535 627 544 l 436 169 l 481 78 q 516 7 502 37 q 539 -48 530 -22 q 551 -97 547 -73 q 556 -148 556 -121 q 542 -212 556 -179 q 501 -272 528 -245 q 436 -316 475 -299 q 348 -334 397 -334 q 278 -322 310 -334 q 224 -292 247 -311 q 189 -247 202 -272 q 177 -192 177 -221 q 180 -154 177 -173 q 191 -113 183 -136 q 213 -62 199 -91 q 246 6 226 -33 l 293 95 l 78 535 q 56 563 70 552 q 8 581 42 574 l 8 631 l 316 631 l 316 581 q 275 574 289 578 q 254 565 260 570 q 249 552 248 559 q 255 535 250 545 l 384 272 l 521 535 q 525 551 526 544 q 517 564 525 559 q 495 573 510 569 q 454 581 479 577 l 454 631 l 697 631 l 697 581 "},"ɩ":{"x_min":38.796875,"x_max":468.328125,"ha":454,"o":"m 468 107 q 387 44 422 68 q 325 5 352 19 q 278 -14 298 -9 q 243 -20 258 -20 q 154 22 180 -20 q 129 153 129 64 l 129 439 q 127 498 129 477 q 116 531 125 520 q 89 547 107 543 q 38 554 71 551 l 38 602 q 94 611 65 606 q 150 622 122 616 q 202 635 177 628 q 247 651 227 642 l 292 651 l 292 248 q 293 175 292 202 q 299 133 294 148 q 313 114 304 118 q 337 110 321 110 q 377 121 348 110 q 451 164 407 133 l 468 107 "},"Ǜ":{"x_min":29.078125,"x_max":889.59375,"ha":928,"o":"m 889 805 q 819 784 843 795 q 796 763 796 772 l 796 355 q 771 197 796 266 q 701 79 746 127 q 595 5 657 30 q 461 -20 534 -20 q 329 0 391 -20 q 221 58 268 18 q 148 158 175 98 q 122 301 122 218 l 122 763 q 99 783 122 771 q 29 805 77 795 l 29 855 l 385 855 l 385 805 q 315 784 339 795 q 292 763 292 772 l 292 345 q 303 230 292 280 q 339 146 314 180 q 405 95 364 112 q 503 78 445 78 q 584 99 551 78 q 638 157 617 121 q 667 240 658 193 q 677 337 677 287 l 677 763 q 654 783 677 771 q 584 805 632 795 l 584 855 l 889 855 l 889 805 m 705 1050 q 697 1003 705 1024 q 673 965 688 981 q 639 939 659 949 q 598 930 620 930 q 539 951 559 930 q 518 1012 518 972 q 527 1059 518 1037 q 550 1097 536 1081 q 584 1122 565 1113 q 624 1132 603 1132 q 684 1111 662 1132 q 705 1050 705 1091 m 419 1050 q 411 1003 419 1024 q 388 965 402 981 q 354 939 374 949 q 313 930 335 930 q 253 951 274 930 q 232 1012 232 972 q 241 1059 232 1037 q 264 1097 250 1081 q 298 1122 279 1113 q 338 1132 318 1132 q 398 1111 377 1132 q 419 1050 419 1091 m 599 1185 q 580 1161 590 1172 q 558 1144 570 1149 l 233 1303 l 240 1345 q 260 1362 245 1351 q 294 1384 276 1373 q 328 1406 311 1396 q 352 1420 344 1416 l 599 1185 "},"ǒ":{"x_min":44,"x_max":685,"ha":729,"o":"m 514 298 q 502 400 514 352 q 471 485 491 448 q 422 544 451 522 q 358 566 393 566 q 289 547 316 566 q 245 495 261 528 q 222 418 228 463 q 216 320 216 373 q 228 220 216 267 q 262 139 241 174 q 311 84 283 104 q 371 65 339 65 q 438 80 411 65 q 482 125 465 96 q 506 199 499 155 q 514 298 514 242 m 685 329 q 672 240 685 283 q 638 158 660 196 q 585 86 616 119 q 518 30 555 53 q 439 -6 481 6 q 351 -20 396 -20 q 225 4 282 -20 q 128 71 168 28 q 66 173 88 114 q 44 301 44 232 q 68 431 44 368 q 137 543 93 494 q 243 621 182 592 q 378 651 305 651 q 504 626 447 651 q 601 559 560 602 q 663 457 641 516 q 685 329 685 398 m 422 722 l 329 722 l 146 979 q 164 1007 154 993 q 185 1026 174 1020 l 377 878 l 565 1026 q 589 1007 577 1020 q 611 979 601 993 l 422 722 "},"ĉ":{"x_min":44,"x_max":605.796875,"ha":633,"o":"m 605 129 q 524 49 561 79 q 453 4 487 20 q 388 -15 419 -11 q 325 -20 357 -20 q 219 2 270 -20 q 129 65 168 24 q 67 166 90 106 q 44 301 44 226 q 71 438 44 374 q 146 548 98 501 q 262 623 195 596 q 410 651 329 651 q 460 647 432 651 q 516 636 489 643 q 566 619 543 629 q 600 597 588 609 q 598 578 601 591 q 591 547 596 564 q 581 509 587 529 q 569 472 575 490 q 556 440 563 454 q 546 420 550 426 l 501 426 q 446 529 478 493 q 359 566 413 566 q 302 552 329 566 q 253 509 274 538 q 219 433 232 480 q 207 322 207 387 q 220 225 207 268 q 258 154 234 183 q 315 109 282 125 q 384 94 348 94 q 421 96 403 94 q 459 106 438 98 q 507 130 481 115 q 569 172 533 146 l 605 129 m 576 750 q 558 723 568 737 q 537 705 548 710 l 346 856 l 157 705 q 133 723 145 710 q 111 750 121 737 l 301 1013 l 394 1013 l 576 750 "},"Ɔ":{"x_min":27,"x_max":726,"ha":770,"o":"m 726 460 q 695 264 726 352 q 610 113 664 176 q 480 14 555 49 q 315 -20 405 -20 q 186 0 240 -20 q 98 50 132 19 q 47 119 63 81 q 31 196 31 158 q 33 226 31 210 q 39 258 35 242 q 52 290 44 274 q 71 318 60 305 q 109 336 86 326 q 155 355 131 345 q 199 372 178 364 q 232 383 220 379 l 256 330 q 225 306 237 318 q 206 279 213 293 q 197 248 199 264 q 195 212 195 231 q 206 163 195 187 q 238 120 218 139 q 288 89 259 101 q 351 78 316 78 q 427 94 390 78 q 492 151 464 111 q 537 261 520 192 q 554 434 554 330 q 530 588 554 524 q 470 691 507 651 q 386 750 433 731 q 290 769 339 769 q 249 765 272 769 q 198 752 226 762 q 136 726 170 743 q 61 682 102 709 q 52 690 58 683 q 42 704 47 697 q 32 719 37 712 q 27 728 28 726 q 118 800 72 771 q 207 845 163 828 q 289 868 250 862 q 363 875 329 875 q 499 847 434 875 q 615 766 565 819 q 695 635 665 712 q 726 460 726 558 "},"ī":{"x_min":6.09375,"x_max":434.734375,"ha":417,"o":"m 43 0 l 43 49 q 110 70 88 59 q 132 90 132 81 l 132 439 q 131 495 132 474 q 122 528 130 516 q 96 545 115 540 q 43 554 78 551 l 43 602 q 153 622 101 610 q 251 651 205 634 l 295 651 l 295 90 q 315 70 295 82 q 385 49 335 59 l 385 0 l 43 0 m 434 886 q 427 866 432 879 q 416 840 422 854 q 404 815 410 826 q 396 797 399 803 l 27 797 l 6 818 q 12 838 8 826 q 23 864 17 850 q 35 889 29 877 q 44 908 40 901 l 413 908 l 434 886 "},"Ď":{"x_min":20.265625,"x_max":828,"ha":884,"o":"m 828 458 q 810 306 828 373 q 763 188 793 240 q 693 102 733 137 q 608 43 653 66 q 514 10 562 21 q 419 0 465 0 l 29 0 l 29 49 q 98 70 75 59 q 122 90 122 81 l 122 784 l 29 771 l 20 834 q 99 849 53 842 q 195 863 145 857 q 296 871 246 868 q 391 875 347 875 q 577 846 495 875 q 714 765 658 818 q 798 634 769 711 q 828 458 828 556 m 343 803 q 318 802 331 803 q 292 802 305 802 l 292 113 q 293 104 292 108 q 300 90 295 96 q 317 81 305 85 q 347 75 328 77 q 394 73 366 73 q 449 81 420 73 q 506 109 477 90 q 559 157 534 128 q 603 226 585 186 q 634 317 622 266 q 646 432 646 368 q 626 591 646 522 q 568 707 606 660 q 473 778 530 754 q 343 803 417 803 m 446 939 l 354 939 l 169 1162 q 188 1186 179 1175 q 210 1204 198 1197 l 402 1076 l 590 1204 q 611 1186 601 1197 q 629 1162 621 1175 l 446 939 "},"&":{"x_min":44,"x_max":959.375,"ha":963,"o":"m 337 766 q 346 693 337 731 q 373 615 355 655 q 426 657 405 634 q 460 702 448 679 q 478 749 473 725 q 484 794 484 772 q 461 868 484 841 q 408 896 439 896 q 376 885 390 896 q 354 858 363 875 q 341 816 345 840 q 337 766 337 792 m 388 78 q 462 89 427 78 q 530 120 498 101 q 465 186 498 151 q 400 261 432 222 q 338 343 368 301 q 283 428 309 385 q 233 342 247 385 q 220 253 220 300 q 234 172 220 206 q 273 118 249 139 q 328 87 298 97 q 388 78 358 78 m 959 507 q 941 484 951 496 q 920 459 930 471 q 900 437 910 447 q 882 421 890 427 q 827 442 856 432 q 775 454 798 452 q 793 414 789 434 q 798 368 798 393 q 777 272 798 323 q 719 172 756 221 q 747 148 733 160 q 773 126 760 137 q 845 89 808 97 q 918 90 883 82 l 928 40 q 867 16 899 28 q 806 -2 835 5 q 757 -15 778 -10 q 728 -20 736 -20 q 677 1 711 -20 q 597 59 642 22 q 481 1 544 22 q 348 -20 417 -20 q 220 -3 276 -20 q 124 45 164 13 q 64 126 85 78 q 44 238 44 175 q 89 382 44 310 q 232 526 134 454 q 196 628 209 577 q 184 727 184 678 q 205 829 184 782 q 262 910 226 875 q 347 963 298 944 q 450 983 395 983 q 538 969 501 983 q 598 932 575 955 q 633 878 622 909 q 645 816 645 848 q 627 744 645 780 q 579 673 609 707 q 512 607 550 638 q 434 550 474 575 l 413 536 q 464 459 436 498 q 521 382 491 420 q 583 310 552 345 q 647 242 615 274 q 667 291 660 267 q 675 340 675 316 q 666 391 675 368 q 642 430 657 414 q 609 454 628 446 q 571 463 590 463 l 551 486 q 562 498 554 490 q 578 513 569 505 q 595 527 586 521 q 611 537 605 534 l 938 537 l 959 507 "},"ṻ":{"x_min":22.9375,"x_max":775.453125,"ha":782,"o":"m 775 76 q 720 43 750 59 q 661 11 690 26 q 611 -11 633 -2 q 581 -20 589 -20 q 557 -15 569 -20 q 536 1 546 -11 q 519 35 527 13 q 508 92 512 57 q 432 33 466 55 q 371 0 399 11 q 321 -16 344 -12 q 277 -20 298 -20 q 214 -11 245 -20 q 159 21 183 -2 q 119 85 134 44 q 105 189 105 125 l 105 467 q 103 517 105 499 q 95 544 102 535 q 70 557 87 554 q 22 564 54 560 l 22 611 q 85 617 56 614 q 138 625 113 621 q 190 636 164 629 q 244 651 215 642 l 268 619 l 268 231 q 273 163 268 189 q 288 122 278 137 q 312 102 298 107 q 346 97 327 97 q 377 100 360 97 q 413 112 393 103 q 456 137 433 122 q 508 177 480 153 l 508 467 q 505 516 508 497 q 494 544 503 534 q 467 558 485 554 q 418 564 449 562 l 418 611 q 541 628 486 617 q 645 651 596 638 l 671 619 l 671 192 q 671 157 671 171 q 674 134 672 144 q 678 120 675 125 q 686 111 681 114 q 709 109 694 106 q 758 127 723 112 l 775 76 m 687 886 q 679 866 685 879 q 668 840 674 854 q 657 815 662 826 q 649 797 651 803 l 130 797 l 109 818 q 115 838 111 826 q 126 864 120 850 q 138 889 132 877 q 147 908 143 901 l 665 908 l 687 886 m 627 1104 q 619 1057 627 1079 q 596 1019 610 1035 q 562 993 581 1003 q 520 984 542 984 q 461 1005 481 984 q 440 1066 440 1026 q 449 1113 440 1091 q 472 1151 458 1135 q 506 1177 487 1167 q 546 1186 525 1186 q 606 1165 584 1186 q 627 1104 627 1145 m 341 1104 q 333 1057 341 1079 q 310 1019 324 1035 q 276 993 296 1003 q 235 984 257 984 q 175 1005 196 984 q 154 1066 154 1026 q 163 1113 154 1091 q 186 1151 172 1135 q 220 1177 201 1167 q 260 1186 240 1186 q 320 1165 299 1186 q 341 1104 341 1145 "},"G":{"x_min":37,"x_max":807.78125,"ha":836,"o":"m 743 805 q 743 793 746 802 q 734 769 740 783 q 718 739 728 756 q 700 708 709 723 q 682 682 691 693 q 667 665 673 670 l 624 674 q 579 729 602 707 q 532 765 557 752 q 481 784 508 778 q 426 790 455 790 q 386 783 409 790 q 339 760 363 776 q 292 716 315 743 q 250 650 268 689 q 220 556 232 610 q 209 432 209 502 q 230 276 209 341 q 286 169 251 211 q 365 107 321 127 q 458 87 410 87 q 525 93 496 87 q 579 112 555 100 l 579 318 q 576 333 579 326 q 562 347 573 340 q 529 361 551 354 q 469 374 507 367 l 469 424 l 807 424 l 807 374 q 755 349 769 365 q 742 318 742 334 l 742 114 q 647 47 691 73 q 566 6 604 21 q 494 -14 528 -8 q 429 -20 460 -20 q 331 -8 379 -20 q 240 25 283 2 q 159 82 196 47 q 94 163 121 116 q 52 267 67 209 q 37 394 37 325 q 72 596 37 507 q 172 747 108 685 q 322 842 236 809 q 510 875 409 875 q 563 870 532 875 q 626 856 594 865 q 690 834 659 847 q 743 805 721 821 "},"`":{"x_min":-11.53125,"x_max":306.5625,"ha":443,"o":"m 306 736 q 295 727 302 732 q 279 718 287 723 q 262 710 270 713 q 248 705 254 707 l -11 960 l 8 998 q 36 1003 15 999 q 82 1012 57 1008 q 128 1020 106 1016 q 158 1025 150 1024 l 306 736 "},"ỗ":{"x_min":44,"x_max":685,"ha":729,"o":"m 514 298 q 502 400 514 352 q 471 485 491 448 q 422 544 451 522 q 358 566 393 566 q 289 547 316 566 q 245 495 261 528 q 222 418 228 463 q 216 320 216 373 q 228 220 216 267 q 262 139 241 174 q 311 84 283 104 q 371 65 339 65 q 438 80 411 65 q 482 125 465 96 q 506 199 499 155 q 514 298 514 242 m 685 329 q 672 240 685 283 q 638 158 660 196 q 585 86 616 119 q 518 30 555 53 q 439 -6 481 6 q 351 -20 396 -20 q 225 4 282 -20 q 128 71 168 28 q 66 173 88 114 q 44 301 44 232 q 68 431 44 368 q 137 543 93 494 q 243 621 182 592 q 378 651 305 651 q 504 626 447 651 q 601 559 560 602 q 663 457 641 516 q 685 329 685 398 m 609 750 q 591 723 600 737 q 569 705 581 710 l 379 856 l 189 705 q 166 723 178 710 q 144 750 153 737 l 333 1013 l 426 1013 l 609 750 m 646 1254 q 616 1193 634 1226 q 576 1132 598 1161 q 526 1085 554 1104 q 467 1065 499 1065 q 412 1076 438 1065 q 360 1101 385 1088 q 310 1125 335 1114 q 260 1136 286 1136 q 232 1131 244 1136 q 209 1116 220 1126 q 186 1092 198 1106 q 163 1058 175 1077 l 112 1077 q 142 1138 124 1105 q 181 1200 159 1171 q 231 1248 204 1229 q 289 1267 258 1267 q 348 1256 320 1267 q 402 1232 377 1245 q 451 1207 427 1219 q 495 1196 474 1196 q 548 1215 526 1196 q 594 1274 571 1234 l 646 1254 "},"Ễ":{"x_min":29.15625,"x_max":697.890625,"ha":730,"o":"m 697 205 q 691 144 695 176 q 684 83 688 112 q 676 32 680 54 q 670 0 672 10 l 29 0 l 29 49 q 98 70 75 59 q 122 90 122 81 l 122 763 q 100 783 122 771 q 29 805 78 795 l 29 855 l 626 855 l 653 833 q 649 788 652 815 q 642 734 647 762 q 634 681 638 706 q 626 644 630 656 l 575 644 q 558 740 571 707 q 519 774 544 774 l 291 774 l 291 499 l 561 499 l 583 475 q 570 453 578 465 q 554 428 562 440 q 537 405 545 416 q 521 389 529 395 q 499 406 511 399 q 472 418 487 413 q 436 424 457 422 q 387 427 415 427 l 291 427 l 291 124 q 296 106 291 114 q 316 92 301 98 q 358 84 330 87 q 430 81 385 81 l 497 81 q 550 88 528 81 q 589 112 572 95 q 620 156 606 129 q 648 223 634 183 l 697 205 m 592 962 q 574 938 584 949 q 553 922 564 927 l 362 1032 l 173 922 q 152 938 162 927 q 132 962 142 949 l 322 1183 l 404 1183 l 592 962 m 630 1395 q 600 1334 618 1367 q 560 1273 583 1301 q 511 1225 538 1244 q 452 1206 483 1206 q 396 1217 423 1206 q 345 1241 370 1228 q 295 1265 320 1254 q 244 1276 270 1276 q 217 1271 229 1276 q 193 1256 204 1266 q 171 1232 182 1246 q 147 1199 160 1218 l 96 1218 q 126 1279 109 1246 q 166 1341 143 1312 q 215 1389 188 1369 q 274 1408 242 1408 q 333 1397 305 1408 q 386 1373 361 1386 q 435 1349 412 1360 q 480 1338 458 1338 q 533 1357 510 1338 q 578 1415 555 1375 l 630 1395 "},"ằ":{"x_min":44,"x_max":688.765625,"ha":694,"o":"m 279 98 q 306 101 291 98 q 337 112 320 104 q 375 133 354 120 q 422 169 396 147 l 422 319 q 353 306 381 312 q 306 292 325 299 q 275 278 287 286 q 255 262 264 271 q 226 224 237 244 q 216 175 216 204 q 222 137 216 152 q 238 113 228 122 q 259 101 248 105 q 279 98 270 98 m 688 76 q 629 39 660 56 q 571 8 598 21 q 520 -12 543 -5 q 486 -20 498 -20 q 443 8 460 -20 q 423 87 426 37 q 361 36 392 57 q 301 3 330 15 q 246 -14 273 -9 q 198 -20 220 -20 q 142 -10 170 -20 q 93 18 115 0 q 57 67 71 38 q 44 136 44 97 q 60 214 44 182 q 102 272 77 247 q 139 303 118 288 q 196 333 161 318 q 286 360 232 347 q 422 386 340 373 l 422 466 q 417 505 422 487 q 403 535 413 523 q 376 555 393 548 q 333 563 359 563 q 301 556 317 563 q 272 539 285 550 q 253 512 260 528 q 248 476 246 496 q 237 466 249 472 q 208 453 226 459 q 169 440 190 447 q 128 429 148 434 q 93 422 108 425 q 72 421 77 420 l 57 458 q 109 534 74 499 q 190 595 143 569 q 292 636 237 621 q 404 651 348 651 q 485 638 451 651 q 541 604 519 626 q 574 552 563 582 q 585 488 585 522 l 585 161 q 592 121 585 133 q 612 109 599 109 q 621 109 616 109 q 634 112 627 110 q 650 118 641 114 q 673 127 660 121 l 688 76 m 590 927 q 542 833 569 872 q 484 769 515 794 q 419 732 453 744 q 350 721 385 721 q 278 732 313 721 q 212 769 243 744 q 155 833 181 794 q 108 927 128 872 q 119 940 112 933 q 132 953 125 947 q 146 965 139 960 q 159 973 153 970 q 199 919 176 941 q 247 881 222 896 q 299 858 273 865 q 347 851 325 851 q 398 858 371 851 q 449 880 424 865 q 498 918 475 895 q 538 973 521 941 q 551 965 544 970 q 565 953 558 960 q 579 940 573 947 q 590 927 585 933 m 458 968 q 446 960 454 964 q 431 950 439 955 q 414 943 422 946 q 400 937 406 939 l 141 1193 l 160 1231 q 188 1237 167 1233 q 233 1245 209 1241 q 280 1253 258 1250 q 310 1257 302 1256 l 458 968 "},"ŏ":{"x_min":44,"x_max":685,"ha":729,"o":"m 514 298 q 502 400 514 352 q 471 485 491 448 q 422 544 451 522 q 358 566 393 566 q 289 547 316 566 q 245 495 261 528 q 222 418 228 463 q 216 320 216 373 q 228 220 216 267 q 262 139 241 174 q 311 84 283 104 q 371 65 339 65 q 438 80 411 65 q 482 125 465 96 q 506 199 499 155 q 514 298 514 242 m 685 329 q 672 240 685 283 q 638 158 660 196 q 585 86 616 119 q 518 30 555 53 q 439 -6 481 6 q 351 -20 396 -20 q 225 4 282 -20 q 128 71 168 28 q 66 173 88 114 q 44 301 44 232 q 68 431 44 368 q 137 543 93 494 q 243 621 182 592 q 378 651 305 651 q 504 626 447 651 q 601 559 560 602 q 663 457 641 516 q 685 329 685 398 m 619 927 q 572 833 599 872 q 514 769 545 794 q 448 732 482 744 q 380 721 415 721 q 308 732 343 721 q 242 769 273 744 q 185 833 211 794 q 138 927 158 872 q 148 940 142 933 q 162 953 155 947 q 176 965 169 960 q 189 973 183 970 q 229 919 206 941 q 277 881 252 896 q 329 858 303 865 q 377 851 355 851 q 427 858 401 851 q 479 880 454 865 q 528 918 505 895 q 568 973 551 941 q 581 965 574 970 q 595 953 588 960 q 609 940 602 947 q 619 927 615 933 "},"Ả":{"x_min":0,"x_max":858.625,"ha":873,"o":"m 506 373 l 394 688 l 293 373 l 506 373 m 265 292 l 200 95 q 217 65 193 74 q 296 49 240 55 l 296 0 l 0 0 l 0 49 q 70 66 46 57 q 102 95 95 75 l 339 818 q 374 843 355 831 q 412 864 392 855 q 452 880 432 873 q 489 893 472 887 l 774 95 q 783 78 777 86 q 798 65 788 71 q 822 56 807 60 q 858 49 836 52 l 858 0 l 521 0 l 521 49 q 593 63 574 52 q 604 95 611 73 l 535 292 l 265 292 m 562 1121 q 551 1088 562 1102 q 522 1061 539 1073 q 490 1037 506 1048 q 465 1014 473 1026 q 461 989 457 1002 q 488 959 464 976 q 474 952 483 955 q 457 945 466 948 q 439 940 448 942 q 426 938 431 938 q 366 973 381 957 q 355 1004 351 990 q 376 1030 359 1018 q 412 1055 393 1043 q 446 1081 431 1068 q 460 1111 460 1095 q 453 1143 460 1134 q 431 1153 445 1153 q 408 1142 417 1153 q 399 1121 399 1132 q 407 1102 399 1113 q 363 1087 390 1094 q 304 1077 336 1080 l 296 1084 q 294 1098 294 1090 q 308 1137 294 1117 q 342 1171 321 1156 q 393 1196 364 1187 q 453 1206 422 1206 q 503 1199 482 1206 q 537 1180 524 1192 q 556 1153 550 1168 q 562 1121 562 1138 "},"ý":{"x_min":-42.046875,"x_max":696.53125,"ha":705,"o":"m 696 581 q 663 572 676 576 q 642 563 650 568 q 629 551 634 558 q 621 535 625 545 l 395 -50 q 332 -178 366 -125 q 260 -266 298 -232 q 181 -317 222 -301 q 96 -334 139 -334 q 45 -329 70 -334 q 1 -317 20 -324 q -30 -302 -18 -310 q -42 -287 -42 -293 q -30 -264 -42 -281 q -3 -227 -18 -247 q 29 -190 12 -207 q 57 -165 46 -172 q 125 -192 91 -187 q 185 -188 160 -197 q 239 -149 210 -179 q 291 -62 267 -120 l 311 -15 l 84 535 q 59 563 76 553 q 8 581 42 574 l 8 631 l 316 631 l 316 581 q 275 574 289 578 q 255 565 261 570 q 249 553 248 560 q 255 535 250 546 l 394 194 l 527 535 q 532 552 531 545 q 528 564 533 559 q 510 573 523 569 q 474 581 497 577 l 474 631 l 696 631 l 696 581 m 328 705 q 313 709 322 705 q 296 717 305 713 q 280 726 287 721 q 269 734 273 730 l 412 1025 q 442 1021 420 1024 q 489 1014 464 1018 q 537 1005 514 1010 q 567 999 559 1001 l 587 962 l 328 705 "},"º":{"x_min":24,"x_max":366,"ha":390,"o":"m 274 664 q 268 719 274 692 q 252 766 263 745 q 225 799 241 787 q 189 812 210 812 q 155 802 169 812 q 132 775 141 792 q 120 734 124 758 q 116 681 116 710 q 122 626 116 653 q 141 580 129 600 q 167 548 152 560 q 200 537 183 537 q 257 571 240 537 q 274 664 274 606 m 31 397 l 31 457 l 359 457 l 359 397 l 31 397 m 366 680 q 351 611 366 645 q 312 551 336 577 q 254 508 287 524 q 187 492 222 492 q 119 505 149 492 q 68 541 89 518 q 35 597 47 565 q 24 666 24 628 q 37 735 24 701 q 73 796 50 770 q 129 840 97 823 q 202 857 162 857 q 269 843 239 857 q 320 805 299 829 q 354 749 342 781 q 366 680 366 716 "},"∞":{"x_min":44,"x_max":895,"ha":940,"o":"m 248 299 q 278 301 264 299 q 309 312 293 304 q 344 333 325 320 q 388 369 363 347 q 355 408 373 388 q 316 443 336 427 q 276 468 296 458 q 235 479 255 479 q 197 471 212 479 q 172 451 181 463 q 159 424 163 438 q 155 396 155 409 q 161 363 155 381 q 179 332 167 346 q 208 308 191 318 q 248 299 226 299 m 690 485 q 659 480 674 485 q 627 468 644 476 q 590 445 610 459 q 547 412 571 432 q 581 374 562 393 q 621 339 600 355 q 662 314 641 324 q 703 305 683 305 q 741 312 726 305 q 766 332 756 320 q 779 359 775 345 q 784 387 784 374 q 777 419 784 402 q 759 451 771 436 q 730 475 747 465 q 690 485 712 485 m 288 594 q 353 583 322 594 q 410 555 383 572 q 459 516 436 537 q 500 471 482 494 q 568 528 537 505 q 627 566 600 551 q 680 587 654 581 q 732 594 705 594 q 795 581 766 594 q 847 547 825 569 q 882 492 869 524 q 895 420 895 460 q 874 337 895 378 q 820 263 854 295 q 742 210 786 230 q 649 190 697 190 q 584 200 614 190 q 526 228 553 211 q 475 267 499 246 q 433 312 452 289 q 361 251 392 275 q 305 214 330 227 q 255 195 279 200 q 206 190 232 190 q 142 202 172 190 q 91 236 113 214 q 56 291 69 259 q 44 363 44 323 q 64 447 44 406 q 117 521 84 488 q 196 573 151 553 q 288 594 240 594 "},"ź":{"x_min":41.375,"x_max":607.015625,"ha":650,"o":"m 598 224 q 597 189 598 209 q 597 147 597 169 q 596 102 596 125 q 594 59 595 79 q 592 23 593 39 q 590 0 591 8 l 59 0 l 41 30 l 400 550 l 223 550 q 167 516 193 550 q 124 407 141 482 l 75 421 l 92 642 q 120 635 107 637 q 145 632 132 633 q 174 631 158 631 l 592 631 l 607 601 l 246 81 l 479 81 q 500 91 491 81 q 517 122 510 102 q 533 170 525 142 q 550 235 541 199 l 598 224 m 303 705 q 289 709 297 705 q 271 717 280 713 q 256 726 263 721 q 244 734 248 730 l 387 1025 q 418 1021 396 1024 q 465 1014 440 1018 q 512 1005 490 1010 q 542 999 535 1001 l 562 962 l 303 705 "},"Ư":{"x_min":29.078125,"x_max":1016.078125,"ha":1016,"o":"m 1016 944 q 1003 893 1016 920 q 963 839 990 867 q 895 783 936 811 q 797 728 853 755 l 797 355 q 772 197 797 266 q 702 79 747 127 q 596 5 657 30 q 461 -20 535 -20 q 330 0 392 -20 q 222 58 268 18 q 148 158 175 98 q 122 301 122 218 l 122 763 q 99 783 122 771 q 29 805 77 795 l 29 855 l 385 855 l 385 805 q 315 784 339 795 q 292 763 292 772 l 292 345 q 303 230 292 280 q 340 146 315 180 q 405 95 365 112 q 503 78 445 78 q 585 99 552 78 q 639 157 618 121 q 668 240 659 193 q 678 337 678 287 l 678 763 q 655 783 678 771 q 585 805 633 795 l 585 855 l 830 855 q 837 873 835 864 q 838 889 838 882 q 825 926 838 909 q 794 959 813 944 l 970 1040 q 1002 998 989 1025 q 1016 944 1016 972 "},"͟":{"x_min":-486.96875,"x_max":486.96875,"ha":0,"o":"m 486 -407 q 479 -427 484 -414 q 468 -453 474 -439 q 457 -478 463 -467 q 449 -497 452 -490 l -465 -497 l -486 -475 q -480 -455 -485 -467 q -469 -429 -475 -443 q -458 -404 -463 -416 q -448 -386 -452 -392 l 465 -386 l 486 -407 "},"ń":{"x_min":33,"x_max":792.21875,"ha":807,"o":"m 449 0 l 449 49 q 518 71 498 62 q 539 90 539 81 l 539 399 q 535 461 539 436 q 523 500 531 485 q 501 521 515 515 q 467 528 488 528 q 433 523 451 528 q 393 508 415 519 q 344 479 371 498 q 285 433 317 461 l 285 90 q 308 69 285 80 q 375 49 331 59 l 375 0 l 33 0 l 33 49 q 99 70 77 61 q 122 90 122 79 l 122 467 q 120 509 122 493 q 111 533 119 524 q 85 546 103 542 q 33 554 67 550 l 33 602 q 93 610 65 605 q 147 620 121 615 q 197 634 173 626 q 246 651 221 641 l 274 622 l 282 524 q 430 621 361 592 q 552 651 499 651 q 608 641 581 651 q 656 612 635 632 q 689 558 676 591 q 702 477 702 524 l 702 90 q 706 81 702 86 q 720 72 710 77 q 748 62 730 67 q 792 49 765 56 l 792 0 l 449 0 m 370 705 q 356 709 364 705 q 339 717 347 713 q 323 726 330 721 q 311 734 316 730 l 455 1025 q 485 1021 463 1024 q 532 1014 507 1018 q 579 1005 557 1010 q 609 999 602 1001 l 630 962 l 370 705 "},"Ḵ":{"x_min":29.078125,"x_max":857.640625,"ha":859,"o":"m 29 0 l 29 49 q 98 70 75 59 q 122 90 122 81 l 122 763 q 99 783 122 771 q 29 805 77 795 l 29 855 l 385 855 l 385 805 q 315 784 339 795 q 292 763 292 772 l 292 446 l 544 745 q 566 774 559 763 q 569 791 572 785 q 550 800 565 797 q 509 805 535 803 l 509 855 l 814 855 l 814 805 q 777 800 792 802 q 750 792 762 797 q 729 781 738 788 q 709 763 719 774 l 418 458 l 745 111 q 767 92 755 99 q 792 84 778 86 q 820 82 805 81 q 852 84 835 82 l 857 34 q 813 20 837 28 q 764 6 789 13 q 717 -5 740 0 q 679 -10 695 -10 q 644 -3 659 -10 q 615 19 629 2 l 292 423 l 292 90 q 314 70 292 82 q 385 49 336 59 l 385 0 l 29 0 m 731 -137 q 724 -157 729 -145 q 713 -183 719 -170 q 701 -208 707 -197 q 693 -227 696 -220 l 175 -227 l 153 -205 q 160 -185 156 -197 q 171 -159 165 -173 q 183 -134 177 -146 q 191 -116 188 -122 l 710 -116 l 731 -137 "},"":{"x_min":8.8125,"x_max":900.6875,"ha":923,"o":"m 8 49 q 81 66 54 58 q 113 94 107 75 l 368 799 q 388 826 373 814 q 422 848 403 839 q 463 864 442 858 q 500 875 484 870 l 809 94 q 837 65 816 76 q 900 49 857 54 l 900 0 l 554 0 l 554 49 q 626 63 609 53 q 636 92 643 73 l 415 661 l 215 94 q 213 77 211 84 q 226 65 216 70 q 255 56 236 60 q 301 49 273 52 l 301 0 l 8 0 l 8 49 "},"ḹ":{"x_min":-68.5,"x_max":509.34375,"ha":417,"o":"m 36 0 l 36 49 q 83 59 65 54 q 113 69 102 64 q 127 80 123 74 q 132 90 132 85 l 132 858 q 128 905 132 888 q 115 931 125 922 q 88 942 106 939 q 43 949 71 945 l 43 996 q 106 1006 76 1001 q 161 1017 135 1011 q 213 1032 187 1023 q 265 1051 239 1040 l 295 1023 l 295 90 q 299 80 295 85 q 315 69 304 75 q 345 59 326 64 q 391 49 364 54 l 391 0 l 36 0 m 306 -184 q 298 -230 306 -209 q 275 -268 289 -252 q 241 -294 261 -285 q 200 -304 222 -304 q 140 -283 161 -304 q 119 -221 119 -262 q 128 -174 119 -196 q 152 -136 137 -152 q 186 -111 166 -120 q 226 -102 205 -102 q 285 -122 264 -102 q 306 -184 306 -143 m 509 1292 q 502 1272 507 1285 q 491 1246 497 1260 q 479 1221 484 1233 q 471 1203 474 1209 l -46 1203 l -68 1224 q -61 1244 -66 1232 q -50 1270 -56 1256 q -39 1295 -44 1283 q -30 1314 -33 1307 l 487 1314 l 509 1292 "},"¤":{"x_min":68.109375,"x_max":635.546875,"ha":703,"o":"m 248 514 q 215 464 226 492 q 204 407 204 436 q 214 352 204 379 q 246 304 225 326 q 297 270 269 281 q 352 260 324 260 q 408 270 381 260 q 456 303 434 281 q 489 352 478 325 q 500 408 500 379 q 488 464 500 437 q 455 514 477 492 q 407 546 434 535 q 352 557 381 557 q 297 546 324 557 q 248 514 269 535 m 577 124 l 484 216 q 421 186 455 196 q 352 176 388 176 q 283 186 316 176 q 218 218 249 196 l 124 123 l 95 125 q 80 151 88 136 q 68 180 73 165 l 162 274 q 131 338 141 304 q 121 406 121 371 q 131 475 121 441 q 162 540 141 510 l 68 636 l 70 665 q 96 679 82 672 q 125 692 110 686 l 219 597 q 352 642 280 642 q 420 631 387 642 q 483 598 453 620 l 577 692 l 607 692 l 633 634 l 540 541 q 573 475 562 510 q 584 406 584 441 q 573 337 584 371 q 541 273 562 304 l 634 180 l 635 150 l 577 124 "},"Ǣ":{"x_min":0.234375,"x_max":1091.9375,"ha":1122,"o":"m 515 757 q 510 768 515 765 q 498 770 505 772 q 484 763 491 769 q 472 746 477 757 l 371 498 l 515 498 l 515 757 m 1091 205 q 1084 144 1088 176 q 1077 83 1081 112 q 1070 32 1073 54 q 1064 0 1066 10 l 423 0 l 423 49 q 492 70 469 58 q 515 90 515 81 l 515 423 l 342 423 l 209 95 q 216 65 200 75 q 282 49 232 55 l 282 0 l 0 0 l 0 49 q 66 65 42 55 q 98 95 89 76 l 362 748 q 364 767 367 760 q 348 782 361 775 q 314 793 336 788 q 258 805 291 799 l 258 855 l 1022 855 l 1047 833 q 1043 788 1045 815 q 1037 734 1041 762 q 1028 681 1033 706 q 1019 644 1024 656 l 968 644 q 952 740 965 707 q 912 774 939 774 l 685 774 l 685 498 l 954 498 l 977 474 q 964 452 971 464 q 947 426 956 439 q 930 402 938 413 q 915 385 922 391 q 891 402 905 395 q 865 414 878 409 q 843 420 852 418 q 831 423 833 423 l 685 423 l 685 124 q 690 106 685 114 q 710 92 695 98 q 753 84 725 87 q 825 81 780 81 l 889 81 q 943 88 921 81 q 983 112 965 95 q 1014 156 1000 129 q 1042 223 1028 183 l 1091 205 m 952 1075 q 945 1055 950 1068 q 933 1029 940 1043 q 922 1004 927 1016 q 914 986 916 992 l 396 986 l 374 1007 q 381 1027 376 1015 q 392 1053 385 1039 q 403 1078 398 1066 q 412 1097 408 1090 l 930 1097 l 952 1075 "},"Ɨ":{"x_min":21.734375,"x_max":420.296875,"ha":454,"o":"m 395 407 l 305 407 l 305 90 q 327 70 305 82 q 398 49 349 59 l 398 0 l 42 0 l 42 49 q 111 70 88 59 q 135 90 135 81 l 135 407 l 36 407 l 21 423 q 26 436 23 427 q 32 455 29 445 q 39 473 35 465 q 44 488 42 482 l 135 488 l 135 763 q 112 783 135 771 q 42 805 90 795 l 42 855 l 398 855 l 398 805 q 328 784 352 795 q 305 763 305 772 l 305 488 l 403 488 l 420 472 l 395 407 "},"Ĝ":{"x_min":37,"x_max":807.78125,"ha":836,"o":"m 743 805 q 743 793 746 802 q 734 769 740 783 q 718 739 728 756 q 700 708 709 723 q 682 682 691 693 q 667 665 673 670 l 624 674 q 579 729 602 707 q 532 765 557 752 q 481 784 508 778 q 426 790 455 790 q 386 783 409 790 q 339 760 363 776 q 292 716 315 743 q 250 650 268 689 q 220 556 232 610 q 209 432 209 502 q 230 276 209 341 q 286 169 251 211 q 365 107 321 127 q 458 87 410 87 q 525 93 496 87 q 579 112 555 100 l 579 318 q 576 333 579 326 q 562 347 573 340 q 529 361 551 354 q 469 374 507 367 l 469 424 l 807 424 l 807 374 q 755 349 769 365 q 742 318 742 334 l 742 114 q 647 47 691 73 q 566 6 604 21 q 494 -14 528 -8 q 429 -20 460 -20 q 331 -8 379 -20 q 240 25 283 2 q 159 82 196 47 q 94 163 121 116 q 52 267 67 209 q 37 394 37 325 q 72 596 37 507 q 172 747 108 685 q 322 842 236 809 q 510 875 409 875 q 563 870 532 875 q 626 856 594 865 q 690 834 659 847 q 743 805 721 821 m 674 962 q 656 938 666 949 q 635 922 647 927 l 444 1032 l 255 922 q 234 938 244 927 q 215 962 224 949 l 404 1183 l 486 1183 l 674 962 "},"p":{"x_min":33,"x_max":733,"ha":777,"o":"m 580 289 q 566 401 580 354 q 530 477 552 447 q 479 521 508 507 q 422 536 451 536 q 398 533 410 536 q 371 522 386 530 q 335 499 356 514 q 285 460 314 484 l 285 155 q 347 121 320 134 q 393 103 373 109 q 429 95 413 97 q 462 94 445 94 q 510 106 488 94 q 547 144 531 119 q 571 205 563 169 q 580 289 580 242 m 733 339 q 721 250 733 294 q 689 167 709 207 q 642 92 669 127 q 587 33 616 58 q 527 -5 557 8 q 468 -20 496 -20 q 429 -15 449 -20 q 387 -2 409 -11 q 339 21 365 6 q 285 56 314 35 l 285 -234 q 310 -255 285 -245 q 399 -276 335 -266 l 399 -326 l 33 -326 l 33 -276 q 99 -255 77 -265 q 122 -234 122 -245 l 122 467 q 119 508 122 492 q 109 534 117 524 q 83 548 101 544 q 33 554 65 553 l 33 602 q 100 611 71 606 q 152 622 128 616 q 198 634 176 627 q 246 651 220 641 l 274 622 l 281 539 q 350 593 318 572 q 410 628 383 615 q 461 645 438 640 q 504 651 484 651 q 592 632 550 651 q 665 575 633 613 q 714 477 696 536 q 733 339 733 419 "},"S":{"x_min":69.75,"x_max":656,"ha":712,"o":"m 656 255 q 646 193 656 225 q 619 130 637 161 q 573 72 601 100 q 508 24 545 45 q 423 -7 470 4 q 318 -20 376 -20 q 262 -15 294 -20 q 198 -2 231 -10 q 134 18 165 6 q 79 46 102 30 q 73 59 75 47 q 70 89 71 71 q 69 130 69 107 q 71 176 70 152 q 76 221 73 199 q 84 260 79 243 l 132 257 q 169 184 147 217 q 220 127 192 150 q 279 90 247 103 q 345 77 311 77 q 404 85 376 77 q 454 111 433 94 q 489 152 476 127 q 503 209 503 177 q 484 281 503 251 q 436 334 466 311 q 368 377 406 358 q 289 414 329 396 q 211 454 249 433 q 142 502 172 474 q 94 565 112 529 q 76 651 76 601 q 93 722 76 683 q 149 794 111 761 q 245 851 186 828 q 386 875 304 875 q 457 870 422 875 q 523 857 493 865 q 577 837 554 849 q 613 812 600 826 q 614 800 616 809 q 608 778 613 790 q 597 750 604 765 q 582 721 590 735 q 567 697 575 708 q 554 681 560 686 l 510 685 q 475 739 495 717 q 435 773 456 760 q 392 791 414 786 q 351 797 370 797 q 294 788 318 797 q 254 764 270 779 q 232 730 239 749 q 225 693 225 712 q 243 636 225 661 q 292 590 262 611 q 361 550 322 569 q 440 510 399 531 q 519 466 481 490 q 588 413 558 443 q 637 344 618 383 q 656 255 656 306 "},"ễ":{"x_min":44,"x_max":630.734375,"ha":672,"o":"m 346 570 q 291 557 314 570 q 252 522 268 545 q 227 466 236 499 q 214 393 218 433 l 440 393 q 460 398 455 393 q 466 417 466 403 q 460 464 466 437 q 441 513 455 490 q 404 553 427 537 q 346 570 381 570 m 628 372 q 610 357 621 365 q 585 342 598 349 q 557 327 571 334 q 532 317 543 321 l 212 317 q 225 227 213 268 q 258 156 237 186 q 311 110 280 127 q 382 94 342 94 q 423 96 403 94 q 466 107 443 98 q 519 132 490 116 q 588 176 548 148 q 598 167 592 174 q 609 154 604 161 q 618 141 614 147 q 624 132 622 135 q 539 55 577 85 q 468 8 502 25 q 400 -13 434 -7 q 325 -20 366 -20 q 216 3 267 -20 q 127 68 165 26 q 66 169 88 110 q 44 299 44 228 q 78 464 44 392 q 183 587 113 536 q 223 612 201 600 q 269 632 245 623 q 319 645 293 640 q 370 651 345 651 q 485 627 437 651 q 565 566 534 604 q 612 477 597 528 q 628 372 628 427 m 593 750 q 575 723 585 737 q 554 705 565 710 l 363 856 l 174 705 q 150 723 162 710 q 128 750 138 737 l 318 1013 l 411 1013 l 593 750 m 630 1254 q 600 1193 618 1226 q 560 1132 583 1161 q 511 1085 538 1104 q 452 1065 483 1065 q 396 1076 423 1065 q 345 1101 370 1088 q 295 1125 320 1114 q 244 1136 270 1136 q 217 1131 229 1136 q 193 1116 204 1126 q 171 1092 182 1106 q 147 1058 160 1077 l 96 1077 q 126 1138 109 1105 q 166 1200 143 1171 q 215 1248 188 1229 q 274 1267 242 1267 q 333 1256 305 1267 q 386 1232 361 1245 q 435 1207 412 1219 q 480 1196 458 1196 q 533 1215 510 1196 q 578 1274 555 1234 l 630 1254 "},"/":{"x_min":23.734375,"x_max":637.53125,"ha":661,"o":"m 164 -187 q 142 -198 157 -192 q 110 -209 127 -203 q 77 -219 93 -214 q 53 -227 61 -224 l 23 -205 l 499 1047 q 522 1058 507 1053 q 552 1069 537 1063 q 582 1078 568 1074 q 607 1085 597 1082 l 637 1065 l 164 -187 "},"ⱡ":{"x_min":32.5,"x_max":450.515625,"ha":482,"o":"m 421 393 l 323 393 l 323 90 q 327 80 323 85 q 343 69 332 75 q 373 59 354 64 q 419 49 391 54 l 419 0 l 63 0 l 63 49 q 111 59 92 54 q 141 69 130 64 q 155 79 151 74 q 160 90 160 85 l 160 393 l 47 393 l 32 407 q 37 423 33 413 q 45 443 41 433 q 54 464 50 454 q 61 480 58 474 l 160 480 l 160 570 l 47 570 l 32 584 q 37 600 33 590 q 45 620 41 610 q 54 641 50 631 q 61 657 58 651 l 160 657 l 160 858 q 156 906 160 889 q 143 931 153 923 q 116 943 133 939 q 70 949 98 946 l 70 996 q 133 1006 103 1001 q 189 1017 162 1011 q 241 1032 215 1023 q 293 1051 266 1040 l 323 1023 l 323 657 l 435 657 l 450 640 l 421 570 l 323 570 l 323 480 l 435 480 l 450 463 l 421 393 "},"Ọ":{"x_min":37,"x_max":812,"ha":864,"o":"m 641 427 q 624 562 641 496 q 577 677 607 627 q 504 757 546 727 q 409 787 461 787 q 323 762 360 787 q 260 693 285 738 q 221 583 234 648 q 209 435 209 517 q 226 292 209 359 q 275 177 244 226 q 347 100 306 128 q 435 72 388 72 q 517 93 479 72 q 582 159 555 115 q 625 270 609 204 q 641 427 641 337 m 812 439 q 797 319 812 377 q 755 210 782 262 q 691 117 728 159 q 608 44 654 74 q 511 -3 563 13 q 405 -20 460 -20 q 251 15 319 -20 q 135 112 182 51 q 62 251 87 172 q 37 415 37 329 q 67 590 37 507 q 151 737 97 674 q 280 837 205 800 q 444 875 355 875 q 602 838 534 875 q 717 740 670 801 q 788 600 764 679 q 812 439 812 521 m 525 -184 q 517 -230 525 -209 q 494 -268 508 -252 q 461 -294 480 -285 q 419 -304 441 -304 q 359 -283 380 -304 q 338 -221 338 -262 q 347 -174 338 -196 q 371 -136 356 -152 q 405 -111 385 -120 q 445 -102 424 -102 q 504 -122 483 -102 q 525 -184 525 -143 "},"̨":{"x_min":-508,"x_max":-184.875,"ha":0,"o":"m -184 -203 q -224 -238 -201 -221 q -274 -270 -247 -256 q -329 -292 -300 -284 q -387 -301 -358 -301 q -427 -296 -406 -301 q -466 -280 -448 -291 q -496 -250 -484 -269 q -508 -202 -508 -231 q -453 -82 -508 -141 q -288 29 -399 -23 l -233 16 q -290 -37 -268 -13 q -325 -81 -313 -61 q -343 -120 -338 -102 q -349 -154 -349 -137 q -333 -191 -349 -179 q -296 -203 -317 -203 q -256 -193 -279 -203 q -205 -157 -234 -183 l -184 -203 "},"̋":{"x_min":-507.984375,"x_max":-50.1875,"ha":0,"o":"m -448 705 q -477 716 -460 707 q -507 733 -494 725 l -403 1020 q -378 1016 -395 1018 q -344 1012 -362 1015 q -310 1008 -326 1010 q -287 1003 -294 1005 l -267 965 l -448 705 m -231 705 q -260 716 -242 707 q -290 733 -277 725 l -186 1020 q -161 1016 -178 1018 q -127 1012 -145 1015 q -93 1008 -109 1010 q -69 1003 -77 1005 l -50 965 l -231 705 "},"y":{"x_min":-42.046875,"x_max":696.53125,"ha":705,"o":"m 696 581 q 663 572 676 576 q 642 563 650 568 q 629 551 634 558 q 621 535 625 545 l 395 -50 q 332 -178 366 -125 q 260 -266 298 -232 q 181 -317 222 -301 q 96 -334 139 -334 q 45 -329 70 -334 q 1 -317 20 -324 q -30 -302 -18 -310 q -42 -287 -42 -293 q -30 -264 -42 -281 q -3 -227 -18 -247 q 29 -190 12 -207 q 57 -165 46 -172 q 125 -192 91 -187 q 185 -188 160 -197 q 239 -149 210 -179 q 291 -62 267 -120 l 311 -15 l 84 535 q 59 563 76 553 q 8 581 42 574 l 8 631 l 316 631 l 316 581 q 275 574 289 578 q 255 565 261 570 q 249 553 248 560 q 255 535 250 546 l 394 194 l 527 535 q 532 552 531 545 q 528 564 533 559 q 510 573 523 569 q 474 581 497 577 l 474 631 l 696 631 l 696 581 "},"Π":{"x_min":28.40625,"x_max":874.28125,"ha":916,"o":"m 28 0 l 28 49 q 98 70 74 59 q 122 90 122 81 l 122 763 q 99 783 122 771 q 28 805 77 795 l 28 855 l 874 855 l 874 805 q 803 784 827 795 q 780 763 780 772 l 780 90 q 802 70 780 82 q 874 49 824 59 l 874 0 l 517 0 l 517 49 q 586 70 563 59 q 610 90 610 81 l 610 731 q 602 747 610 739 q 580 762 595 755 q 545 773 566 769 q 497 778 524 778 l 394 778 q 349 772 368 777 q 317 762 329 768 q 298 747 304 755 q 292 731 292 739 l 292 90 q 314 70 292 82 q 385 49 336 59 l 385 0 l 28 0 "},"ˊ":{"x_min":0,"x_max":318.09375,"ha":319,"o":"m 59 705 q 44 709 52 705 q 27 717 35 713 q 11 726 18 721 q 0 734 4 730 l 143 1025 q 173 1021 151 1024 q 220 1014 195 1018 q 267 1005 245 1010 q 297 999 290 1001 l 318 962 l 59 705 "},"Ḧ":{"x_min":29.078125,"x_max":907.59375,"ha":949,"o":"m 29 0 l 29 49 q 98 70 75 59 q 122 90 122 81 l 122 763 q 99 783 122 771 q 29 805 77 795 l 29 855 l 385 855 l 385 805 q 315 784 339 795 q 292 763 292 772 l 292 488 l 644 488 l 644 763 q 621 783 644 771 q 551 805 599 795 l 551 855 l 907 855 l 907 805 q 837 784 861 795 q 814 763 814 772 l 814 90 q 836 70 814 82 q 907 49 858 59 l 907 0 l 551 0 l 551 49 q 620 70 597 59 q 644 90 644 81 l 644 407 l 292 407 l 292 90 q 314 70 292 82 q 385 49 336 59 l 385 0 l 29 0 m 704 1050 q 695 1003 704 1024 q 672 965 687 981 q 638 939 658 949 q 597 930 619 930 q 537 951 558 930 q 517 1012 517 972 q 526 1059 517 1037 q 549 1097 534 1081 q 583 1122 564 1113 q 623 1132 602 1132 q 682 1111 661 1132 q 704 1050 704 1091 m 418 1050 q 409 1003 418 1024 q 386 965 401 981 q 353 939 372 949 q 312 930 333 930 q 252 951 272 930 q 231 1012 231 972 q 240 1059 231 1037 q 263 1097 248 1081 q 297 1122 278 1113 q 337 1132 316 1132 q 397 1111 376 1132 q 418 1050 418 1091 "},"–":{"x_min":35.953125,"x_max":636.171875,"ha":671,"o":"m 636 376 q 630 357 634 368 q 621 335 626 346 q 612 314 616 324 q 604 299 607 304 l 57 299 l 35 320 q 41 338 37 328 q 50 359 45 349 q 59 380 54 370 q 67 397 63 390 l 614 397 l 636 376 "},"ë":{"x_min":44,"x_max":628,"ha":672,"o":"m 346 570 q 291 557 314 570 q 252 522 268 545 q 227 466 236 499 q 214 393 218 433 l 440 393 q 460 398 455 393 q 466 417 466 403 q 460 464 466 437 q 441 513 455 490 q 404 553 427 537 q 346 570 381 570 m 628 372 q 610 357 621 365 q 585 342 598 349 q 557 327 571 334 q 532 317 543 321 l 212 317 q 225 227 213 268 q 258 156 237 186 q 311 110 280 127 q 382 94 342 94 q 423 96 403 94 q 466 107 443 98 q 519 132 490 116 q 588 176 548 148 q 598 167 592 174 q 609 154 604 161 q 618 141 614 147 q 624 132 622 135 q 539 55 577 85 q 468 8 502 25 q 400 -13 434 -7 q 325 -20 366 -20 q 216 3 267 -20 q 127 68 165 26 q 66 169 88 110 q 44 299 44 228 q 78 464 44 392 q 183 587 113 536 q 223 612 201 600 q 269 632 245 623 q 319 645 293 640 q 370 651 345 651 q 485 627 437 651 q 565 566 534 604 q 612 477 597 528 q 628 372 628 427 m 599 859 q 591 813 599 834 q 568 775 582 791 q 534 749 553 758 q 493 740 514 740 q 433 761 453 740 q 412 822 412 782 q 421 869 412 847 q 445 907 430 891 q 478 932 459 923 q 518 942 497 942 q 578 921 556 942 q 599 859 599 901 m 313 859 q 305 813 313 834 q 282 775 296 791 q 248 749 268 758 q 207 740 229 740 q 147 761 168 740 q 126 822 126 782 q 135 869 126 847 q 159 907 144 891 q 193 932 173 923 q 232 942 212 942 q 292 921 271 942 q 313 859 313 901 "},"ƒ":{"x_min":-213.484375,"x_max":587.71875,"ha":447,"o":"m 587 985 q 574 956 587 974 q 542 921 560 938 q 505 889 523 903 q 477 869 487 874 q 412 928 443 910 q 361 947 381 947 q 323 933 340 947 q 294 888 306 919 q 277 804 283 857 q 271 674 271 752 l 271 631 l 441 631 l 465 606 q 450 584 459 597 q 432 558 441 571 q 413 536 422 546 q 397 523 404 525 q 353 539 382 531 q 271 547 323 547 l 271 66 q 257 -60 271 -7 q 221 -150 243 -112 q 172 -214 199 -188 q 118 -262 145 -241 q 77 -289 99 -276 q 32 -312 55 -302 q -13 -328 9 -322 q -56 -334 -35 -334 q -112 -326 -83 -334 q -162 -309 -140 -319 q -199 -289 -185 -299 q -213 -271 -213 -278 q -200 -248 -213 -264 q -168 -215 -187 -233 q -130 -183 -150 -198 q -96 -161 -110 -167 q -35 -204 -68 -191 q 22 -217 -3 -217 q 57 -207 41 -217 q 83 -171 72 -198 q 101 -96 95 -144 q 108 30 108 -48 l 108 547 l 27 547 l 8 571 l 61 631 l 108 631 l 108 652 q 116 759 108 712 q 140 842 125 806 q 177 906 156 878 q 223 958 198 934 q 273 997 246 980 q 326 1026 300 1015 q 378 1044 353 1038 q 423 1051 403 1051 q 483 1042 454 1051 q 535 1024 512 1034 q 573 1002 559 1013 q 587 985 587 991 "},"ȟ":{"x_min":33,"x_max":792.21875,"ha":807,"o":"m 449 0 l 449 49 q 518 71 498 62 q 539 90 539 81 l 539 388 q 534 457 539 430 q 521 499 530 483 q 497 521 511 515 q 462 528 482 528 q 381 503 423 528 q 285 433 339 479 l 285 90 q 308 69 285 80 q 375 49 331 59 l 375 0 l 33 0 l 33 49 q 99 70 77 61 q 122 90 122 79 l 122 859 q 120 904 122 888 q 110 928 118 920 q 83 941 101 937 q 33 949 65 945 l 33 996 q 101 1007 70 1002 q 156 1019 131 1013 q 206 1033 182 1025 q 255 1051 230 1040 l 285 1023 l 285 530 q 431 622 363 594 q 552 651 499 651 q 608 641 581 651 q 656 612 635 632 q 689 558 676 591 q 702 477 702 524 l 702 90 q 706 81 702 86 q 720 72 710 77 q 748 62 730 67 q 792 49 765 56 l 792 0 l 449 0 m 458 1108 l 365 1108 l 181 1331 q 200 1356 190 1345 q 221 1373 210 1367 l 413 1246 l 601 1373 q 622 1356 613 1367 q 640 1331 632 1345 l 458 1108 "},"Ẏ":{"x_min":-0.46875,"x_max":828.078125,"ha":851,"o":"m 233 0 l 233 49 q 284 62 264 55 q 317 75 305 69 q 334 87 329 81 q 340 98 340 93 l 340 358 q 285 470 315 412 q 223 581 254 527 q 162 681 192 635 q 108 759 132 727 q 95 773 102 766 q 77 783 89 779 q 48 789 66 787 q 2 792 30 792 l 0 841 q 44 848 19 844 q 95 854 70 851 q 142 858 120 856 q 178 861 164 861 q 216 852 197 861 q 247 829 235 844 q 299 752 272 795 q 355 660 327 709 q 410 560 383 611 q 461 460 437 509 l 619 760 q 613 788 630 778 q 544 805 596 798 l 544 855 l 828 855 l 828 805 q 759 787 781 796 q 727 760 737 777 l 510 354 l 510 98 q 514 88 510 94 q 531 76 519 82 q 564 62 543 69 q 617 49 585 55 l 617 0 l 233 0 m 518 1050 q 510 1003 518 1024 q 487 965 501 981 q 453 939 472 949 q 412 930 434 930 q 352 951 373 930 q 331 1012 331 972 q 340 1059 331 1037 q 363 1097 349 1081 q 397 1122 378 1113 q 438 1132 417 1132 q 497 1111 476 1132 q 518 1050 518 1091 "},"J":{"x_min":-180.109375,"x_max":422.59375,"ha":465,"o":"m 422 805 q 352 784 376 795 q 329 763 329 772 l 329 123 q 314 -4 329 49 q 275 -96 299 -57 q 223 -162 252 -135 q 168 -211 195 -189 q 127 -239 150 -226 q 80 -262 104 -252 q 30 -278 55 -272 q -17 -284 5 -284 q -77 -276 -47 -284 q -128 -259 -106 -269 q -165 -238 -151 -249 q -180 -219 -180 -227 q -165 -195 -180 -212 q -132 -161 -151 -178 q -94 -128 -113 -143 q -66 -110 -75 -114 q 4 -156 -28 -143 q 62 -170 36 -170 q 96 -161 79 -170 q 128 -127 114 -153 q 150 -53 142 -101 q 159 75 159 -5 l 159 763 q 154 772 159 767 q 136 782 150 776 q 97 793 122 787 q 32 805 72 799 l 32 855 l 422 855 l 422 805 "},"ŷ":{"x_min":-42.046875,"x_max":696.53125,"ha":705,"o":"m 696 581 q 663 572 676 576 q 642 563 650 568 q 629 551 634 558 q 621 535 625 545 l 395 -50 q 332 -178 366 -125 q 260 -266 298 -232 q 181 -317 222 -301 q 96 -334 139 -334 q 45 -329 70 -334 q 1 -317 20 -324 q -30 -302 -18 -310 q -42 -287 -42 -293 q -30 -264 -42 -281 q -3 -227 -18 -247 q 29 -190 12 -207 q 57 -165 46 -172 q 125 -192 91 -187 q 185 -188 160 -197 q 239 -149 210 -179 q 291 -62 267 -120 l 311 -15 l 84 535 q 59 563 76 553 q 8 581 42 574 l 8 631 l 316 631 l 316 581 q 275 574 289 578 q 255 565 261 570 q 249 553 248 560 q 255 535 250 546 l 394 194 l 527 535 q 532 552 531 545 q 528 564 533 559 q 510 573 523 569 q 474 581 497 577 l 474 631 l 696 631 l 696 581 m 598 750 q 580 723 590 737 q 559 705 571 710 l 368 856 l 179 705 q 155 723 168 710 q 134 750 143 737 l 323 1013 l 416 1013 l 598 750 "},"ŕ":{"x_min":32.5625,"x_max":597.515625,"ha":617,"o":"m 593 621 q 597 604 597 618 q 594 568 597 589 q 585 521 591 547 q 574 471 580 496 q 561 426 568 447 q 549 393 554 405 l 499 393 q 491 444 497 420 q 476 487 485 469 q 454 515 467 504 q 424 526 440 526 q 395 520 411 526 q 361 501 379 515 q 324 459 343 486 q 284 387 305 432 l 284 90 q 313 69 284 80 q 404 49 341 59 l 404 0 l 32 0 l 32 49 q 122 90 122 69 l 122 450 q 120 487 122 472 q 117 512 119 503 q 112 527 115 522 q 106 536 109 533 q 96 544 101 541 q 83 549 91 547 q 63 552 75 551 q 32 554 51 553 l 32 602 q 97 612 69 607 q 148 622 124 617 q 194 634 172 627 q 246 651 217 641 l 274 622 l 283 524 q 324 573 301 550 q 374 614 347 596 q 428 641 400 631 q 486 651 457 651 q 540 643 512 651 q 593 621 568 635 m 300 705 q 285 709 294 705 q 268 717 277 713 q 252 726 259 721 q 241 734 245 730 l 384 1025 q 414 1021 392 1024 q 461 1014 436 1018 q 509 1005 486 1010 q 539 999 531 1001 l 559 962 l 300 705 "},"ṝ":{"x_min":32.5625,"x_max":636.859375,"ha":617,"o":"m 593 621 q 597 604 597 618 q 594 568 597 589 q 585 521 591 547 q 574 471 580 496 q 561 426 568 447 q 549 393 554 405 l 499 393 q 491 444 497 420 q 476 487 485 469 q 454 515 467 504 q 424 526 440 526 q 395 520 411 526 q 361 501 379 515 q 324 459 343 486 q 284 387 305 432 l 284 90 q 313 69 284 80 q 404 49 341 59 l 404 0 l 32 0 l 32 49 q 122 90 122 69 l 122 450 q 120 487 122 472 q 117 512 119 503 q 112 527 115 522 q 106 536 109 533 q 96 544 101 541 q 83 549 91 547 q 63 552 75 551 q 32 554 51 553 l 32 602 q 97 612 69 607 q 148 622 124 617 q 194 634 172 627 q 246 651 217 641 l 274 622 l 283 524 q 324 573 301 550 q 374 614 347 596 q 428 641 400 631 q 486 651 457 651 q 540 643 512 651 q 593 621 568 635 m 293 -184 q 284 -230 293 -209 q 262 -268 276 -252 q 228 -294 247 -285 q 187 -304 209 -304 q 127 -283 147 -304 q 106 -221 106 -262 q 115 -174 106 -196 q 138 -136 124 -152 q 172 -111 153 -120 q 213 -102 192 -102 q 272 -122 251 -102 q 293 -184 293 -143 m 636 886 q 629 866 634 879 q 618 840 624 854 q 607 815 612 826 q 598 797 601 803 l 80 797 l 59 818 q 65 838 61 826 q 76 864 70 850 q 88 889 82 877 q 96 908 93 901 l 615 908 l 636 886 "},"˘":{"x_min":6.78125,"x_max":488.328125,"ha":495,"o":"m 488 927 q 440 833 467 872 q 382 769 413 794 q 317 732 351 744 q 248 721 283 721 q 176 732 211 721 q 110 769 141 744 q 53 833 80 794 q 6 927 27 872 q 17 940 10 933 q 30 953 23 947 q 45 965 37 960 q 58 973 52 970 q 98 919 75 941 q 146 881 120 896 q 197 858 171 865 q 246 851 223 851 q 296 858 269 851 q 348 880 322 865 q 397 918 374 895 q 437 973 420 941 q 450 965 443 970 q 464 953 457 960 q 478 940 472 947 q 488 927 484 933 "},"ẋ":{"x_min":8.8125,"x_max":714.84375,"ha":724,"o":"m 381 0 l 381 50 q 412 53 398 51 q 433 61 425 56 q 439 78 440 67 q 425 106 438 88 l 326 244 l 219 106 q 206 78 206 89 q 215 62 206 68 q 239 54 224 56 q 270 50 254 51 l 270 0 l 8 0 l 8 49 q 51 59 33 53 q 82 73 69 65 q 103 91 94 82 q 120 110 112 100 l 277 312 l 126 522 q 108 544 117 534 q 87 562 99 554 q 58 574 75 569 q 16 581 41 578 l 16 631 l 352 631 l 352 581 q 318 575 330 578 q 300 566 305 572 q 299 550 295 560 q 314 524 302 540 l 389 417 l 472 524 q 488 550 484 540 q 487 566 492 560 q 470 575 482 572 q 436 581 457 578 l 436 631 l 695 631 l 695 581 q 648 574 667 578 q 615 562 629 569 q 592 544 602 554 q 572 522 581 534 l 438 350 l 611 110 q 627 91 618 100 q 648 73 636 81 q 676 59 659 65 q 714 50 692 52 l 714 0 l 381 0 m 454 859 q 446 813 454 834 q 423 775 437 791 q 389 749 409 758 q 348 740 370 740 q 288 761 309 740 q 267 822 267 782 q 276 869 267 847 q 300 907 285 891 q 334 932 314 923 q 374 942 353 942 q 433 921 412 942 q 454 859 454 901 "},"D":{"x_min":20.265625,"x_max":828,"ha":884,"o":"m 828 458 q 810 306 828 373 q 763 188 793 240 q 693 102 733 137 q 608 43 653 66 q 514 10 562 21 q 419 0 465 0 l 29 0 l 29 49 q 98 70 75 59 q 122 90 122 81 l 122 784 l 29 771 l 20 834 q 99 849 53 842 q 195 863 145 857 q 296 871 246 868 q 391 875 347 875 q 577 846 495 875 q 714 765 658 818 q 798 634 769 711 q 828 458 828 556 m 343 803 q 318 802 331 803 q 292 802 305 802 l 292 113 q 293 104 292 108 q 300 90 295 96 q 317 81 305 85 q 347 75 328 77 q 394 73 366 73 q 449 81 420 73 q 506 109 477 90 q 559 157 534 128 q 603 226 585 186 q 634 317 622 266 q 646 432 646 368 q 626 591 646 522 q 568 707 606 660 q 473 778 530 754 q 343 803 417 803 "},"ĺ":{"x_min":36,"x_max":452.375,"ha":417,"o":"m 36 0 l 36 49 q 83 59 65 54 q 113 69 102 64 q 127 80 123 74 q 132 90 132 85 l 132 858 q 128 905 132 888 q 115 931 125 922 q 88 942 106 939 q 43 949 71 945 l 43 996 q 106 1006 76 1001 q 161 1017 135 1011 q 213 1032 187 1023 q 265 1051 239 1040 l 295 1023 l 295 90 q 299 80 295 85 q 315 69 304 75 q 345 59 326 64 q 391 49 364 54 l 391 0 l 36 0 m 124 1139 q 100 1158 112 1144 q 78 1184 87 1171 l 325 1415 q 360 1395 341 1406 q 396 1374 379 1384 q 427 1354 413 1363 q 446 1339 440 1344 l 452 1303 l 124 1139 "},"ł":{"x_min":24.03125,"x_max":427.046875,"ha":441,"o":"m 47 0 l 47 49 q 95 59 76 54 q 125 69 114 64 q 139 80 135 74 q 144 90 144 85 l 144 418 l 41 347 l 24 361 q 28 386 25 372 q 36 415 32 400 q 45 442 40 429 q 54 464 50 455 l 144 526 l 144 864 q 140 911 144 894 q 127 937 137 928 q 100 948 117 945 q 54 955 82 951 l 54 1002 q 117 1012 87 1007 q 173 1023 146 1017 q 225 1038 199 1029 q 277 1057 250 1046 l 307 1028 l 307 639 l 410 712 l 427 696 q 421 671 425 685 q 413 643 418 657 q 404 616 409 629 q 395 594 399 603 l 307 532 l 307 90 q 311 80 307 85 q 327 69 316 75 q 357 59 338 64 q 403 49 375 54 l 403 0 l 47 0 "},"":{"x_min":86.8125,"x_max":293,"ha":393,"o":"m 236 472 q 219 466 230 469 q 196 462 208 464 q 170 459 183 460 q 150 458 158 458 l 86 1014 q 105 1022 91 1016 q 135 1033 118 1027 q 172 1045 153 1039 q 209 1057 191 1052 q 239 1067 226 1063 q 257 1072 252 1071 l 293 1051 l 236 472 "},"$":{"x_min":52.171875,"x_max":645,"ha":702,"o":"m 193 645 q 201 606 193 623 q 226 576 210 589 q 262 551 241 562 q 309 529 283 540 l 309 740 q 259 729 281 738 q 223 708 238 721 q 200 679 208 695 q 193 645 193 662 m 503 215 q 494 262 503 241 q 470 300 486 283 q 435 330 455 316 q 390 354 414 343 l 390 93 q 432 106 412 97 q 468 130 452 115 q 493 166 484 145 q 503 215 503 187 m 390 -86 q 363 -105 377 -97 q 331 -118 348 -113 l 309 -98 l 309 -6 q 184 17 251 -4 q 59 75 118 38 q 54 89 56 77 q 52 120 52 102 q 52 160 51 138 q 54 204 53 182 q 58 245 56 225 q 64 276 61 264 l 114 274 q 149 209 130 239 q 193 156 169 179 q 245 118 217 133 q 309 95 274 102 l 309 386 q 218 419 263 402 q 136 462 172 436 q 78 523 100 487 q 56 613 56 559 q 68 676 56 642 q 110 739 80 709 q 187 792 139 770 q 309 820 236 814 l 309 909 q 324 919 318 915 q 337 927 331 924 q 350 933 343 930 q 367 939 356 936 l 390 919 l 390 822 q 460 813 425 820 q 526 797 495 807 q 580 776 556 788 q 616 752 604 764 q 615 727 620 747 q 600 682 610 706 q 579 636 591 658 q 559 605 568 614 l 512 611 q 460 689 489 658 q 390 733 430 719 l 390 500 q 480 464 435 483 q 563 416 526 445 q 622 348 599 388 q 645 251 645 308 q 630 169 645 210 q 585 92 616 128 q 506 32 555 57 q 390 -1 458 6 l 390 -86 "},"w":{"x_min":8.8125,"x_max":986.8125,"ha":996,"o":"m 986 581 q 955 572 967 576 q 936 563 944 567 q 925 553 929 559 q 918 539 921 547 l 769 40 q 752 14 765 25 q 724 -2 739 4 q 694 -13 709 -9 q 671 -20 680 -17 l 498 376 l 360 40 q 343 14 355 24 q 316 -3 330 3 q 288 -14 302 -10 q 265 -20 274 -17 l 82 539 q 60 562 78 551 q 8 581 42 574 l 8 631 l 316 631 l 316 581 q 270 573 286 578 q 247 563 254 569 q 239 551 240 557 q 241 539 239 545 l 343 219 l 505 631 l 557 631 l 727 219 l 825 539 q 827 553 828 546 q 821 564 827 559 q 802 573 815 569 q 766 581 789 577 l 766 631 l 986 631 l 986 581 "},"":{"x_min":21.625,"x_max":691.46875,"ha":707,"o":"m 691 205 q 685 144 688 176 q 677 83 681 112 q 670 32 673 54 q 663 0 666 10 l 29 0 l 29 49 q 98 70 75 59 q 122 91 122 81 l 122 364 l 36 364 l 21 380 q 26 393 22 384 q 32 412 29 402 q 38 430 35 422 q 44 445 41 439 l 122 445 l 122 763 q 99 783 122 771 q 29 805 77 795 l 29 855 l 385 855 l 385 805 q 315 784 339 795 q 292 763 292 772 l 292 445 l 492 445 l 509 429 l 485 364 l 292 364 l 292 131 q 297 109 292 119 q 317 94 303 100 q 356 84 332 87 q 418 81 380 81 l 494 81 q 547 88 525 81 q 584 112 568 95 q 614 156 601 129 q 641 223 627 183 l 691 205 "},"Ç":{"x_min":37,"x_max":726.078125,"ha":775,"o":"m 545 -155 q 526 -204 545 -180 q 475 -247 508 -227 q 398 -281 443 -267 q 300 -301 353 -295 l 275 -252 q 359 -224 334 -244 q 385 -182 385 -204 q 369 -149 385 -159 q 323 -136 353 -139 l 325 -134 q 333 -117 328 -131 q 349 -73 339 -102 q 368 -18 357 -52 q 263 8 315 -14 q 148 90 199 36 q 67 221 98 143 q 37 397 37 299 q 70 594 37 506 q 162 745 103 682 q 299 841 220 807 q 468 875 377 875 q 541 869 505 875 q 609 854 577 864 q 669 833 642 845 q 713 806 695 821 q 713 794 716 804 q 704 770 710 784 q 689 739 698 755 q 672 707 681 722 q 655 679 663 692 q 642 662 647 667 l 598 671 q 519 758 563 731 q 421 785 474 785 q 374 777 398 785 q 325 753 349 770 q 280 708 301 736 q 243 641 259 681 q 218 547 227 601 q 209 422 209 492 q 231 273 209 335 q 290 170 254 210 q 371 110 326 130 q 461 91 416 91 q 504 95 479 91 q 558 110 529 99 q 621 140 588 122 q 690 189 654 159 q 699 179 694 186 q 710 165 705 172 q 719 151 715 157 q 726 143 724 145 q 640 67 682 98 q 557 16 598 36 q 475 -11 515 -2 q 451 -15 463 -14 l 434 -60 q 516 -93 487 -69 q 545 -155 545 -116 "},"Ŝ":{"x_min":69.75,"x_max":656,"ha":712,"o":"m 656 255 q 646 193 656 225 q 619 130 637 161 q 573 72 601 100 q 508 24 545 45 q 423 -7 470 4 q 318 -20 376 -20 q 262 -15 294 -20 q 198 -2 231 -10 q 134 18 165 6 q 79 46 102 30 q 73 59 75 47 q 70 89 71 71 q 69 130 69 107 q 71 176 70 152 q 76 221 73 199 q 84 260 79 243 l 132 257 q 169 184 147 217 q 220 127 192 150 q 279 90 247 103 q 345 77 311 77 q 404 85 376 77 q 454 111 433 94 q 489 152 476 127 q 503 209 503 177 q 484 281 503 251 q 436 334 466 311 q 368 377 406 358 q 289 414 329 396 q 211 454 249 433 q 142 502 172 474 q 94 565 112 529 q 76 651 76 601 q 93 722 76 683 q 149 794 111 761 q 245 851 186 828 q 386 875 304 875 q 457 870 422 875 q 523 857 493 865 q 577 837 554 849 q 613 812 600 826 q 614 800 616 809 q 608 778 613 790 q 597 750 604 765 q 582 721 590 735 q 567 697 575 708 q 554 681 560 686 l 510 685 q 475 739 495 717 q 435 773 456 760 q 392 791 414 786 q 351 797 370 797 q 294 788 318 797 q 254 764 270 779 q 232 730 239 749 q 225 693 225 712 q 243 636 225 661 q 292 590 262 611 q 361 550 322 569 q 440 510 399 531 q 519 466 481 490 q 588 413 558 443 q 637 344 618 383 q 656 255 656 306 m 592 962 q 574 938 583 949 q 552 922 564 927 l 362 1032 l 172 922 q 151 938 161 927 q 132 962 141 949 l 321 1183 l 404 1183 l 592 962 "},"C":{"x_min":37,"x_max":726.484375,"ha":775,"o":"m 726 143 q 641 68 683 99 q 557 17 598 37 q 476 -11 516 -2 q 397 -20 436 -20 q 264 8 329 -20 q 148 90 199 36 q 67 221 98 144 q 37 397 37 299 q 70 594 37 506 q 162 745 103 682 q 299 841 220 807 q 468 875 377 875 q 541 869 505 875 q 609 854 577 864 q 669 833 642 845 q 713 806 695 821 q 713 794 716 804 q 704 770 710 784 q 689 739 698 755 q 672 707 681 722 q 655 679 663 692 q 642 662 647 667 l 598 671 q 519 758 563 731 q 421 785 474 785 q 374 777 398 785 q 325 753 349 770 q 280 708 301 736 q 243 641 259 681 q 218 547 227 601 q 209 422 209 493 q 231 273 209 335 q 290 170 254 211 q 372 111 327 130 q 461 92 417 92 q 505 96 480 92 q 559 111 529 100 q 622 141 588 122 q 691 189 655 159 q 700 180 694 186 q 710 165 705 173 q 720 152 715 158 q 726 143 724 145 "},"Ḯ":{"x_min":-16.296875,"x_max":459.15625,"ha":454,"o":"m 42 0 l 42 49 q 111 70 88 59 q 135 90 135 81 l 135 763 q 112 783 135 771 q 42 805 90 795 l 42 855 l 398 855 l 398 805 q 328 784 352 795 q 305 763 305 772 l 305 90 q 327 70 305 82 q 398 49 349 59 l 398 0 l 42 0 m 456 1050 q 448 1003 456 1024 q 425 965 439 981 q 391 939 410 949 q 349 930 371 930 q 290 951 310 930 q 269 1012 269 972 q 278 1059 269 1037 q 302 1097 287 1081 q 335 1122 316 1113 q 375 1132 354 1132 q 435 1111 413 1132 q 456 1050 456 1091 m 170 1050 q 162 1003 170 1024 q 139 965 153 981 q 105 939 125 949 q 64 930 86 930 q 4 951 25 930 q -16 1012 -16 972 q -7 1059 -16 1037 q 16 1097 1 1081 q 50 1122 30 1113 q 89 1132 69 1132 q 149 1111 128 1132 q 170 1050 170 1091 m 130 1144 q 106 1163 119 1149 q 84 1189 94 1177 l 332 1420 q 366 1401 347 1412 q 403 1379 385 1389 q 434 1359 420 1368 q 453 1344 447 1349 l 459 1309 l 130 1144 "},"̉":{"x_min":-485.15625,"x_max":-217,"ha":0,"o":"m -217 904 q -228 871 -217 885 q -257 844 -240 856 q -289 820 -273 831 q -314 797 -306 809 q -318 772 -322 785 q -291 742 -315 759 q -305 735 -296 738 q -322 728 -313 731 q -340 723 -331 725 q -353 721 -348 721 q -413 756 -398 740 q -424 787 -428 773 q -403 813 -420 801 q -367 838 -386 826 q -333 864 -348 851 q -319 894 -319 878 q -326 926 -319 917 q -348 936 -334 936 q -371 925 -362 936 q -380 904 -380 915 q -372 885 -380 896 q -416 870 -389 877 q -475 860 -443 863 l -483 867 q -485 881 -485 873 q -471 920 -485 900 q -437 954 -458 939 q -386 979 -415 970 q -326 989 -357 989 q -276 982 -297 989 q -242 963 -255 975 q -223 936 -229 951 q -217 904 -217 921 "},"ɫ":{"x_min":0.171875,"x_max":534.15625,"ha":534,"o":"m 534 617 q 504 556 521 589 q 464 495 486 524 q 414 447 441 467 q 356 428 387 428 l 349 428 l 349 90 q 353 80 349 85 q 369 69 358 75 q 399 59 380 64 q 445 49 417 54 l 445 0 l 89 0 l 89 49 q 137 59 118 54 q 167 69 156 64 q 181 79 177 74 q 186 90 186 85 l 186 492 q 167 497 176 495 q 148 499 158 499 q 120 493 133 499 q 96 479 108 488 q 74 454 85 469 q 51 421 63 440 l 0 440 q 30 501 12 467 q 70 563 47 534 q 119 611 92 592 q 177 631 146 631 q 181 631 179 631 q 186 631 183 631 l 186 858 q 182 906 186 889 q 169 931 179 922 q 142 942 159 939 q 96 949 124 946 l 96 996 q 159 1006 129 1001 q 215 1017 188 1011 q 267 1032 241 1023 q 319 1051 292 1040 l 349 1023 l 349 566 q 384 560 367 560 q 436 579 414 560 q 482 638 459 597 l 534 617 "},"Ẻ":{"x_min":29.15625,"x_max":697.890625,"ha":730,"o":"m 697 205 q 691 144 695 176 q 684 83 688 112 q 676 32 680 54 q 670 0 672 10 l 29 0 l 29 49 q 98 70 75 59 q 122 90 122 81 l 122 763 q 100 783 122 771 q 29 805 78 795 l 29 855 l 626 855 l 653 833 q 649 788 652 815 q 642 734 647 762 q 634 681 638 706 q 626 644 630 656 l 575 644 q 558 740 571 707 q 519 774 544 774 l 291 774 l 291 499 l 561 499 l 583 475 q 570 453 578 465 q 554 428 562 440 q 537 405 545 416 q 521 389 529 395 q 499 406 511 399 q 472 418 487 413 q 436 424 457 422 q 387 427 415 427 l 291 427 l 291 124 q 296 106 291 114 q 316 92 301 98 q 358 84 330 87 q 430 81 385 81 l 497 81 q 550 88 528 81 q 589 112 572 95 q 620 156 606 129 q 648 223 634 183 l 697 205 m 497 1121 q 485 1088 497 1102 q 457 1061 473 1073 q 424 1037 440 1048 q 400 1014 408 1026 q 395 989 391 1002 q 422 959 398 976 q 409 952 417 955 q 391 945 400 948 q 373 940 382 942 q 360 938 365 938 q 300 973 315 957 q 290 1004 285 990 q 310 1030 294 1018 q 346 1055 327 1043 q 380 1081 365 1068 q 395 1111 395 1095 q 387 1143 395 1134 q 365 1153 379 1153 q 342 1142 351 1153 q 334 1121 334 1132 q 341 1102 334 1113 q 297 1087 324 1094 q 238 1077 270 1080 l 231 1084 q 229 1098 229 1090 q 242 1137 229 1117 q 277 1171 255 1156 q 327 1196 298 1187 q 387 1206 356 1206 q 437 1199 416 1206 q 471 1180 458 1192 q 491 1153 484 1168 q 497 1121 497 1138 "},"È":{"x_min":29.15625,"x_max":697.890625,"ha":730,"o":"m 697 205 q 691 144 695 176 q 684 83 688 112 q 676 32 680 54 q 670 0 672 10 l 29 0 l 29 49 q 98 70 75 59 q 122 90 122 81 l 122 763 q 100 783 122 771 q 29 805 78 795 l 29 855 l 626 855 l 653 833 q 649 788 652 815 q 642 734 647 762 q 634 681 638 706 q 626 644 630 656 l 575 644 q 558 740 571 707 q 519 774 544 774 l 291 774 l 291 499 l 561 499 l 583 475 q 570 453 578 465 q 554 428 562 440 q 537 405 545 416 q 521 389 529 395 q 499 406 511 399 q 472 418 487 413 q 436 424 457 422 q 387 427 415 427 l 291 427 l 291 124 q 296 106 291 114 q 316 92 301 98 q 358 84 330 87 q 430 81 385 81 l 497 81 q 550 88 528 81 q 589 112 572 95 q 620 156 606 129 q 648 223 634 183 l 697 205 m 493 962 q 474 938 484 949 q 453 922 464 927 l 128 1080 l 134 1123 q 154 1139 139 1128 q 188 1162 170 1150 q 222 1183 206 1173 q 246 1198 238 1193 l 493 962 "},"ﬁ":{"x_min":25.296875,"x_max":856.203125,"ha":889,"o":"m 514 0 l 514 49 q 581 70 559 59 q 603 90 603 81 l 603 439 q 602 495 603 474 q 593 528 601 517 q 567 546 586 540 q 514 555 549 551 l 514 602 q 624 622 572 610 q 722 651 676 634 l 766 651 l 766 90 q 786 70 766 82 q 856 49 806 59 l 856 0 l 514 0 m 792 855 q 783 813 792 832 q 759 780 774 794 q 723 759 743 766 q 677 752 702 752 q 642 756 658 752 q 612 770 625 760 q 592 793 599 779 q 585 827 585 807 q 593 869 585 850 q 617 901 602 888 q 653 922 633 915 q 698 930 674 930 q 733 925 716 930 q 763 912 750 921 q 784 888 776 902 q 792 855 792 874 m 604 985 q 597 968 604 978 q 580 945 591 957 q 557 921 570 933 q 532 899 545 909 q 509 881 520 889 q 492 870 498 873 q 429 928 459 910 q 376 946 398 946 q 343 935 359 946 q 315 895 327 924 q 295 817 302 867 q 288 689 288 767 l 288 631 l 456 631 l 481 606 q 466 582 475 595 q 448 558 457 569 q 430 536 439 546 q 415 522 421 527 q 371 538 399 530 q 288 546 342 546 l 288 89 q 294 81 288 85 q 316 72 300 77 q 358 62 332 68 q 425 49 384 57 l 425 0 l 35 0 l 35 49 q 103 69 82 57 q 125 89 125 81 l 125 546 l 44 546 l 25 570 l 78 631 l 125 631 l 125 652 q 132 752 125 707 q 155 835 140 798 q 191 902 169 872 q 239 958 212 932 q 291 999 264 982 q 344 1028 318 1017 q 395 1045 370 1040 q 440 1051 420 1051 q 500 1042 471 1051 q 552 1024 530 1034 q 589 1002 575 1013 q 604 985 604 992 "},"":{"x_min":0,"x_max":317.40625,"ha":317,"o":"m 317 736 q 305 727 313 732 q 289 718 298 722 q 273 710 281 713 q 259 705 265 707 l 0 960 l 19 998 q 47 1004 26 1000 q 92 1013 68 1008 q 139 1020 117 1017 q 169 1025 161 1024 l 317 736 "},"X":{"x_min":16.28125,"x_max":859.3125,"ha":875,"o":"m 497 0 l 497 50 q 545 57 526 52 q 571 67 563 61 q 578 83 579 74 q 568 106 577 93 l 408 339 l 254 106 q 241 82 244 92 q 246 65 239 72 q 271 55 253 59 q 321 50 290 52 l 321 0 l 16 0 l 16 50 q 90 66 60 53 q 139 106 121 79 l 349 426 l 128 748 q 109 772 118 762 q 87 788 99 781 q 60 797 75 794 q 23 805 45 801 l 23 855 l 389 855 l 389 805 q 314 788 332 799 q 317 748 297 777 l 457 542 l 587 748 q 598 773 596 763 q 592 789 600 783 q 567 799 585 796 q 518 805 549 802 l 518 855 l 826 855 l 826 805 q 782 798 801 802 q 748 787 763 794 q 721 771 733 781 q 701 748 710 762 l 516 458 l 756 106 q 776 82 767 92 q 798 66 786 73 q 824 56 809 60 q 859 50 839 52 l 859 0 l 497 0 "},"ô":{"x_min":44,"x_max":685,"ha":729,"o":"m 514 298 q 502 400 514 352 q 471 485 491 448 q 422 544 451 522 q 358 566 393 566 q 289 547 316 566 q 245 495 261 528 q 222 418 228 463 q 216 320 216 373 q 228 220 216 267 q 262 139 241 174 q 311 84 283 104 q 371 65 339 65 q 438 80 411 65 q 482 125 465 96 q 506 199 499 155 q 514 298 514 242 m 685 329 q 672 240 685 283 q 638 158 660 196 q 585 86 616 119 q 518 30 555 53 q 439 -6 481 6 q 351 -20 396 -20 q 225 4 282 -20 q 128 71 168 28 q 66 173 88 114 q 44 301 44 232 q 68 431 44 368 q 137 543 93 494 q 243 621 182 592 q 378 651 305 651 q 504 626 447 651 q 601 559 560 602 q 663 457 641 516 q 685 329 685 398 m 609 750 q 591 723 600 737 q 569 705 581 710 l 379 856 l 189 705 q 166 723 178 710 q 144 750 153 737 l 333 1013 l 426 1013 l 609 750 "},"ṹ":{"x_min":22.9375,"x_max":775.453125,"ha":782,"o":"m 775 76 q 720 43 750 59 q 661 11 690 26 q 611 -11 633 -2 q 581 -20 589 -20 q 557 -15 569 -20 q 536 1 546 -11 q 519 35 527 13 q 508 92 512 57 q 432 33 466 55 q 371 0 399 11 q 321 -16 344 -12 q 277 -20 298 -20 q 214 -11 245 -20 q 159 21 183 -2 q 119 85 134 44 q 105 189 105 125 l 105 467 q 103 517 105 499 q 95 544 102 535 q 70 557 87 554 q 22 564 54 560 l 22 611 q 85 617 56 614 q 138 625 113 621 q 190 636 164 629 q 244 651 215 642 l 268 619 l 268 231 q 273 163 268 189 q 288 122 278 137 q 312 102 298 107 q 346 97 327 97 q 377 100 360 97 q 413 112 393 103 q 456 137 433 122 q 508 177 480 153 l 508 467 q 505 516 508 497 q 494 544 503 534 q 467 558 485 554 q 418 564 449 562 l 418 611 q 541 628 486 617 q 645 651 596 638 l 671 619 l 671 192 q 671 157 671 171 q 674 134 672 144 q 678 120 675 125 q 686 111 681 114 q 709 109 694 106 q 758 127 723 112 l 775 76 m 658 933 q 628 873 646 905 q 588 811 611 840 q 538 764 566 783 q 480 745 511 745 q 424 756 451 745 q 373 780 398 767 q 323 804 347 793 q 272 816 298 816 q 244 810 257 816 q 221 795 232 805 q 199 771 210 786 q 175 738 187 756 l 124 756 q 154 817 137 784 q 193 879 171 850 q 243 927 216 908 q 301 947 270 947 q 361 935 333 947 q 414 911 389 924 q 463 887 440 898 q 507 876 486 876 q 560 894 538 876 q 606 954 583 913 l 658 933 m 356 969 q 342 973 350 970 q 324 982 333 977 q 308 990 316 986 q 297 998 301 995 l 440 1289 q 471 1285 448 1288 q 518 1278 493 1282 q 565 1270 543 1274 q 595 1263 588 1265 l 615 1227 l 356 969 "},"":{"x_min":37,"x_max":563,"ha":607,"o":"m 101 0 l 101 49 q 186 69 160 59 q 212 90 212 79 l 212 175 q 225 241 212 214 q 259 287 239 267 q 303 324 279 307 q 347 358 327 340 q 381 397 367 375 q 395 449 395 418 q 386 503 395 480 q 362 541 377 526 q 329 563 348 556 q 290 571 310 571 q 260 564 275 571 q 234 546 246 558 q 216 517 223 534 q 209 478 209 499 q 211 456 209 469 q 219 434 213 444 q 185 421 206 427 q 142 408 165 414 q 97 399 120 403 q 58 393 75 394 l 40 413 q 37 428 38 421 q 37 441 37 436 q 60 526 37 488 q 125 592 84 564 q 221 635 166 620 q 339 651 276 651 q 436 638 394 651 q 506 605 478 626 q 548 554 534 583 q 563 490 563 524 q 549 427 563 453 q 513 382 535 402 q 468 345 492 362 q 423 310 444 328 q 387 268 401 291 q 374 212 374 245 l 374 90 q 401 69 374 80 q 483 49 428 59 l 483 0 l 101 0 "},"Ė":{"x_min":29.15625,"x_max":697.890625,"ha":730,"o":"m 697 205 q 691 144 695 176 q 684 83 688 112 q 676 32 680 54 q 670 0 672 10 l 29 0 l 29 49 q 98 70 75 59 q 122 90 122 81 l 122 763 q 100 783 122 771 q 29 805 78 795 l 29 855 l 626 855 l 653 833 q 649 788 652 815 q 642 734 647 762 q 634 681 638 706 q 626 644 630 656 l 575 644 q 558 740 571 707 q 519 774 544 774 l 291 774 l 291 499 l 561 499 l 583 475 q 570 453 578 465 q 554 428 562 440 q 537 405 545 416 q 521 389 529 395 q 499 406 511 399 q 472 418 487 413 q 436 424 457 422 q 387 427 415 427 l 291 427 l 291 124 q 296 106 291 114 q 316 92 301 98 q 358 84 330 87 q 430 81 385 81 l 497 81 q 550 88 528 81 q 589 112 572 95 q 620 156 606 129 q 648 223 634 183 l 697 205 m 456 1050 q 448 1003 456 1024 q 425 965 439 981 q 391 939 411 949 q 350 930 372 930 q 290 951 311 930 q 269 1012 269 972 q 278 1059 269 1037 q 302 1097 287 1081 q 336 1122 316 1113 q 376 1132 355 1132 q 435 1111 414 1132 q 456 1050 456 1091 "},"ấ":{"x_min":44,"x_max":688.765625,"ha":694,"o":"m 279 98 q 306 101 291 98 q 337 112 320 104 q 375 133 354 120 q 422 169 396 147 l 422 319 q 353 306 381 312 q 306 292 325 299 q 275 278 287 286 q 255 262 264 271 q 226 224 237 244 q 216 175 216 204 q 222 137 216 152 q 238 113 228 122 q 259 101 248 105 q 279 98 270 98 m 688 76 q 629 39 660 56 q 571 8 598 21 q 520 -12 543 -5 q 486 -20 498 -20 q 443 8 460 -20 q 423 87 426 37 q 361 36 392 57 q 301 3 330 15 q 246 -14 273 -9 q 198 -20 220 -20 q 142 -10 170 -20 q 93 18 115 0 q 57 67 71 38 q 44 136 44 97 q 60 214 44 182 q 102 272 77 247 q 139 303 118 288 q 196 333 161 318 q 286 360 232 347 q 422 386 340 373 l 422 466 q 417 505 422 487 q 403 535 413 523 q 376 555 393 548 q 333 563 359 563 q 301 556 317 563 q 272 539 285 550 q 253 512 260 528 q 248 476 246 496 q 237 466 249 472 q 208 453 226 459 q 169 440 190 447 q 128 429 148 434 q 93 422 108 425 q 72 421 77 420 l 57 458 q 109 534 74 499 q 190 595 143 569 q 292 636 237 621 q 404 651 348 651 q 485 638 451 651 q 541 604 519 626 q 574 552 563 582 q 585 488 585 522 l 585 161 q 592 121 585 133 q 612 109 599 109 q 621 109 616 109 q 634 112 627 110 q 650 118 641 114 q 673 127 660 121 l 688 76 m 579 750 q 561 723 571 737 q 539 705 551 710 l 349 856 l 160 705 q 136 723 148 710 q 114 750 124 737 l 303 1013 l 396 1013 l 579 750 m 308 1025 q 294 1030 302 1026 q 276 1038 285 1033 q 260 1047 267 1042 q 249 1054 253 1051 l 392 1345 q 422 1342 400 1345 q 470 1334 444 1339 q 517 1326 495 1330 q 547 1320 539 1322 l 567 1283 l 308 1025 "},"ŋ":{"x_min":33,"x_max":702,"ha":780,"o":"m 702 75 q 691 -45 702 4 q 660 -133 680 -95 q 612 -198 640 -170 q 552 -252 585 -226 q 510 -281 534 -266 q 459 -307 486 -296 q 402 -326 432 -319 q 340 -334 372 -334 q 271 -325 305 -334 q 211 -305 237 -317 q 167 -280 184 -293 q 150 -256 150 -266 q 166 -230 150 -248 q 204 -192 182 -212 q 249 -156 227 -173 q 282 -135 271 -139 q 317 -169 298 -153 q 355 -197 336 -185 q 392 -216 374 -209 q 425 -224 410 -224 q 457 -216 438 -224 q 495 -183 477 -209 q 526 -109 513 -158 q 539 24 539 -59 l 539 398 q 535 460 539 436 q 523 500 531 485 q 501 520 515 514 q 467 527 488 527 q 433 522 451 527 q 393 508 415 518 q 344 479 371 497 q 285 433 317 461 l 285 90 q 308 69 285 80 q 375 49 331 59 l 375 0 l 33 0 l 33 49 q 99 70 77 61 q 122 90 122 79 l 122 467 q 119 511 122 495 q 109 535 117 527 q 82 547 100 544 q 33 554 64 550 l 33 603 q 85 608 56 604 q 143 619 114 613 q 200 634 173 626 q 246 652 227 642 l 275 623 l 282 525 q 430 621 361 592 q 552 651 499 651 q 612 639 585 651 q 660 607 640 628 q 690 556 679 586 q 702 487 702 525 l 702 75 "},"Ỵ":{"x_min":-0.46875,"x_max":828.078125,"ha":851,"o":"m 233 0 l 233 49 q 284 62 264 55 q 317 75 305 69 q 334 87 329 81 q 340 98 340 93 l 340 358 q 285 470 315 412 q 223 581 254 527 q 162 681 192 635 q 108 759 132 727 q 95 773 102 766 q 77 783 89 779 q 48 789 66 787 q 2 792 30 792 l 0 841 q 44 848 19 844 q 95 854 70 851 q 142 858 120 856 q 178 861 164 861 q 216 852 197 861 q 247 829 235 844 q 299 752 272 795 q 355 660 327 709 q 410 560 383 611 q 461 460 437 509 l 619 760 q 613 788 630 778 q 544 805 596 798 l 544 855 l 828 855 l 828 805 q 759 787 781 796 q 727 760 737 777 l 510 354 l 510 98 q 514 88 510 94 q 531 76 519 82 q 564 62 543 69 q 617 49 585 55 l 617 0 l 233 0 m 518 -184 q 510 -230 518 -209 q 487 -268 501 -252 q 453 -294 472 -285 q 412 -304 434 -304 q 352 -283 373 -304 q 331 -221 331 -262 q 340 -174 331 -196 q 363 -136 349 -152 q 397 -111 378 -120 q 438 -102 417 -102 q 497 -122 476 -102 q 518 -184 518 -143 "},"":{"x_min":21.625,"x_max":691.46875,"ha":707,"o":"m 691 205 q 685 144 688 176 q 677 83 681 112 q 670 32 673 54 q 663 0 666 10 l 29 0 l 29 49 q 98 70 75 59 q 122 91 122 81 l 122 297 l 36 297 l 21 313 q 26 326 22 317 q 32 345 29 335 q 38 363 35 355 q 44 378 41 372 l 122 378 l 122 458 l 36 458 l 21 474 q 26 487 22 478 q 32 506 29 496 q 38 524 35 516 q 44 539 41 533 l 122 539 l 122 763 q 99 783 122 771 q 29 805 77 795 l 29 855 l 385 855 l 385 805 q 315 784 339 795 q 292 763 292 772 l 292 539 l 492 539 l 509 523 l 485 458 l 292 458 l 292 378 l 492 378 l 509 362 l 485 297 l 292 297 l 292 131 q 297 109 292 119 q 317 94 303 100 q 356 84 332 87 q 418 81 380 81 l 494 81 q 547 88 525 81 q 584 112 568 95 q 614 156 601 129 q 641 223 627 183 l 691 205 "},"ṇ":{"x_min":33,"x_max":792.21875,"ha":807,"o":"m 449 0 l 449 49 q 518 71 498 62 q 539 90 539 81 l 539 399 q 535 461 539 436 q 523 500 531 485 q 501 521 515 515 q 467 528 488 528 q 433 523 451 528 q 393 508 415 519 q 344 479 371 498 q 285 433 317 461 l 285 90 q 308 69 285 80 q 375 49 331 59 l 375 0 l 33 0 l 33 49 q 99 70 77 61 q 122 90 122 79 l 122 467 q 120 509 122 493 q 111 533 119 524 q 85 546 103 542 q 33 554 67 550 l 33 602 q 93 610 65 605 q 147 620 121 615 q 197 634 173 626 q 246 651 221 641 l 274 622 l 282 524 q 430 621 361 592 q 552 651 499 651 q 608 641 581 651 q 656 612 635 632 q 689 558 676 591 q 702 477 702 524 l 702 90 q 706 81 702 86 q 720 72 710 77 q 748 62 730 67 q 792 49 765 56 l 792 0 l 449 0 m 504 -184 q 496 -230 504 -209 q 473 -268 487 -252 q 440 -294 459 -285 q 398 -304 420 -304 q 338 -283 359 -304 q 317 -221 317 -262 q 326 -174 317 -196 q 350 -136 335 -152 q 384 -111 364 -120 q 424 -102 403 -102 q 483 -122 462 -102 q 504 -184 504 -143 "},"Ǟ":{"x_min":0,"x_max":858.625,"ha":873,"o":"m 506 373 l 394 688 l 293 373 l 506 373 m 265 292 l 200 95 q 217 65 193 74 q 296 49 240 55 l 296 0 l 0 0 l 0 49 q 70 66 46 57 q 102 95 95 75 l 339 818 q 374 843 355 831 q 412 864 392 855 q 452 880 432 873 q 489 893 472 887 l 774 95 q 783 78 777 86 q 798 65 788 71 q 822 56 807 60 q 858 49 836 52 l 858 0 l 521 0 l 521 49 q 593 63 574 52 q 604 95 611 73 l 535 292 l 265 292 m 665 1050 q 657 1003 665 1024 q 633 965 648 981 q 599 939 619 949 q 558 930 580 930 q 498 951 519 930 q 478 1012 478 972 q 487 1059 478 1037 q 510 1097 496 1081 q 544 1122 525 1113 q 584 1132 563 1132 q 644 1111 622 1132 q 665 1050 665 1091 m 379 1050 q 371 1003 379 1024 q 348 965 362 981 q 314 939 334 949 q 273 930 295 930 q 213 951 234 930 q 192 1012 192 972 q 201 1059 192 1037 q 224 1097 210 1081 q 258 1122 239 1113 q 298 1132 278 1132 q 358 1111 337 1132 q 379 1050 379 1091 m 725 1298 q 717 1278 722 1290 q 706 1252 712 1265 q 695 1226 700 1238 q 687 1208 689 1214 l 168 1208 l 147 1230 q 153 1250 149 1237 q 164 1275 158 1262 q 176 1300 170 1288 q 185 1319 181 1312 l 703 1319 l 725 1298 "},"ü":{"x_min":22.9375,"x_max":775.453125,"ha":782,"o":"m 775 76 q 720 43 750 59 q 661 11 690 26 q 611 -11 633 -2 q 581 -20 589 -20 q 557 -15 569 -20 q 536 1 546 -11 q 519 35 527 13 q 508 92 512 57 q 432 33 466 55 q 371 0 399 11 q 321 -16 344 -12 q 277 -20 298 -20 q 214 -11 245 -20 q 159 21 183 -2 q 119 85 134 44 q 105 189 105 125 l 105 467 q 103 517 105 499 q 95 544 102 535 q 70 557 87 554 q 22 564 54 560 l 22 611 q 85 617 56 614 q 138 625 113 621 q 190 636 164 629 q 244 651 215 642 l 268 619 l 268 231 q 273 163 268 189 q 288 122 278 137 q 312 102 298 107 q 346 97 327 97 q 377 100 360 97 q 413 112 393 103 q 456 137 433 122 q 508 177 480 153 l 508 467 q 505 516 508 497 q 494 544 503 534 q 467 558 485 554 q 418 564 449 562 l 418 611 q 541 628 486 617 q 645 651 596 638 l 671 619 l 671 192 q 671 157 671 171 q 674 134 672 144 q 678 120 675 125 q 686 111 681 114 q 709 109 694 106 q 758 127 723 112 l 775 76 m 627 859 q 619 813 627 834 q 596 775 610 791 q 562 749 581 758 q 520 740 542 740 q 461 761 481 740 q 440 822 440 782 q 449 869 440 847 q 472 907 458 891 q 506 932 487 923 q 546 942 525 942 q 606 921 584 942 q 627 859 627 901 m 341 859 q 333 813 341 834 q 310 775 324 791 q 276 749 296 758 q 235 740 257 740 q 175 761 196 740 q 154 822 154 782 q 163 869 154 847 q 186 907 172 891 q 220 932 201 923 q 260 942 240 942 q 320 921 299 942 q 341 859 341 901 "}}}
